<?xml version="1.0" encoding="UTF-8"?>
<svg version="1.1" xmlns="http://www.w3.org/2000/svg" width="309" height="210">
<path d="M0 0 C1.65 0.33 3.3 0.66 5 1 C5 1.66 5 2.32 5 3 C5.61746094 3.00257812 6.23492187 3.00515625 6.87109375 3.0078125 C14.90255261 3.37454578 20.23130114 6.0046756 25.75390625 11.859375 C32.23499595 19.98104129 36.16916871 29.54625626 35 40 C33.65326597 45.09575038 31.38406964 48.14561625 26.875 50.875 C22.10616091 53.2316476 17.24179212 54.26680569 12 55 C12 56.32 12 57.64 12 59 C12.61746094 59.20753906 13.23492187 59.41507813 13.87109375 59.62890625 C22.81453174 62.88230302 29.54787383 68.03849544 36 75 C36.56589844 75.57234375 37.13179688 76.1446875 37.71484375 76.734375 C41.82046708 81.07435738 44.088712 85.04268562 46.08984375 90.65625 C47.31745525 93.81748133 48.99489029 96.27877968 51 99 C55.48632249 98.40238481 58.76791738 96.64980718 62.6875 94.4375 C68.79476861 91 68.79476861 91 71 91 C71.07734375 90.38640625 71.1546875 89.7728125 71.234375 89.140625 C72 87 72 87 73.890625 85.734375 C81.75674619 82.45248338 81.75674619 82.45248338 86 83 C86 83.99 86 84.98 86 86 C86.556875 85.34 87.11375 84.68 87.6875 84 C90 82 90 82 92.75 81.75 C93.4925 81.8325 94.235 81.915 95 82 C94.46252091 86.56857227 92.93335989 89.46492526 90 93 C86.44849153 95.37024587 82.94625325 96.79976503 78.76953125 97.68359375 C73.7457972 99.43799621 70.47224709 102.34833102 66.5 105.8125 C63.68085863 108.22566484 60.85250293 110.62632958 58 113 C57.36835938 113.52770996 56.73671875 114.05541992 56.0859375 114.59912109 C53.47459962 116.64311473 51.71144877 117.98330912 48.3359375 118.0625 C41.19369117 114.81385284 36.02647089 107.03625361 31.5078125 100.84765625 C29.95077539 98.75490354 29.95077539 98.75490354 27 97 C26.82916055 99.91647343 26.66327575 102.83310073 26.5 105.75 C26.45230469 106.55566406 26.40460938 107.36132812 26.35546875 108.19140625 C25.74460428 119.27423302 26.04036637 130.13226117 27 141.1875 C27.190894 143.40986733 27.37845958 145.63252337 27.5625 147.85546875 C27.64628906 148.82121826 27.73007813 149.78696777 27.81640625 150.78198242 C28.04840858 154.84850202 28 158.92686771 28 163 C52.75 163 77.5 163 103 163 C103 163.66 103 164.32 103 165 C42.61 165 -17.78 165 -80 165 C-79.505 164.01 -79.505 164.01 -79 163 C-60.85 163 -42.7 163 -24 163 C-24 159.37 -24 155.74 -24 152 C-23.71278195 148.42259663 -23.39451734 144.87648432 -23 141.3125 C-22.90460938 140.40822266 -22.80921875 139.50394531 -22.7109375 138.57226562 C-22.47904822 136.38091193 -22.24203811 134.19025177 -22 132 C-22.71414062 131.73703125 -23.42828125 131.4740625 -24.1640625 131.203125 C-31.37106246 128.14560987 -42.3712745 122.257451 -46 115 C-46.70851063 107.79680864 -45.05438354 102.81780817 -42.19140625 96.2109375 C-40.86242138 93.01688367 -40.86242138 93.01688367 -40.58984375 89.50390625 C-39.11019532 80.71420664 -31.04397975 72.21232911 -24.33203125 66.65234375 C-18.95891158 62.84525896 -13.51273767 60.09700369 -7 59 C-7 57.35 -7 55.7 -7 54 C-7.56847656 53.96261719 -8.13695312 53.92523438 -8.72265625 53.88671875 C-15.41057352 53.31729675 -21.27739822 52.29381005 -25.875 47 C-29.72064077 41.57086009 -29.5677929 36.49818171 -28.5390625 30.16015625 C-26.43389324 20.53829438 -22.70471407 11.90956044 -14.3671875 6.18359375 C-9.8349603 3.91748015 -4.95150447 2.94078585 0 2 C0 1.34 0 0.68 0 0 Z M-23 95 C-26.67423776 99.06790609 -29.99254848 103.87595708 -32 109 C-31.84057364 111.82184652 -31.27033597 112.74095279 -29.22265625 114.703125 C-28.50980469 115.21359375 -27.79695313 115.7240625 -27.0625 116.25 C-26.35222656 116.77078125 -25.64195313 117.2915625 -24.91015625 117.828125 C-23.0893713 119.17430996 -23.0893713 119.17430996 -21 119 C-21.33 111.08 -21.66 103.16 -22 95 C-22.33 95 -22.66 95 -23 95 Z " fill="#4C286F" transform="translate(138,30)"/>
<path d="M0 0 C0.886875 0.515625 1.77375 1.03125 2.6875 1.5625 C4.206316 2.42024861 5.72733664 3.27409989 7.25 4.125 C8.36568359 4.77662109 8.36568359 4.77662109 9.50390625 5.44140625 C11.57928726 6.50694176 13.40995723 7.10285985 15.6875 7.5625 C15.4090625 8.5215625 15.4090625 8.5215625 15.125 9.5 C14.980625 10.180625 14.83625 10.86125 14.6875 11.5625 C15.1825 12.0575 15.1825 12.0575 15.6875 12.5625 C16.72546031 19.92019333 15.72000963 24.74105497 11.29296875 30.6875 C9.6875 32.5625 9.6875 32.5625 8 34.08203125 C5.78504836 36.58044397 6.50783892 39.38848757 6.6875 42.5625 C7.6775 42.5625 8.6675 42.5625 9.6875 42.5625 C9.3575 43.5525 9.0275 44.5425 8.6875 45.5625 C9.3475 45.2325 10.0075 44.9025 10.6875 44.5625 C20.13225788 45.37467058 27.67688267 52.6518156 33.6875 59.5625 C38.6875 65.81884518 38.6875 65.81884518 38.6875 68.5625 C36.640625 70.03515625 36.640625 70.03515625 33.9375 71.625 C33.05578125 72.15222656 32.1740625 72.67945312 31.265625 73.22265625 C29.0177023 74.39089487 27.15929076 75.09470782 24.6875 75.5625 C23.6975 73.2525 22.7075 70.9425 21.6875 68.5625 C21.3575 80.4425 21.0275 92.3225 20.6875 104.5625 C6.4975 104.5625 -7.6925 104.5625 -22.3125 104.5625 C-22.6425 100.4375 -22.9725 96.3125 -23.3125 92.0625 C-23.41691406 90.77794922 -23.52132812 89.49339844 -23.62890625 88.16992188 C-24.0907414 82.27969107 -24.42721888 76.47052219 -24.3125 70.5625 C-24.3125 70.2325 -24.3125 69.9025 -24.3125 69.5625 C-25.3025 71.8725 -26.2925 74.1825 -27.3125 76.5625 C-34.2425 73.0975 -34.2425 73.0975 -41.3125 69.5625 C-39.7772852 58.81599637 -33.37006291 52.72416575 -24.9140625 46.2578125 C-20.68268079 43.50042562 -15.48856304 40.5625 -10.3125 40.5625 C-10.3125 38.9125 -10.3125 37.2625 -10.3125 35.5625 C-10.95058594 35.51351562 -11.58867187 35.46453125 -12.24609375 35.4140625 C-13.07238281 35.33929688 -13.89867188 35.26453125 -14.75 35.1875 C-15.57371094 35.11789063 -16.39742187 35.04828125 -17.24609375 34.9765625 C-18.26896484 34.77160156 -18.26896484 34.77160156 -19.3125 34.5625 C-19.6425 33.9025 -19.9725 33.2425 -20.3125 32.5625 C-18.0025 32.5625 -15.6925 32.5625 -13.3125 32.5625 C-14.5190625 31.263125 -14.5190625 31.263125 -15.75 29.9375 C-18.33853473 26.88621046 -18.68569357 24.50242616 -19.3125 20.5625 C-21.26413118 19.12612302 -21.26413118 19.12612302 -23.3125 18.5625 C-23.4375 16.1875 -23.4375 16.1875 -23.3125 13.5625 C-22.6525 12.9025 -21.9925 12.2425 -21.3125 11.5625 C-20.3225 11.5625 -19.3325 11.5625 -18.3125 11.5625 C-18.3125 10.2425 -18.3125 8.9225 -18.3125 7.5625 C-15.0125 7.2325 -11.7125 6.9025 -8.3125 6.5625 C-8.3125 5.5725 -8.3125 4.5825 -8.3125 3.5625 C-3.42028443 -0.64708084 -3.42028443 -0.64708084 0 0 Z " fill="#FE938F" transform="translate(141.3125,48.4375)"/>
<path d="M0 0 C2 3 2 3 1.8203125 5.2265625 C0.5854548 9.40155758 -1.1958024 13.34315458 -3.00390625 17.296875 C-4.98535312 21.94237245 -5.36569527 25.12998878 -4 30 C0.98862922 36.63570633 9.56182239 41.57681373 17 45 C17.66 44.67 18.32 44.34 19 44 C19.33 42.35 19.66 40.7 20 39 C33.86 39 47.72 39 62 39 C64.25 57 64.25 57 64.125 63.5 C64.10695313 64.7478125 64.08890625 65.995625 64.0703125 67.28125 C64.04710937 68.1784375 64.02390625 69.075625 64 70 C64.99 70 65.98 70 67 70 C67 72.64 67 75.28 67 78 C91.75 78 116.5 78 142 78 C142 78.66 142 79.32 142 80 C81.61 80 21.22 80 -41 80 C-40.505 79.01 -40.505 79.01 -40 78 C-21.85 78 -3.7 78 15 78 C15 74.37 15 70.74 15 67 C15.28721805 63.42259663 15.60548266 59.87648432 16 56.3125 C16.09539062 55.40822266 16.19078125 54.50394531 16.2890625 53.57226562 C16.52095178 51.38091193 16.75796189 49.19025177 17 47 C16.28585938 46.73703125 15.57171875 46.4740625 14.8359375 46.203125 C7.62893754 43.14560987 -3.3712745 37.257451 -7 30 C-7.7153893 22.7268754 -5.96090543 17.73905137 -3.17578125 11.0390625 C-1.84489429 7.59909554 -1.33143631 4.64579941 -1 1 C-0.67 0.67 -0.34 0.34 0 0 Z " fill="#7B75BA" transform="translate(99,115)"/>
<path d="M0 0 C3.02519989 2.05971056 4.66926776 3.51573824 5.48046875 7.15625 C5.74913364 11.51297801 5.38809203 13.47176362 2.75 17.0625 C0 19 0 19 -4 19 C-3.505 19.99 -3.505 19.99 -3 21 C-1.906875 20.896875 -0.81375 20.79375 0.3125 20.6875 C4 21 4 21 5.75 22.8125 C8.1945748 29.04616574 10.2568436 35.24868246 10 42 C11.98 42.495 11.98 42.495 14 43 C11.50935112 43.68707555 9.62113708 44 7 44 C5.35868324 44.3991388 3.72792357 44.84252887 2.10546875 45.3125 C1.14962891 45.58320312 0.19378906 45.85390625 -0.79101562 46.1328125 C-2.79451405 46.70783079 -4.79713282 47.28592346 -6.79882812 47.8671875 C-16.44190123 50.58719469 -16.44190123 50.58719469 -21 50 C-23.1385485 47.8614515 -23.42655063 46.86724686 -24 44 C-25.61068359 44.433125 -25.61068359 44.433125 -27.25390625 44.875 C-28.68998761 45.25044611 -30.12619221 45.62542105 -31.5625 46 C-32.61920898 46.28617188 -32.61920898 46.28617188 -33.69726562 46.578125 C-38.21286534 47.74344106 -42.29624847 48.36962306 -47 48 C-51.25736584 43.4385366 -52.62149875 35.60219608 -53.5 29.5625 C-53 27 -53 27 -50.625 25.1875 C-49.75875 24.795625 -48.8925 24.40375 -48 24 C-47.34 23.67 -46.68 23.34 -46 23 C-46 22.34 -46 21.68 -46 21 C-43.36 21.33 -40.72 21.66 -38 22 C-38.04640625 21.39671875 -38.0928125 20.7934375 -38.140625 20.171875 C-38.17671875 19.37265625 -38.2128125 18.5734375 -38.25 17.75 C-38.29640625 16.96109375 -38.3428125 16.1721875 -38.390625 15.359375 C-38 13 -38 13 -36.59375 10.71875 C-32.62353029 8.08788152 -28.89621333 8.57156345 -24.25 8.75 C-23.36183594 8.76804687 -22.47367188 8.78609375 -21.55859375 8.8046875 C-19.37129152 8.85172626 -17.18620184 8.91742991 -15 9 C-14.69964844 8.04738281 -14.39929688 7.09476563 -14.08984375 6.11328125 C-13.04666389 3.13330151 -12.45932317 1.86908561 -10 0 C-6.1544104 -1.2818632 -3.93271581 -0.94927623 0 0 Z " fill="#634279" transform="translate(236,56)"/>
<path d="M0 0 C0.78632813 -0.020625 1.57265625 -0.04125 2.3828125 -0.0625 C10.43999128 -0.11603607 16.29576448 2.40946601 22.25 7.91015625 C28.17973241 14.84747991 32.45259582 23.5787235 31.73046875 32.84375 C30.81423386 37.4323735 29.43383783 40.70094366 25.44921875 43.52734375 C21.13108146 45.88345361 17.12525187 46.84372901 12.25 47.25 C12.59933594 46.64671875 12.94867188 46.0434375 13.30859375 45.421875 C13.76363281 44.62265625 14.21867187 43.8234375 14.6875 43 C15.13996094 42.21109375 15.59242188 41.4221875 16.05859375 40.609375 C17.33040518 38.34120898 17.33040518 38.34120898 17.72265625 36.015625 C17.89667969 35.43296875 18.07070312 34.8503125 18.25 34.25 C19.24 33.92 20.23 33.59 21.25 33.25 C21.58 31.6 21.91 29.95 22.25 28.25 C21.59 27.816875 20.93 27.38375 20.25 26.9375 C19.59 26.380625 18.93 25.82375 18.25 25.25 C18.25 24.26 18.25 23.27 18.25 22.25 C19.57 22.25 20.89 22.25 22.25 22.25 C22.25 21.59 22.25 20.93 22.25 20.25 C21.363125 20.311875 20.47625 20.37375 19.5625 20.4375 C15.6382101 20.21537038 13.0479595 19.0479595 10.25 16.25 C9.26 16.745 9.26 16.745 8.25 17.25 C5.94 15.6 3.63 13.95 1.25 12.25 C-1.03526976 13.37354551 -3.2824651 14.53988932 -5.51953125 15.7578125 C-15.56039755 21.0940367 -15.56039755 21.0940367 -21.75 20.25 C-21.75 20.91 -21.75 21.57 -21.75 22.25 C-20.43 22.25 -19.11 22.25 -17.75 22.25 C-17.75 23.24 -17.75 24.23 -17.75 25.25 C-18.74 25.91 -19.73 26.57 -20.75 27.25 C-21.33402133 29.66417872 -21.33402133 29.66417872 -20.75 32.25 C-19.43945377 33.60573748 -18.10251497 34.93612831 -16.75 36.25 C-15.71514123 38.56808364 -14.7144586 40.90175298 -13.75 43.25 C-12.77924015 44.6047705 -11.78450491 45.94325696 -10.75 47.25 C-22.86378978 45.6376567 -22.86378978 45.6376567 -26.75 41.25 C-29.94909335 36.07051552 -29.36545336 29.43785607 -28.25 23.66015625 C-25.49144124 13.48797082 -20.62546682 6.98414991 -11.75 1.25 C-7.83316136 -0.05561288 -4.08317352 0.02625835 0 0 Z " fill="#01CEAC" transform="translate(139.75,34.75)"/>
<path d="M0 0 C0.886875 0.515625 1.77375 1.03125 2.6875 1.5625 C4.206316 2.42024861 5.72733664 3.27409989 7.25 4.125 C8.36568359 4.77662109 8.36568359 4.77662109 9.50390625 5.44140625 C11.57928726 6.50694176 13.40995723 7.10285985 15.6875 7.5625 C15.4090625 8.5215625 15.4090625 8.5215625 15.125 9.5 C14.980625 10.180625 14.83625 10.86125 14.6875 11.5625 C15.1825 12.0575 15.1825 12.0575 15.6875 12.5625 C16.51544949 18.43150904 16.33304464 23.37676875 13.1875 28.5 C10.01553546 32.63766803 6.78994357 35.2845571 1.6875 36.5625 C-2.69552523 37.06144333 -5.90592452 36.51067181 -9.58984375 34.02734375 C-12.67389347 31.40060339 -15.05869324 28.94321014 -17.3125 25.5625 C-17.5078125 22.64453125 -17.5078125 22.64453125 -17.4375 19.375 C-17.41945313 18.28832031 -17.40140625 17.20164062 -17.3828125 16.08203125 C-17.35960938 15.25058594 -17.33640625 14.41914062 -17.3125 13.5625 C-16.3225 13.8925 -15.3325 14.2225 -14.3125 14.5625 C-13.9825 15.8825 -13.6525 17.2025 -13.3125 18.5625 C-10.3425 18.5625 -7.3725 18.5625 -4.3125 18.5625 C-3.39357884 14.88681536 -3.35345144 13.39869425 -4.3125 9.5625 C-7.2825 9.5625 -10.2525 9.5625 -13.3125 9.5625 C-13.6425 10.5525 -13.9725 11.5425 -14.3125 12.5625 C-15.3025 12.2325 -16.2925 11.9025 -17.3125 11.5625 C-17.3125 10.2425 -17.3125 8.9225 -17.3125 7.5625 C-12.8575 7.0675 -12.8575 7.0675 -8.3125 6.5625 C-8.3125 5.5725 -8.3125 4.5825 -8.3125 3.5625 C-3.42028443 -0.64708084 -3.42028443 -0.64708084 0 0 Z " fill="#F9CBC0" transform="translate(141.3125,48.4375)"/>
<path d="M0 0 C2.475 0.495 2.475 0.495 5 1 C5 1.66 5 2.32 5 3 C5.61746094 3.00257812 6.23492187 3.00515625 6.87109375 3.0078125 C14.90255261 3.37454578 20.23130114 6.0046756 25.75390625 11.859375 C32.23499595 19.98104129 36.16916871 29.54625626 35 40 C33.65326597 45.09575038 31.38406964 48.14561625 26.875 50.875 C22.10616091 53.2316476 17.24179212 54.26680569 12 55 C12 56.32 12 57.64 12 59 C12.61746094 59.20753906 13.23492187 59.41507813 13.87109375 59.62890625 C22.81453174 62.88230302 29.54787383 68.03849544 36 75 C36.56589844 75.57234375 37.13179688 76.1446875 37.71484375 76.734375 C41.82046708 81.07435738 44.088712 85.04268562 46.08984375 90.65625 C47.31745525 93.81748133 48.99489029 96.27877968 51 99 C54.55780196 98.39009109 57.6828589 97.4216319 61 96 C59.7820245 99.65392651 58.85603494 99.95831699 55.5625 101.75 C54.75941406 102.19859375 53.95632812 102.6471875 53.12890625 103.109375 C52.42636719 103.40328125 51.72382813 103.6971875 51 104 C48.16517233 102.58258617 48.17417551 100.96633813 47 98 C45.80736209 95.80390122 44.57019647 93.63826978 43.31640625 91.4765625 C42 89 42 89 40.65625 85.58984375 C38.90489644 81.79386752 36.77085283 78.94985885 33.9375 75.9375 C33.45651855 75.4216333 32.97553711 74.9057666 32.47998047 74.37426758 C28.31813582 70.06052582 23.74452217 65.98999659 18 64 C15.37743882 64.25656605 15.37743882 64.25656605 13 65 C11.8553125 65.2784375 11.8553125 65.2784375 10.6875 65.5625 C9.8521875 65.7790625 9.8521875 65.7790625 9 66 C10.32 64.35 11.64 62.7 13 61 C12.01 61 11.02 61 10 61 C8.87060409 55.7874035 8.87060409 55.7874035 9 53 C11.1875 50.9375 11.1875 50.9375 14 49 C18.24088297 43.22768707 18.7444177 38.06685072 19 31 C18.34 30.67 17.68 30.34 17 30 C17.66 28.68 18.32 27.36 19 26 C18.21625 25.95875 17.4325 25.9175 16.625 25.875 C12.18266415 24.80271204 9.18104438 22.68278461 5.46484375 20.08203125 C3.01949601 18.7026234 3.01949601 18.7026234 0.37890625 19.69921875 C-2.15125984 21.03763897 -2.15125984 21.03763897 -5 23 C-4.01 23.66 -3.02 24.32 -2 25 C-3.41633336 25.16947579 -4.83308533 25.33545507 -6.25 25.5 C-7.03890625 25.5928125 -7.8278125 25.685625 -8.640625 25.78125 C-11 26 -11 26 -15 26 C-15.33 27.32 -15.66 28.64 -16 30 C-16 29.01 -16 28.02 -16 27 C-17.32 27 -18.64 27 -20 27 C-20 26.34 -20 25.68 -20 25 C-19.39414063 24.92523438 -18.78828125 24.85046875 -18.1640625 24.7734375 C-11.88396387 23.7879451 -7.47600105 21.81590951 -2.2265625 18.2421875 C0 17 0 17 4 17 C5.8515625 17.91015625 5.8515625 17.91015625 7.625 19.0625 C8.73875 19.701875 9.8525 20.34125 11 21 C11.66 20.67 12.32 20.34 13 20 C13 20.66 13 21.32 13 22 C16.65079826 23.61064629 20.0507432 24.44894091 24 25 C24 25.66 24 26.32 24 27 C22.68 27 21.36 27 20 27 C20 27.99 20 28.98 20 30 C20.639375 30.2475 21.27875 30.495 21.9375 30.75 C24 32 24 32 24.6875 33.8125 C25.21088076 37.47616529 24.0007913 40.4677954 23 44 C22.67 44 22.34 44 22 44 C22 42.35 22 40.7 22 39 C21.34 39 20.68 39 20 39 C19.9175 39.86625 19.835 40.7325 19.75 41.625 C18.89392254 45.47734858 17.32631454 47.848219 15 51 C24.08931878 49.4249428 24.08931878 49.4249428 30.8125 43.5 C33.48957783 35.60966535 32.64095379 29.20854694 29 21.75 C25.50262399 15.04270355 21.36427406 9.85323521 14.3046875 6.85546875 C6.19735824 4.75676295 -4.75063324 4.15246527 -12.3125 8.125 C-20.15373938 13.62305651 -24.12264437 21.75763382 -26 31 C-26.50713296 36.91004953 -26.63063024 42.03813868 -23 47 C-19.94960779 48.90206849 -19.94960779 48.90206849 -17 50 C-17 50.66 -17 51.32 -17 52 C-22.68582243 50.67771571 -24.7161093 48.59744698 -28 44 C-30.81705568 35.54883295 -28.30343761 26.1091825 -24.74609375 18.21875 C-20.89681106 11.25438023 -16.50305804 6.45491924 -8.8203125 3.97265625 C-5.8903114 3.2246442 -2.97030595 2.56435813 0 2 C0 1.34 0 0.68 0 0 Z " fill="#3E246C" transform="translate(138,30)"/>
<path d="M0 0 C3.625 0.375 3.625 0.375 5.375 2.1875 C7.8195748 8.42116574 9.8818436 14.62368246 9.625 21.375 C10.945 21.705 12.265 22.035 13.625 22.375 C11.13435112 23.06207555 9.24613708 23.375 6.625 23.375 C4.98368324 23.7741388 3.35292357 24.21752887 1.73046875 24.6875 C0.77462891 24.95820312 -0.18121094 25.22890625 -1.16601562 25.5078125 C-3.16951405 26.08283079 -5.17213282 26.66092346 -7.17382812 27.2421875 C-16.81690123 29.96219469 -16.81690123 29.96219469 -21.375 29.375 C-23.9404594 26.8095406 -23.91546087 24.89813332 -24.375 21.375 C-22.395 20.715 -20.415 20.055 -18.375 19.375 C-18.045 17.065 -17.715 14.755 -17.375 12.375 C-11.435 11.88 -11.435 11.88 -5.375 11.375 C-5.230625 9.745625 -5.08625 8.11625 -4.9375 6.4375 C-4.41051136 0.49005682 -4.41051136 0.49005682 0 0 Z " fill="#F4F2F6" transform="translate(236.375,76.625)"/>
<path d="M0 0 C2 3 2 3 1.8203125 5.2265625 C0.5854548 9.40155758 -1.1958024 13.34315458 -3.00390625 17.296875 C-4.98535312 21.94237245 -5.36569527 25.12998878 -4 30 C1.06977858 36.74364847 9.57497887 41.29328119 17 45 C17.66 45 18.32 45 19 45 C18.88779589 48.41720809 18.75776423 51.83353385 18.625 55.25 C18.57859375 56.673125 18.57859375 56.673125 18.53125 58.125 C18.23869095 65.3414566 17.20759466 71.75443204 16 79 C32.5 79 49 79 66 79 C65.505 74.545 65.505 74.545 65 70 C65.66 70 66.32 70 67 70 C67 72.64 67 75.28 67 78 C91.75 78 116.5 78 142 78 C142 78.66 142 79.32 142 80 C81.61 80 21.22 80 -41 80 C-40.505 79.01 -40.505 79.01 -40 78 C-21.85 78 -3.7 78 15 78 C15 74.37 15 70.74 15 67 C15.28721805 63.42259663 15.60548266 59.87648432 16 56.3125 C16.09539062 55.40822266 16.19078125 54.50394531 16.2890625 53.57226562 C16.52095178 51.38091193 16.75796189 49.19025177 17 47 C16.28585938 46.73703125 15.57171875 46.4740625 14.8359375 46.203125 C7.62893754 43.14560987 -3.3712745 37.257451 -7 30 C-7.7153893 22.7268754 -5.96090543 17.73905137 -3.17578125 11.0390625 C-1.84489429 7.59909554 -1.33143631 4.64579941 -1 1 C-0.67 0.67 -0.34 0.34 0 0 Z " fill="#3A1A69" transform="translate(99,115)"/>
<path d="M0 0 C1.7890625 2.43359375 1.7890625 2.43359375 3.625 5.4375 C4.23601562 6.42621094 4.84703125 7.41492188 5.4765625 8.43359375 C6.36427588 9.92904937 7.22225679 11.44451357 8 13 C9.05960938 12.4225 10.11921875 11.845 11.2109375 11.25 C12.59884058 10.49978212 13.98686787 9.74979399 15.375 9 C16.07367188 8.6184375 16.77234375 8.236875 17.4921875 7.84375 C22.7734375 5 22.7734375 5 25 5 C27 8 27 8 27 11 C25.12890625 12.796875 25.12890625 12.796875 22.5625 14.75 C18.4802084 17.8630051 18.4802084 17.8630051 14.5078125 21.11328125 C13.74210937 21.75652344 12.97640625 22.39976562 12.1875 23.0625 C11.50042969 23.65160156 10.81335938 24.24070313 10.10546875 24.84765625 C8 26 8 26 5.62109375 26.109375 C1.65194538 24.42943739 -0.46016069 21.49362857 -3.125 18.1875 C-3.64964844 17.55779297 -4.17429688 16.92808594 -4.71484375 16.27929688 C-7.22785491 13.24777834 -9.67672568 10.18048243 -12 7 C-10.95724749 3.7558811 -9.38759509 2.39805336 -6.5625 0.6875 C-3 -1 -3 -1 0 0 Z " fill="#F9CABE" transform="translate(181,120)"/>
<path d="M0 0 C13.86 0 27.72 0 42 0 C43.15713099 9.25704796 44.24240777 18.14317734 44.75390625 27.40234375 C45.04187808 31.61221763 45.53401081 35.80609729 46 40 C29.5 40 13 40 -4 40 C-4 37.69 -4 35.38 -4 33 C-3.67 33 -3.34 33 -3 33 C-3 34.98 -3 36.96 -3 39 C10.53 39 24.06 39 38 39 C38 29.76 38 20.52 38 11 C36.68 10.34 35.36 9.68 34 9 C34.33 8.34 34.66 7.68 35 7 C35.66 7.66 36.32 8.32 37 9 C37 6.36 37 3.72 37 1 C32.38 1 27.76 1 23 1 C23 1.66 23 2.32 23 3 C25.64 3 28.28 3 31 3 C31 3.33 31 3.66 31 4 C28.36 4 25.72 4 23 4 C23 7.96 23 11.92 23 16 C21.68 16 20.36 16 19 16 C19 12.04 19 8.08 19 4 C12.73 4 6.46 4 0 4 C0 2.68 0 1.36 0 0 Z " fill="#5D53A0" transform="translate(119,154)"/>
<path d="M0 0 C3.91211733 1.15585285 6.8745041 2.35534962 10 5 C9.42616722 9.04588426 8.13165172 11.75881373 5.9375 15.1875 C3.69989399 18.36054103 3.69989399 18.36054103 3 22 C4.94872877 23.6018962 6.89277939 25.09336476 8.9375 26.5625 C14.96239407 30.96239407 14.96239407 30.96239407 16 32 C16.07179964 33.51928038 16.08392007 35.04167482 16.0625 36.5625 C16.05347656 37.38878906 16.04445313 38.21507812 16.03515625 39.06640625 C16.02355469 39.70449219 16.01195313 40.34257812 16 41 C6.68397408 36.877163 -2.07786663 31.49287762 -8 23 C-8.28434803 15.18042907 -4.30961273 7.92950166 -1 1 C-0.67 0.67 -0.34 0.34 0 0 Z " fill="#FACCBF" transform="translate(101,120)"/>
<path d="M0 0 C0.33 1.32 0.66 2.64 1 4 C1.99 4 2.98 4 4 4 C4.4125 3.484375 4.825 2.96875 5.25 2.4375 C7 1 7 1 10.6875 1.3125 C11.780625 1.539375 12.87375 1.76625 14 2 C15.33094459 4.66188919 16.13989294 6.28055061 15.5625 9.25 C14 11 14 11 10.5625 11.9375 C7 12 7 12 5.25 10.75 C4.8375 10.1725 4.425 9.595 4 9 C3.00985151 7.9902446 2.0110487 6.98882785 1 6 C0.92558507 12.3784229 0.97892108 17.60347121 5.25 22.625 C7.99792965 25.29521043 10.13519004 27.37084489 14 28 C16.65322955 27.83391364 19.25799451 27.56137651 21.890625 27.19140625 C22.58671875 27.12824219 23.2828125 27.06507812 24 27 C25 28 25 28 25.09765625 29.84765625 C25.06510417 31.8984375 25.03255208 33.94921875 25 36 C22.31767173 37.34116414 20.18167741 37.16904021 17.1875 37.1875 C15.63095703 37.20876953 15.63095703 37.20876953 14.04296875 37.23046875 C10.96229467 36.99714427 8.78238408 36.30118886 6 35 C5.67 35.66 5.34 36.32 5 37 C3.33377221 37.33552027 1.66703519 37.66851462 0 38 C-9.76441746 43.14098304 -16.27878245 50.75803319 -22 60 C-22.495 58.515 -22.495 58.515 -23 57 C-17.02629665 46.31200654 -8.35566066 38.48298512 3 34 C4.65788281 33.6254156 6.32353326 33.27990741 8 33 C8 31.35 8 29.7 8 28 C7.36191406 27.95101562 6.72382813 27.90203125 6.06640625 27.8515625 C5.24011719 27.77679688 4.41382812 27.70203125 3.5625 27.625 C2.73878906 27.55539063 1.91507813 27.48578125 1.06640625 27.4140625 C0.38449219 27.27742188 -0.29742187 27.14078125 -1 27 C-1.33 26.34 -1.66 25.68 -2 25 C0.31 25 2.62 25 5 25 C3.7934375 23.700625 3.7934375 23.700625 2.5625 22.375 C-0.02603473 19.32371046 -0.37319357 16.93992616 -1 13 C-2.95163118 11.56362302 -2.95163118 11.56362302 -5 11 C-5.125 8.625 -5.125 8.625 -5 6 C-4.34 5.34 -3.68 4.68 -3 4 C-2.01 4 -1.02 4 0 4 C0 2.68 0 1.36 0 0 Z " fill="#512D71" transform="translate(123,56)"/>
<path d="M0 0 C0.7425 0.0825 1.485 0.165 2.25 0.25 C1.71252091 4.81857227 0.18335989 7.71492526 -2.75 11.25 C-7.39839325 14.35229723 -12.41149629 15.73910272 -17.75 17.25 C-20.5834743 18.76462733 -20.5834743 18.76462733 -22.75 20.25 C-23.41 17.94 -24.07 15.63 -24.75 13.25 C-28.215 14.735 -28.215 14.735 -31.75 16.25 C-31.75 15.26 -31.75 14.27 -31.75 13.25 C-30.46086513 12.57845067 -29.16859796 11.91291141 -27.875 11.25 C-27.15570313 10.87875 -26.43640625 10.5075 -25.6953125 10.125 C-23.75 9.25 -23.75 9.25 -21.75 9.25 C-21.67265625 8.63640625 -21.5953125 8.0228125 -21.515625 7.390625 C-20.75 5.25 -20.75 5.25 -18.859375 3.984375 C-10.99325381 0.70248338 -10.99325381 0.70248338 -6.75 1.25 C-6.75 2.24 -6.75 3.23 -6.75 4.25 C-6.193125 3.59 -5.63625 2.93 -5.0625 2.25 C-2.75 0.25 -2.75 0.25 0 0 Z " fill="#4A2A73" transform="translate(230.75,111.75)"/>
<path d="M0 0 C0.886875 0.515625 1.77375 1.03125 2.6875 1.5625 C4.206316 2.42024861 5.72733664 3.27409989 7.25 4.125 C8.36568359 4.77662109 8.36568359 4.77662109 9.50390625 5.44140625 C11.57928726 6.50694176 13.40995723 7.10285985 15.6875 7.5625 C14.72564403 12.15458657 12.80922874 16.04118998 9.6875 19.5625 C6.5625 20.25 6.5625 20.25 3.6875 19.5625 C1.8125 18.1875 1.8125 18.1875 0.6875 16.5625 C0.6875 15.9025 0.6875 15.2425 0.6875 14.5625 C-0.6325 14.2325 -1.9525 13.9025 -3.3125 13.5625 C-3.6425 12.2425 -3.9725 10.9225 -4.3125 9.5625 C-7.2825 9.5625 -10.2525 9.5625 -13.3125 9.5625 C-13.6425 10.5525 -13.9725 11.5425 -14.3125 12.5625 C-15.3025 12.2325 -16.2925 11.9025 -17.3125 11.5625 C-17.3125 10.2425 -17.3125 8.9225 -17.3125 7.5625 C-12.8575 7.0675 -12.8575 7.0675 -8.3125 6.5625 C-8.3125 5.5725 -8.3125 4.5825 -8.3125 3.5625 C-3.42028443 -0.64708084 -3.42028443 -0.64708084 0 0 Z " fill="#623F7B" transform="translate(141.3125,48.4375)"/>
<path d="M0 0 C7.21868766 -0.12738861 14.41488137 0.03533548 21.625 0.375 C22.41890137 0.40585693 23.21280273 0.43671387 24.03076172 0.46850586 C29.76677874 0.76677874 29.76677874 0.76677874 32 3 C19.37309417 13.65022422 19.37309417 13.65022422 13.5546875 14.5078125 C10.91034182 14.22473633 8.52849523 13.81479576 6 13 C5.7525 11.9275 5.505 10.855 5.25 9.75 C3.98470426 5.95411278 2.8930687 4.60376183 0 2 C0 1.34 0 0.68 0 0 Z " fill="#FDFCFD" transform="translate(211,32)"/>
<path d="M0 0 C-2.31856917 1.54571278 -4.50638429 2.79618552 -7 4 C-5.11542462 5.20528665 -3.21682415 6.38866449 -1.3125 7.5625 C-0.25675781 8.22378906 0.79898438 8.88507813 1.88671875 9.56640625 C4.83567155 11.18071766 4.83567155 11.18071766 7.6875 11.03125 C10.83398473 9.62808789 11.68078379 7.9353042 13.3125 4.9375 C14.08013672 3.55884766 14.08013672 3.55884766 14.86328125 2.15234375 C15.23839844 1.44207031 15.61351562 0.73179688 16 0 C16.66 0.33 17.32 0.66 18 1 C17.26290216 2.61013585 16.50974143 4.21292391 15.75 5.8125 C15.12351563 7.15248047 15.12351563 7.15248047 14.484375 8.51953125 C12.88201416 11.19716055 11.7279796 12.50160245 9 14 C8.16082031 13.979375 7.32164062 13.95875 6.45703125 13.9375 C3.87539901 13.72515632 3.87539901 13.72515632 2.19921875 15.75 C1.70035156 16.4925 1.20148438 17.235 0.6875 18 C0.17574219 18.7425 -0.33601562 19.485 -0.86328125 20.25 C-1.23839844 20.8275 -1.61351562 21.405 -2 22 C-1.28714844 21.7834375 -0.57429687 21.566875 0.16015625 21.34375 C5.61820717 19.75702187 10.31558966 18.62103931 16 19 C9.72969869 22.31533173 2.12432486 25.16315508 -5 24 C-9.25736584 19.4385366 -10.62149875 11.60219608 -11.5 5.5625 C-11 3 -11 3 -8.875 1.125 C-5.70243155 -0.11643983 -3.37694418 -0.23560076 0 0 Z " fill="#57346E" transform="translate(194,80)"/>
<path d="M0 0 C3.80470451 0.7133821 5.41196019 1.67868421 8 4.5625 C9.27176524 8.67703459 9.50686067 10.59101705 7.5 14.4375 C4.23718151 17.21089572 2.26438773 17.63731382 -2 17.5625 C-4.80189446 15.79608828 -6.51524911 14.53200178 -8 11.5625 C-8.54035146 7.50986402 -8.34199395 6.02519769 -5.875 2.6875 C-3 0.5625 -3 0.5625 0 0 Z " fill="#5CB5F9" transform="translate(231,56.4375)"/>
<path d="M0 0 C0.66 0.33 1.32 0.66 2 1 C1.67 1.66 1.34 2.32 1 3 C0.98341147 5.55612443 1.02691932 8.08030182 1.12109375 10.6328125 C1.14175903 11.29917725 1.16242432 11.96554199 1.18371582 12.65209961 C1.26252839 15.14325605 1.35057142 17.63411356 1.4375 20.125 C1.623125 25.69375 1.80875 31.2625 2 37 C15.86 37 29.72 37 44 37 C44 37.33 44 37.66 44 38 C30.14 38 16.28 38 2 38 C2 39.65 2 41.3 2 43 C1.01 43.495 1.01 43.495 0 44 C-0.03222656 42.79085937 -0.06445312 41.58171875 -0.09765625 40.3359375 C-0.52673123 36.91389487 -1.21281791 35.31341652 -3.87109375 33.1015625 C-5.04284347 32.25201107 -6.23246448 31.4266386 -7.4375 30.625 C-8.62415821 29.78450366 -9.81037468 28.94338321 -10.99609375 28.1015625 C-11.98738281 27.40804687 -12.97867188 26.71453125 -14 26 C-14.66 25.34 -15.32 24.68 -16 24 C-15.01 23.67 -14.02 23.34 -13 23 C-11.26972996 20.59763376 -11.26972996 20.59763376 -9.75 17.6875 C-9.20859375 16.72199219 -8.6671875 15.75648438 -8.109375 14.76171875 C-6.84571369 12.15302622 -6.84571369 12.15302622 -7.07421875 9.78515625 C-8.3204493 7.38208722 -9.61221773 6.83901434 -12.0625 5.75 C-12.79597656 5.41484375 -13.52945313 5.0796875 -14.28515625 4.734375 C-14.85105469 4.49203125 -15.41695313 4.2496875 -16 4 C-15.67 3.34 -15.34 2.68 -15 2 C-11.37 3.98 -7.74 5.96 -4 8 C-2.68 5.36 -1.36 2.72 0 0 Z M-2 9 C-5.67423776 13.06790609 -8.99254848 17.87595708 -11 23 C-10.84057364 25.82184652 -10.27033597 26.74095279 -8.22265625 28.703125 C-7.50980469 29.21359375 -6.79695313 29.7240625 -6.0625 30.25 C-5.35222656 30.77078125 -4.64195313 31.2915625 -3.91015625 31.828125 C-2.0893713 33.17430996 -2.0893713 33.17430996 0 33 C-0.33 25.08 -0.66 17.16 -1 9 C-1.33 9 -1.66 9 -2 9 Z " fill="#4C276E" transform="translate(117,116)"/>
<path d="M0 0 C-1.35998384 3.5836541 -2.9207483 6.91572523 -4.8125 10.25 C-5.53373047 11.55710937 -5.53373047 11.55710937 -6.26953125 12.890625 C-8 15 -8 15 -10.3046875 16 C-14.04073207 16 -16.12962999 14.66205378 -19.3125 12.75 C-20.38113281 12.12609375 -21.44976562 11.5021875 -22.55078125 10.859375 C-23.35902344 10.24578125 -24.16726562 9.6321875 -25 9 C-25 8.01 -25 7.02 -25 6 C-21.39753737 4.99379031 -17.79276877 3.99610413 -14.1875 3 C-13.16333984 2.71382813 -12.13917969 2.42765625 -11.08398438 2.1328125 C-10.10107422 1.86210938 -9.11816406 1.59140625 -8.10546875 1.3125 C-6.74651489 0.93544922 -6.74651489 0.93544922 -5.36010742 0.55078125 C-3 0 -3 0 0 0 Z " fill="#F7C791" transform="translate(212,76)"/>
<path d="M0 0 C2.475 0.495 2.475 0.495 5 1 C5 1.66 5 2.32 5 3 C5.61746094 3.00257812 6.23492187 3.00515625 6.87109375 3.0078125 C14.96288954 3.37730089 20.38226701 6.04025444 25.859375 12.03515625 C28.41180908 15.28647109 30.19828305 17.90031106 31 22 C30.34 22 29.68 22 29 22 C27.7734375 20.2421875 27.7734375 20.2421875 26.375 17.875 C23.16315889 12.88405083 19.01671857 8.18419513 13.13012695 6.44873047 C5.34906161 4.80957882 -5.1879287 4.35743009 -12.3125 8.125 C-20.15373938 13.62305651 -24.12264437 21.75763382 -26 31 C-26.50713296 36.91004953 -26.63063024 42.03813868 -23 47 C-19.94960779 48.90206849 -19.94960779 48.90206849 -17 50 C-17 50.66 -17 51.32 -17 52 C-22.68582243 50.67771571 -24.7161093 48.59744698 -28 44 C-30.81705568 35.54883295 -28.30343761 26.1091825 -24.74609375 18.21875 C-20.89681106 11.25438023 -16.50305804 6.45491924 -8.8203125 3.97265625 C-5.8903114 3.2246442 -2.97030595 2.56435813 0 2 C0 1.34 0 0.68 0 0 Z " fill="#36266E" transform="translate(138,30)"/>
<path d="M0 0 C2.39611653 1.19805826 4.76681137 2.41407814 7.125 3.6875 C8.548125 4.3371875 8.548125 4.3371875 10 5 C10.66 4.67 11.32 4.34 12 4 C12 4.66 12 5.32 12 6 C15.65079826 7.61064629 19.0507432 8.44894091 23 9 C23 9.66 23 10.32 23 11 C21.68 11 20.36 11 19 11 C19 11.99 19 12.98 19 14 C19.9590625 14.37125 19.9590625 14.37125 20.9375 14.75 C23 16 23 16 23.6875 17.8125 C24.21088076 21.47616529 23.0007913 24.4677954 22 28 C21.67 28 21.34 28 21 28 C21 26.35 21 24.7 21 23 C20.34 23 19.68 23 19 23 C18.9175 23.845625 18.835 24.69125 18.75 25.5625 C17.84266147 29.72113491 16.23458727 32.39582699 14 36 C13.01 36 12.02 36 11 36 C11.42152344 35.40574219 11.84304687 34.81148437 12.27734375 34.19921875 C16.52401941 27.77424828 17.97078597 22.68328896 18 15 C17.34 14.67 16.68 14.34 16 14 C16.66 12.68 17.32 11.36 18 10 C17.21625 9.95875 16.4325 9.9175 15.625 9.875 C11.18266415 8.80271204 8.18104438 6.68278461 4.46484375 4.08203125 C2.01949601 2.7026234 2.01949601 2.7026234 -0.62109375 3.69921875 C-3.15125984 5.03763897 -3.15125984 5.03763897 -6 7 C-5.01 7.66 -4.02 8.32 -3 9 C-4.41633336 9.16947579 -5.83308533 9.33545507 -7.25 9.5 C-8.03890625 9.5928125 -8.8278125 9.685625 -9.640625 9.78125 C-12 10 -12 10 -16 10 C-16.33 11.32 -16.66 12.64 -17 14 C-17 13.01 -17 12.02 -17 11 C-18.32 11 -19.64 11 -21 11 C-21 10.34 -21 9.68 -21 9 C-20.39414063 8.92523438 -19.78828125 8.85046875 -19.1640625 8.7734375 C-12.12640732 7.669067 -5.16388401 5.16388401 0 0 Z " fill="#4A497D" transform="translate(139,46)"/>
<path d="M0 0 C6.6 0 13.2 0 20 0 C22 4 22 4 21.9375 5.9375 C20.5576761 8.97311257 18.48272885 10.82004296 16 13 C15.34 13 14.68 13 14 13 C13.814375 12.38125 13.62875 11.7625 13.4375 11.125 C12.08994304 8.64119991 12.08994304 8.64119991 8.6875 8.0625 C4.47140171 6.84769202 2.76215017 5.34806082 0 2 C0 1.34 0 0.68 0 0 Z " fill="#F7C691" transform="translate(202,67)"/>
<path d="M0 0 C3.02519989 2.05971056 4.66926776 3.51573824 5.48046875 7.15625 C5.74913364 11.51297801 5.38809203 13.47176362 2.75 17.0625 C0 19 0 19 -4 19 C-4 22.63 -4 26.26 -4 30 C-4.33 30 -4.66 30 -5 30 C-5 26.37 -5 22.74 -5 19 C-7.83151973 18.58190799 -7.83151973 18.58190799 -11 19 C-13.40406384 21.37842577 -13.40406384 21.37842577 -15 24 C-15.99 23.67 -16.98 23.34 -18 23 C-17.154375 22.319375 -16.30875 21.63875 -15.4375 20.9375 C-14.2309375 19.4834375 -14.2309375 19.4834375 -13 18 C-13.33 15.69 -13.66 13.38 -14 11 C-20.93 11 -27.86 11 -35 11 C-35.66 12.32 -36.32 13.64 -37 15 C-37.33 14.34 -37.66 13.68 -38 13 C-36.609375 11.015625 -36.609375 11.015625 -34 9 C-30.74024388 8.4903804 -27.53931183 8.62367488 -24.25 8.75 C-23.36183594 8.76804687 -22.47367188 8.78609375 -21.55859375 8.8046875 C-19.37129152 8.85172626 -17.18620184 8.91742991 -15 9 C-14.69964844 8.04738281 -14.39929688 7.09476563 -14.08984375 6.11328125 C-13.04666389 3.13330151 -12.45932317 1.86908561 -10 0 C-6.1544104 -1.2818632 -3.93271581 -0.94927623 0 0 Z M-10.875 3.125 C-13.19256661 5.82345264 -13.19256661 5.82345264 -13.5625 9 C-12.8491179 12.80470451 -11.88381579 14.41196019 -9 17 C-4.88546541 18.27176524 -2.97148295 18.50686067 0.875 16.5 C3.64839572 13.23718151 4.07481382 11.26438773 4 7 C2.23358828 4.19810554 0.96950178 2.48475089 -2 1 C-6.05263598 0.45964854 -7.53730231 0.65800605 -10.875 3.125 Z " fill="#3C206D" transform="translate(236,56)"/>
<path d="M0 0 C0.33 1.32 0.66 2.64 1 4 C1.99 4 2.98 4 4 4 C4.4125 3.484375 4.825 2.96875 5.25 2.4375 C7 1 7 1 10.6875 1.3125 C11.780625 1.539375 12.87375 1.76625 14 2 C15.33094459 4.66188919 16.13989294 6.28055061 15.5625 9.25 C14 11 14 11 10.5625 11.9375 C7 12 7 12 5.25 10.75 C4.8375 10.1725 4.425 9.595 4 9 C3.01 8.01 2.02 7.02 1 6 C1 9.3 1 12.6 1 16 C0.34 15.67 -0.32 15.34 -1 15 C-1 14.34 -1 13.68 -1 13 C-2.32 12.34 -3.64 11.68 -5 11 C-5.125 8.625 -5.125 8.625 -5 6 C-4.34 5.34 -3.68 4.68 -3 4 C-2.01 4 -1.02 4 0 4 C0 2.68 0 1.36 0 0 Z " fill="#725284" transform="translate(123,56)"/>
<path d="M0 0 C0.845625 0.495 1.69125 0.99 2.5625 1.5 C3.48675781 2.01433594 3.48675781 2.01433594 4.4296875 2.5390625 C6.15436346 3.50183342 7.86000318 4.49853128 9.5625 5.5 C8.5725 5.83 7.5825 6.16 6.5625 6.5 C5.32972933 7.67105454 5.32972933 7.67105454 3.8125 10.0625 C1.5625 12.5 1.5625 12.5 -1.1875 12.8125 C-2.30125 12.6578125 -2.30125 12.6578125 -3.4375 12.5 C-3.7675 11.51 -4.0975 10.52 -4.4375 9.5 C-7.4075 9.5 -10.3775 9.5 -13.4375 9.5 C-13.7675 10.49 -14.0975 11.48 -14.4375 12.5 C-15.4275 12.17 -16.4175 11.84 -17.4375 11.5 C-17.4375 10.18 -17.4375 8.86 -17.4375 7.5 C-12.9825 7.005 -12.9825 7.005 -8.4375 6.5 C-8.4375 5.51 -8.4375 4.52 -8.4375 3.5 C-3.52871433 -0.72383884 -3.52871433 -0.72383884 0 0 Z " fill="#F7C9BE" transform="translate(141.4375,48.5)"/>
<path d="M0 0 C2 3 2 3 1.8203125 5.2265625 C0.5854548 9.40155758 -1.1958024 13.34315458 -3.00390625 17.296875 C-4.98535312 21.94237245 -5.36569527 25.12998878 -4 30 C1.06977858 36.74364847 9.57497887 41.29328119 17 45 C17.66 45 18.32 45 19 45 C18.67 52.26 18.34 59.52 18 67 C17.67 67 17.34 67 17 67 C16.05129212 60.14011227 16.05129212 53.85988773 17 47 C15.92878906 46.60554688 15.92878906 46.60554688 14.8359375 46.203125 C7.62893754 43.14560987 -3.3712745 37.257451 -7 30 C-7.7153893 22.7268754 -5.96090543 17.73905137 -3.17578125 11.0390625 C-1.84489429 7.59909554 -1.33143631 4.64579941 -1 1 C-0.67 0.67 -0.34 0.34 0 0 Z " fill="#42216D" transform="translate(99,115)"/>
<path d="M0 0 C4.56454251 0.54339792 7.9728176 1.79463821 12 4 C8.56024817 7.43975183 3.61244131 7.95306199 -1 9.1875 C-2.02351562 9.47302734 -3.04703125 9.75855469 -4.1015625 10.05273438 C-5.56722656 10.45008789 -5.56722656 10.45008789 -7.0625 10.85546875 C-7.96097656 11.09934326 -8.85945312 11.34321777 -9.78515625 11.59448242 C-12 12 -12 12 -14 11 C-11.88748745 7.76381056 -9.75137946 4.72482174 -7 2 C-3.0625 1.4375 -3.0625 1.4375 0 2 C0 1.34 0 0.68 0 0 Z " fill="#FEFEFE" transform="translate(231,93)"/>
<path d="M0 0 C4.34072171 0.37206186 8.07415115 2.22951915 12 4 C8.06716399 6.23836943 3.81638161 7.36452863 -0.5 8.625 C-1.25925781 8.85445312 -2.01851562 9.08390625 -2.80078125 9.3203125 C-3.90486328 9.64515625 -3.90486328 9.64515625 -5.03125 9.9765625 C-5.69705078 10.17330566 -6.36285156 10.37004883 -7.04882812 10.57275391 C-9 11 -9 11 -13 11 C-11.46417132 7.54438548 -9.64236851 4.71786475 -7 2 C-4.375 1.8125 -4.375 1.8125 -2 2 C-1.34 1.34 -0.68 0.68 0 0 Z " fill="#F8C891" transform="translate(205,91)"/>
<path d="M0 0 C9.46002136 1.07094581 16.96166191 7.93849907 23 15 C24.9375 17.9375 24.9375 17.9375 26 20 C25 21 25 21 22.640625 21.3125 C20 21 20 21 18.296875 19.3125 C17.78640625 18.549375 17.2759375 17.78625 16.75 17 C13.61805324 12.64817026 10.1950229 9.28246168 6.11328125 5.82421875 C3.96970495 3.97384882 1.97922859 2.02390644 0 0 Z " fill="#F67574" transform="translate(152,93)"/>
<path d="M0 0 C0.66 0.33 1.32 0.66 2 1 C1.67 13.21 1.34 25.42 1 38 C-0.98 38 -2.96 38 -5 38 C-4.88406494 37.16863525 -4.76812988 36.33727051 -4.64868164 35.48071289 C-4.21345096 32.35536075 -3.77933777 29.22985586 -3.34594727 26.10424805 C-3.15921091 24.75913507 -2.97204699 23.41408137 -2.78442383 22.0690918 C-1.75968669 14.72104336 -0.76953738 7.37945844 0 0 Z " fill="#F37474" transform="translate(161,115)"/>
<path d="M0 0 C3.3125 -0.3125 3.3125 -0.3125 7 0 C11.21380187 4.36429479 12.91013723 12.88475721 13.08203125 18.84375 C13.04142578 19.91109375 13.04142578 19.91109375 13 21 C14.32 21.33 15.64 21.66 17 22 C14.50935112 22.68707555 12.62113708 23 10 23 C8.35868324 23.3991388 6.72792357 23.84252887 5.10546875 24.3125 C4.14962891 24.58320312 3.19378906 24.85390625 2.20898438 25.1328125 C0.20548595 25.70783079 -1.79713282 26.28592346 -3.79882812 26.8671875 C-13.44190123 29.58719469 -13.44190123 29.58719469 -18 29 C-20.5654594 26.4345406 -20.54046087 24.52313332 -21 21 C-20.34 21 -19.68 21 -19 21 C-18.34 22.65 -17.68 24.3 -17 26 C-16.34 25.67 -15.68 25.34 -15 25 C-14.67 25.66 -14.34 26.32 -14 27 C-10.3526874 26.02628708 -6.70742151 25.04512227 -3.0625 24.0625 C-2.02158203 23.78470703 -0.98066406 23.50691406 0.09179688 23.22070312 C1.08115234 22.95322266 2.07050781 22.68574219 3.08984375 22.41015625 C4.00628662 22.16402588 4.92272949 21.91789551 5.86694336 21.66430664 C7.96174924 21.1932065 7.96174924 21.1932065 9 20 C7.35 19.34 5.7 18.68 4 18 C7 17 7 17 10 18 C8.98408579 12.53135543 7.92908943 7.23609987 6 2 C3.69 2 1.38 2 -1 2 C-0.67 1.34 -0.34 0.68 0 0 Z " fill="#E0DBE6" transform="translate(233,77)"/>
<path d="M0 0 C6.90802197 4.855898 11.03642159 12.87376288 12.5859375 21.1171875 C12.80351898 27.15925783 11.75717706 31.25409214 8 36 C4.75 37.9375 4.75 37.9375 2 39 C2 38.34 2 37.68 2 37 C2.61875 36.4225 3.2375 35.845 3.875 35.25 C7.17141283 31.75968053 7.91275723 28.48134659 8.19140625 23.75 C7.98381503 19.68290662 7.09657648 16.62407267 5.6875 12.8125 C5.25824219 11.62269531 4.82898438 10.43289062 4.38671875 9.20703125 C3.1664366 6.38491395 1.87585202 4.39294906 0 2 C0 1.34 0 0.68 0 0 Z " fill="#02BF97" transform="translate(159,41)"/>
<path d="M0 0 C7.21868766 -0.12738861 14.41488137 0.03533548 21.625 0.375 C22.41890137 0.40585693 23.21280273 0.43671387 24.03076172 0.46850586 C29.76677874 0.76677874 29.76677874 0.76677874 32 3 C19.37309417 13.65022422 19.37309417 13.65022422 13.5546875 14.5078125 C10.91034182 14.22473633 8.52849523 13.81479576 6 13 C5.7525 11.9275 5.505 10.855 5.25 9.75 C3.98470426 5.95411278 2.8930687 4.60376183 0 2 C0 1.34 0 0.68 0 0 Z M2 1 C2.81855469 1.93070313 3.63710937 2.86140625 4.48046875 3.8203125 C6.49198005 6.10741669 6.97052445 6.72882496 7.3125 9.875 C7.209375 10.57625 7.10625 11.2775 7 12 C8.32 11.34 9.64 10.68 11 10 C11.99 10.99 12.98 11.98 14 13 C19.08938811 11.40956621 22.87456643 8.2553049 27 5 C26.34 4.01 25.68 3.02 25 2 C22.5842887 1.49095616 22.5842887 1.49095616 19.7734375 1.48828125 C18.7421875 1.45283203 17.7109375 1.41738281 16.6484375 1.38085938 C15.56820312 1.35830078 14.48796875 1.33574219 13.375 1.3125 C11.74304688 1.26125977 11.74304688 1.26125977 10.078125 1.20898438 C7.38551937 1.12631666 4.69324709 1.05722913 2 1 Z " fill="#DED9E4" transform="translate(211,32)"/>
<path d="M0 0 C2 1 2 1 2.88671875 3.58203125 C3.15097656 4.64808594 3.41523438 5.71414062 3.6875 6.8125 C3.95949219 7.87082031 4.23148438 8.92914063 4.51171875 10.01953125 C5 13 5 13 4 17 C-0.95 15.02 -0.95 15.02 -6 13 C-4.58707905 8.1725201 -2.57025846 4.2837641 0 0 Z " fill="#FDFDFE" transform="translate(239,79)"/>
<path d="M0 0 C4.61513112 1.31860889 8.09897612 3.21355437 12 6 C9.60883312 9.75754796 7.19739209 12.91008328 4 16 C3.32815382 13.89748139 2.66269032 11.79292237 2 9.6875 C1.443125 7.92986328 1.443125 7.92986328 0.875 6.13671875 C0 3 0 3 0 0 Z " fill="#F7C690" transform="translate(185,86)"/>
<path d="M0 0 C-1.485 1.485 -1.485 1.485 -3 3 C-1.35 3 0.3 3 2 3 C1.01 3.495 1.01 3.495 0 4 C0 4.66 0 5.32 0 6 C1.32 5.34 2.64 4.68 4 4 C3.67 4.99 3.34 5.98 3 7 C0.85546875 7.94921875 0.85546875 7.94921875 -1.8125 8.6875 C-2.68519531 8.93886719 -3.55789062 9.19023438 -4.45703125 9.44921875 C-7 10 -7 10 -11 10 C-11.33 8.35 -11.66 6.7 -12 5 C-6.25 4.875 -6.25 4.875 -4 6 C-4 5.34 -4 4.68 -4 4 C-6.31 4 -8.62 4 -11 4 C-8.17267749 -0.24098377 -4.91545957 -1.63848652 0 0 Z " fill="#F0C2BB" transform="translate(222,116)"/>
<path d="M0 0 C2.41930709 2.41930709 2.79442204 4.15707218 3.6875 7.4375 C3.95949219 8.40558594 4.23148438 9.37367187 4.51171875 10.37109375 C5 13 5 13 4 16 C-0.95 14.02 -0.95 14.02 -6 12 C-4.68139111 7.38486888 -2.78644563 3.90102388 0 0 Z " fill="#F7C791" transform="translate(213,78)"/>
<path d="M0 0 C0 0.66 0 1.32 0 2 C-1.6396875 2.4021875 -1.6396875 2.4021875 -3.3125 2.8125 C-7.4291979 3.98907554 -7.4291979 3.98907554 -10 7 C-10.73041853 10.61023099 -10.73041853 10.61023099 -11 14 C-11.33 13.34 -11.66 12.68 -12 12 C-18.93 12 -25.86 12 -33 12 C-33.66 13.32 -34.32 14.64 -35 16 C-35.33 15.34 -35.66 14.68 -36 14 C-34.609375 12.015625 -34.609375 12.015625 -32 10 C-28.74024388 9.4903804 -25.53931183 9.62367488 -22.25 9.75 C-21.36183594 9.76804687 -20.47367188 9.78609375 -19.55859375 9.8046875 C-17.37129152 9.85172626 -15.18620184 9.91742991 -13 10 C-12.69964844 9.04738281 -12.39929688 8.09476563 -12.08984375 7.11328125 C-11.04666389 4.13330151 -10.45932317 2.86908561 -8 1 C-5.07175348 0.02391783 -3.04386724 -0.08226668 0 0 Z " fill="#3B1D6C" transform="translate(234,55)"/>
<path d="M0 0 C4.62 0 9.24 0 14 0 C14 1.98 14 3.96 14 6 C11.32356043 6.89214652 9.74615622 7.13540211 7 7.125 C5.9790625 7.12886719 5.9790625 7.12886719 4.9375 7.1328125 C3 7 3 7 0 6 C0 4.02 0 2.04 0 0 Z " fill="#F4C4BA" transform="translate(133,85)"/>
<path d="M0 0 C7.59 0.33 15.18 0.66 23 1 C22.01 1.33 21.02 1.66 20 2 C20 2.66 20 3.32 20 4 C17.36 4 14.72 4 12 4 C12 4.33 12 4.66 12 5 C10.35 5 8.7 5 7 5 C7.33 6.65 7.66 8.3 8 10 C7.01 10.33 6.02 10.66 5 11 C5.103125 10.29875 5.20625 9.5975 5.3125 8.875 C5.16790029 5.07618811 5.16790029 5.07618811 0 0 Z " fill="#F9F8FA" transform="translate(213,33)"/>
<path d="M0 0 C5.28137429 0.51525603 8.57221156 2.25477117 13 5 C12.67 6.98 12.34 8.96 12 11 C7.38 8.69 2.76 6.38 -2 4 C-1.34 2.68 -0.68 1.36 0 0 Z " fill="#FAAAA8" transform="translate(102,114)"/>
<path d="M0 0 C0.0825 0.61875 0.165 1.2375 0.25 1.875 C0.78810733 4.18346804 0.78810733 4.18346804 3 5 C5 6 5 6 5.68359375 7.796875 C6.211122 11.47003466 5.00363927 14.45774375 4 18 C3.67 18 3.34 18 3 18 C3 16.35 3 14.7 3 13 C2.34 13 1.68 13 1 13 C0.9175 13.845625 0.835 14.69125 0.75 15.5625 C-0.15733853 19.72113491 -1.76541273 22.39582699 -4 26 C-4.99 26 -5.98 26 -7 26 C-6.57847656 25.40574219 -6.15695313 24.81148437 -5.72265625 24.19921875 C-1.47598059 17.77424828 -0.02921403 12.68328896 0 5 C-0.66 4.67 -1.32 4.34 -2 4 C-1.34 2.68 -0.68 1.36 0 0 Z " fill="#403875" transform="translate(157,56)"/>
<path d="M0 0 C3.96 0 7.92 0 12 0 C13 3 13 3 12 5.1875 C10 7 10 7 6.5 7.4375 C3 7 3 7 1.0625 5.75 C0 4 0 4 0 0 Z " fill="#895682" transform="translate(134,70)"/>
<path d="M0 0 C0.391875 0.556875 0.78375 1.11375 1.1875 1.6875 C5.05274025 6.61901343 9.65878481 10.44016183 14.625 14.1875 C15.19734375 14.62513672 15.7696875 15.06277344 16.359375 15.51367188 C18.8635974 17.42095754 21.37998801 19.25332534 24 21 C23.67 21.66 23.34 22.32 23 23 C2.53527391 11.10705253 2.53527391 11.10705253 0.23046875 4.94140625 C-0.0625 3 -0.0625 3 0 0 Z " fill="#E8B1AA" transform="translate(93,138)"/>
<path d="M0 0 C0.33 0 0.66 0 1 0 C1 3.3 1 6.6 1 10 C14.86 10 28.72 10 43 10 C43 10.33 43 10.66 43 11 C29.14 11 15.28 11 1 11 C1 12.65 1 14.3 1 16 C0.34 16.33 -0.32 16.66 -1 17 C-1.33 13.37 -1.66 9.74 -2 6 C-1.34 6 -0.68 6 0 6 C0 4.02 0 2.04 0 0 Z " fill="#613171" transform="translate(118,143)"/>
<path d="M0 0 C0.33 1.65 0.66 3.3 1 5 C3.12364481 5.22609337 3.12364481 5.22609337 4.625 3.5 C5.07875 3.005 5.5325 2.51 6 2 C5.375 4.375 5.375 4.375 4 7 C0.875 8.3125 0.875 8.3125 -2 9 C-2 8.34 -2 7.68 -2 7 C-2.99 6.67 -3.98 6.34 -5 6 C-5 5.01 -5 4.02 -5 3 C-8.465 4.485 -8.465 4.485 -12 6 C-9.03 6.495 -9.03 6.495 -6 7 C-6 7.66 -6 8.32 -6 9 C-8.64 8.67 -11.28 8.34 -14 8 C-14.33 7.01 -14.66 6.02 -15 5 C-13.44424022 4.15415002 -11.8800388 3.32381601 -10.3125 2.5 C-9.44238281 2.0359375 -8.57226562 1.571875 -7.67578125 1.09375 C-4.88211171 -0.04818792 -2.98370887 -0.21504208 0 0 Z " fill="#6A477F" transform="translate(224,113)"/>
<path d="M0 0 C1.23556641 0.01740234 1.23556641 0.01740234 2.49609375 0.03515625 C3.32238281 0.04417969 4.14867188 0.05320313 5 0.0625 C5.63808594 0.07410156 6.27617188 0.08570313 6.93359375 0.09765625 C6.80859375 2.34765625 6.80859375 2.34765625 5.93359375 5.09765625 C0.85251267 9.09765625 0.85251267 9.09765625 -2.06640625 9.09765625 C-3.43264299 6.36518277 -3.19483225 4.11566723 -3.06640625 1.09765625 C-2.06640625 0.09765625 -2.06640625 0.09765625 0 0 Z " fill="#7268AE" transform="translate(121.06640625,157.90234375)"/>
<path d="M0 0 C2.625 0.375 2.625 0.375 5 1 C5 4.3 5 7.6 5 11 C1.54074837 9.7508258 -1.14693203 8.32472205 -4 6 C-2.84826645 3.53199953 -1.95216435 1.95216435 0 0 Z " fill="#FBC98F" transform="translate(225,74)"/>
<path d="M0 0 C0.639375 0.144375 1.27875 0.28875 1.9375 0.4375 C5.93844788 1.17236798 9.95504896 1.58581111 14 2 C14 2.66 14 3.32 14 4 C14.66 4 15.32 4 16 4 C16 4.66 16 5.32 16 6 C6.13307899 6.46656194 6.13307899 6.46656194 1.8125 4.6875 C1.214375 4.130625 0.61625 3.57375 0 3 C0 2.01 0 1.02 0 0 Z " fill="#B28682" transform="translate(129,91)"/>
<path d="M0 0 C4.55555556 0.55555556 4.55555556 0.55555556 6 2 C6.1875 4.4375 6.1875 4.4375 6 7 C5.34 7.66 4.68 8.32 4 9 C-0.55555556 8.44444444 -0.55555556 8.44444444 -2 7 C-2.1875 4.5625 -2.1875 4.5625 -2 2 C-1.34 1.34 -0.68 0.68 0 0 Z " fill="#DAA8A6" transform="translate(146,58)"/>
<path d="M0 0 C2 0.6875 2 0.6875 4 2.6875 C3.625 5.3125 3.625 5.3125 3 7.6875 C0.6875 8.375 0.6875 8.375 -2 8.6875 C-3.875 7.5625 -3.875 7.5625 -5 5.6875 C-4.8125 3.0625 -4.8125 3.0625 -4 0.6875 C-2 -0.3125 -2 -0.3125 0 0 Z " fill="#F1BFB6" transform="translate(133,58.3125)"/>
<path d="M0 0 C-2.15581574 5.05129812 -6.05195819 7.54857616 -10.3125 10.8125 C-11.07240234 11.42287109 -11.83230469 12.03324219 -12.61523438 12.66210938 C-13.35708984 13.23380859 -14.09894531 13.80550781 -14.86328125 14.39453125 C-15.53657471 14.91893799 -16.20986816 15.44334473 -16.90356445 15.98364258 C-19.67427426 17.32688992 -21.12814871 16.97860815 -24 16 C-25.3125 13.9375 -25.3125 13.9375 -26 12 C-24.515 12.99 -24.515 12.99 -23 14 C-18.67320284 13.74422874 -16.32000913 11.98774859 -13.0625 9.25 C-12.19753906 8.53328125 -11.33257812 7.8165625 -10.44140625 7.078125 C-8.98846409 5.84138064 -7.53727356 4.60256625 -6.08984375 3.359375 C-2.16091954 0 -2.16091954 0 0 0 Z " fill="#44226C" transform="translate(208,131)"/>
<path d="M0 0 C1.11375 0.185625 1.11375 0.185625 2.25 0.375 C1.71543012 4.91884397 0.10857428 7.82109684 -2.75 11.375 C-6 13.25 -6 13.25 -8.75 14.375 C-7.51909984 10.68229952 -5.77573829 9.70249099 -2.75 7.375 C-2.75 7.045 -2.75 6.715 -2.75 6.375 C-4.07 6.375 -5.39 6.375 -6.75 6.375 C-3.42692308 0.46730769 -3.42692308 0.46730769 0 0 Z " fill="#431D6E" transform="translate(230.75,111.625)"/>
<path d="M0 0 C0.33 0.66 0.66 1.32 1 2 C-0.4375 4.625 -0.4375 4.625 -2 7 C-6.05606165 6.53199289 -9.46588679 6.12046792 -13 4 C-13 3.34 -13 2.68 -13 2 C-8.71 1.34 -4.42 0.68 0 0 Z " fill="#FCFCFD" transform="translate(232,87)"/>
<path d="M0 0 C0.66 0 1.32 0 2 0 C2.77391075 7.66744912 2.00076654 12.22120904 -2.6875 18.41796875 C-3.120625 18.94003906 -3.55375 19.46210937 -4 20 C-4.33 19.01 -4.66 18.02 -5 17 C-4.525625 16.319375 -4.05125 15.63875 -3.5625 14.9375 C-1.56006913 11.17292996 -1.84519515 8.39114957 -2.08984375 4.20703125 C-2 2 -2 2 0 0 Z " fill="#EDB5AC" transform="translate(155,61)"/>
<path d="M0 0 C4.32158374 0.32011731 6.93510362 3.21373057 10 6 C10 6.33 10 6.66 10 7 C6.7 7 3.4 7 0 7 C-0.38133299 5.0085944 -0.71325582 3.00720923 -1 1 C-0.67 0.67 -0.34 0.34 0 0 Z " fill="#F6C691" transform="translate(218,80)"/>
<path d="M0 0 C1.32 0 2.64 0 4 0 C4 3.96 4 7.92 4 12 C2.68 12 1.36 12 0 12 C0 8.04 0 4.08 0 0 Z " fill="#5C58A9" transform="translate(138,158)"/>
<path d="M0 0 C0.66 0.33 1.32 0.66 2 1 C1.42176904 5.06225548 0.10882263 7.84762346 -2.0625 11.3125 C-2.61035156 12.19550781 -3.15820312 13.07851562 -3.72265625 13.98828125 C-4.14417969 14.65214844 -4.56570312 15.31601563 -5 16 C-5.99 15.67 -6.98 15.34 -8 15 C-5.36 10.05 -2.72 5.1 0 0 Z " fill="#F7BEB0" transform="translate(109,124)"/>
<path d="M0 0 C0.33 0 0.66 0 1 0 C1 4.29 1 8.58 1 13 C-3.29 13 -7.58 13 -12 13 C-12 12.67 -12 12.34 -12 12 C-7.545 11.505 -7.545 11.505 -3 11 C-4.98 9.35 -6.96 7.7 -9 6 C-5.00095031 6 -3.19799578 7.72586967 0 10 C0 6.7 0 3.4 0 0 Z " fill="#926A7C" transform="translate(230,75)"/>
<path d="M0 0 C0.515625 0.70125 1.03125 1.4025 1.5625 2.125 C4.41939716 5.49467357 7.58871997 8.21156604 11 11 C8 13 8 13 5.7734375 12.828125 C4.98195313 12.63734375 4.19046875 12.4465625 3.375 12.25 C2.57835938 12.06953125 1.78171875 11.8890625 0.9609375 11.703125 C-1 11 -1 11 -2 9 C0.31 9 2.62 9 5 9 C4.175 8.071875 3.35 7.14375 2.5 6.1875 C0 3.375 0 3.375 0 0 Z " fill="#3F2E71" transform="translate(123,72)"/>
<path d="M0 0 C3.88274131 1.2942471 4.52690748 2.89269423 6.6875 6.3125 C7.31011719 7.27800781 7.93273437 8.24351563 8.57421875 9.23828125 C10 12 10 12 10 16 C9.34 16 8.68 16 8 16 C7.75765625 15.49210938 7.5153125 14.98421875 7.265625 14.4609375 C5.59935199 11.03866909 3.92095899 7.75738369 1.75 4.625 C0 2 0 2 0 0 Z " fill="#EFB7AD" transform="translate(178,119)"/>
<path d="M0 0 C-1.14932117 3.4479635 -1.98529269 3.96767838 -4.875 6 C-6.96223918 7.478782 -8.85240524 8.84746187 -10.6328125 10.6875 C-12 12 -12 12 -14 12 C-12.48238697 8.17147621 -10.20656585 6.26678134 -7 3.75 C-6.113125 3.04359375 -5.22625 2.3371875 -4.3125 1.609375 C-2 0 -2 0 0 0 Z " fill="#3B1A6A" transform="translate(116,89)"/>
<path d="M0 0 C1.98671575 1.68106717 2.28613278 2.83349583 2.625 5.375 C1.635 5.705 0.645 6.035 -0.375 6.375 C-1.035 4.725 -1.695 3.075 -2.375 1.375 C-5.84 2.86 -5.84 2.86 -9.375 4.375 C-9.375 3.385 -9.375 2.395 -9.375 1.375 C-3.06935216 -0.80772425 -3.06935216 -0.80772425 0 0 Z " fill="#5A59A3" transform="translate(208.375,123.625)"/>
<path d="M0 0 C0.99 0.33 1.98 0.66 3 1 C1.5361389 5.39158329 -0.97831338 5.87947433 -5 8 C-5.33 6.68 -5.66 5.36 -6 4 C-3.1875 1.9375 -3.1875 1.9375 0 0 Z " fill="#FDAFAD" transform="translate(171,115)"/>
<path d="M0 0 C3.89129376 1.14055162 6.50701659 2.47685522 9.625 5.0625 C9.625 6.0525 9.625 7.0425 9.625 8.0625 C9.10550781 7.68996094 8.58601562 7.31742187 8.05078125 6.93359375 C3.83326047 3.89945179 3.83326047 3.89945179 -1.125 3.1875 C-2.23875 3.620625 -2.23875 3.620625 -3.375 4.0625 C-4.138125 4.248125 -4.90125 4.43375 -5.6875 4.625 C-6.244375 4.769375 -6.80125 4.91375 -7.375 5.0625 C-4.33708314 0.08031635 -4.33708314 0.08031635 0 0 Z " fill="#532A6B" transform="translate(154.375,90.9375)"/>
<path d="M0 0 C5.28 0 10.56 0 16 0 C16 0.66 16 1.32 16 2 C10.39 2 4.78 2 -1 2 C-0.67 1.34 -0.34 0.68 0 0 Z " fill="#3A1A6A" transform="translate(39,193)"/>
<path d="M0 0 C1.875 0.3125 1.875 0.3125 4 1 C4.7425 1.185625 5.485 1.37125 6.25 1.5625 C6.8275 1.706875 7.405 1.85125 8 2 C5.69 2.66 3.38 3.32 1 4 C1 5.32 1 6.64 1 8 C2.32 8.33 3.64 8.66 5 9 C5 9.66 5 10.32 5 11 C2.03 10.505 2.03 10.505 -1 10 C-1.9765625 3.9453125 -1.9765625 3.9453125 -2 2 C-1.34 1.34 -0.68 0.68 0 0 Z " fill="#3D1F6B" transform="translate(149,81)"/>
<path d="M0 0 C0.66 0.66 1.32 1.32 2 2 C1.79014782 4.64736593 1.21245709 5.77786261 -0.62890625 7.703125 C-1.26699219 8.21359375 -1.90507812 8.7240625 -2.5625 9.25 C-3.20316406 9.77078125 -3.84382812 10.2915625 -4.50390625 10.828125 C-4.99761719 11.21484375 -5.49132812 11.6015625 -6 12 C-4.68139111 7.38486888 -2.78644563 3.90102388 0 0 Z " fill="#F8C081" transform="translate(213,78)"/>
<path d="M0 0 C2.475 0.495 2.475 0.495 5 1 C4.34 4.63 3.68 8.26 3 12 C2.67 12 2.34 12 2 12 C2 10.02 2 8.04 2 6 C1.34 6 0.68 6 0 6 C0 4.02 0 2.04 0 0 Z " fill="#837694" transform="translate(158,62)"/>
<path d="M0 0 C2.31 1.98 4.62 3.96 7 6 C4 8 4 8 0 8 C0 5.36 0 2.72 0 0 Z " fill="#F4BF84" transform="translate(200,69)"/>
<path d="M0 0 C0.33 0 0.66 0 1 0 C1 5.28 1 10.56 1 16 C0.34 16.33 -0.32 16.66 -1 17 C-1.33 13.37 -1.66 9.74 -2 6 C-1.34 6 -0.68 6 0 6 C0 4.02 0 2.04 0 0 Z " fill="#6E3E7F" transform="translate(118,143)"/>
<path d="M0 0 C2 2 2 2 2.125 5.625 C2.08375 6.73875 2.0425 7.8525 2 9 C-1 7.1875 -1 7.1875 -4 5 C-4 4.01 -4 3.02 -4 2 C-2.68 2 -1.36 2 0 2 C0 1.34 0 0.68 0 0 Z " fill="#6E65AE" transform="translate(155,155)"/>
<path d="M0 0 C2.04119788 1.61594832 4.04072937 3.2856382 6 5 C6 5.66 6 6.32 6 7 C4.8553125 7.12375 4.8553125 7.12375 3.6875 7.25 C0.47626739 8.14615794 -0.29374499 9.21611025 -2 12 C-2.99 11.67 -3.98 11.34 -5 11 C-3.7625 9.948125 -3.7625 9.948125 -2.5 8.875 C0.30423396 6.21372773 0.30423396 6.21372773 0.3125 2.6875 C0.209375 1.800625 0.10625 0.91375 0 0 Z " fill="#5E4075" transform="translate(223,68)"/>
<path d="M0 0 C1.8871875 0.0309375 1.8871875 0.0309375 3.8125 0.0625 C3.4825 0.7225 3.1525 1.3825 2.8125 2.0625 C-0.25 2.6875 -0.25 2.6875 -3.1875 3.0625 C-3.5175 4.0525 -3.8475 5.0425 -4.1875 6.0625 C-5.1775 5.7325 -6.1675 5.4025 -7.1875 5.0625 C-7.1875 3.7425 -7.1875 2.4225 -7.1875 1.0625 C-4.43671116 0.14557039 -2.82801087 -0.04636083 0 0 Z " fill="#EABDB8" transform="translate(131.1875,54.9375)"/>
<path d="M0 0 C4.62 0 9.24 0 14 0 C14 0.66 14 1.32 14 2 C9.38 2 4.76 2 0 2 C0 1.34 0 0.68 0 0 Z " fill="#3A1A69" transform="translate(245,193)"/>
<path d="M0 0 C0.33 0.66 0.66 1.32 1 2 C-0.57934639 2.98558449 -2.16365173 3.96322541 -3.75 4.9375 C-5.07257813 5.75541016 -5.07257813 5.75541016 -6.421875 6.58984375 C-8.68399917 7.82715712 -10.48566325 8.53590513 -13 9 C-9.15080717 4.66965806 -5.27710354 2.3439244 0 0 Z " fill="#F18687" transform="translate(179,115)"/>
<path d="M0 0 C0.99 0.33 1.98 0.66 3 1 C2.67 2.65 2.34 4.3 2 6 C0.35 6.33 -1.3 6.66 -3 7 C-3 5.33333333 -3 3.66666667 -3 2 C-2.01 2 -1.02 2 0 2 C0 1.34 0 0.68 0 0 Z " fill="#DCA8A5" transform="translate(134,60)"/>
<path d="M0 0 C0.66 0 1.32 0 2 0 C2 0.66 2 1.32 2 2 C5.65079826 3.61064629 9.0507432 4.44894091 13 5 C13 5.66 13 6.32 13 7 C11.56138706 6.91253716 10.12402492 6.80434652 8.6875 6.6875 C7.88699219 6.62949219 7.08648437 6.57148437 6.26171875 6.51171875 C3.58013375 5.90500435 2.6646627 5.15637846 1 3 C0.67 2.01 0.34 1.02 0 0 Z " fill="#31547F" transform="translate(149,50)"/>
<path d="M0 0 C2.26273207 3.55818936 2.07331744 6.12547951 1.625 10.25 C1.51414063 11.32765625 1.40328125 12.4053125 1.2890625 13.515625 C1.19367188 14.33546875 1.09828125 15.1553125 1 16 C0.67 16 0.34 16 0 16 C-0.19389096 13.5211787 -0.38040123 11.04219069 -0.5625 8.5625 C-0.61857422 7.85544922 -0.67464844 7.14839844 -0.73242188 6.41992188 C-0.86190993 4.61572163 -0.93521608 2.80768048 -1 1 C-0.67 0.67 -0.34 0.34 0 0 Z " fill="#48247B" transform="translate(162,154)"/>
<path d="M0 0 C0.33 0.66 0.66 1.32 1 2 C-0.98 2.99 -2.96 3.98 -5 5 C-2.03 5.495 -2.03 5.495 1 6 C1 6.66 1 7.32 1 8 C-1.64 7.67 -4.28 7.34 -7 7 C-7.33 6.01 -7.66 5.02 -8 4 C-5.36 2.68 -2.72 1.36 0 0 Z " fill="#603C7A" transform="translate(217,114)"/>
<path d="M0 0 C1.32 0 2.64 0 4 0 C4.33 1.98 4.66 3.96 5 6 C3.35 6.33 1.7 6.66 0 7 C0.33 6.01 0.66 5.02 1 4 C0.61067144 1.85744207 0.61067144 1.85744207 0 0 Z " fill="#D3ECFF" transform="translate(229,62)"/>
<path d="M0 0 C0.99 0.33 1.98 0.66 3 1 C4.125 5.75 4.125 5.75 3 8 C2.34 8 1.68 8 1 8 C-0.35439668 5.29120665 -0.06501451 2.99066732 0 0 Z " fill="#119B99" transform="translate(119,68)"/>
<path d="M0 0 C0.99 0 1.98 0 3 0 C3 2.31 3 4.62 3 7 C1.68 6.67 0.36 6.34 -1 6 C-1.042721 4.33388095 -1.04063832 2.66617115 -1 1 C-0.67 0.67 -0.34 0.34 0 0 Z " fill="#FDCABC" transform="translate(145,59)"/>
<path d="M0 0 C-1 3 -1 3 -3.4375 4.25 C-6 5 -6 5 -8 4 C-8 3.34 -8 2.68 -8 2 C-5.09399739 0.74335022 -3.20395416 0 0 0 Z " fill="#EFBE8F" transform="translate(151,91)"/>
<path d="M0 0 C3.45925163 1.2491742 6.14693203 2.67527795 9 5 C8.67 5.66 8.34 6.32 8 7 C5.03 5.35 2.06 3.7 -1 2 C-0.67 1.34 -0.34 0.68 0 0 Z " fill="#F18D8F" transform="translate(105,118)"/>
<path d="M0 0 C2.475 0.495 2.475 0.495 5 1 C5.12375 1.639375 5.2475 2.27875 5.375 2.9375 C5.684375 3.9584375 5.684375 3.9584375 6 5 C6.66 5.33 7.32 5.66 8 6 C7.01 6.33 6.02 6.66 5 7 C4.34 6.01 3.68 5.02 3 4 C2.01 4.495 2.01 4.495 1 5 C1.33 3.68 1.66 2.36 2 1 C1.34 0.67 0.68 0.34 0 0 Z " fill="#5C386E" transform="translate(210,75)"/>
<path d="M0 0 C2.64 0 5.28 0 8 0 C8 0.33 8 0.66 8 1 C6.35 1 4.7 1 3 1 C3.33 2.65 3.66 4.3 4 6 C3.01 6.33 2.02 6.66 1 7 C1.020625 6.21625 1.04125 5.4325 1.0625 4.625 C1.18684063 2.01885039 1.18684063 2.01885039 0 0 Z " fill="#F1EFF4" transform="translate(217,37)"/>
<path d="M0 0 C0.6875 1.625 0.6875 1.625 1 4 C-0.4375 7.25 -0.4375 7.25 -2 10 C-3.32 9.01 -4.64 8.02 -6 7 C-5.01 6.67 -4.02 6.34 -3 6 C-1.29144978 2.99992729 -1.29144978 2.99992729 0 0 Z " fill="#583475" transform="translate(107,133)"/>
<path d="M0 0 C0.66 0 1.32 0 2 0 C2 2.31 2 4.62 2 7 C0.68 7.33 -0.64 7.66 -2 8 C-1.34 5.36 -0.68 2.72 0 0 Z " fill="#09B6A3" transform="translate(158,69)"/>
<path d="M0 0 C4.10801767 1.18676066 5.89448334 1.89448334 9 5 C4.545 4.01 4.545 4.01 0 3 C0 2.01 0 1.02 0 0 Z " fill="#F4B877" transform="translate(185,86)"/>
<path d="M0 0 C1.32 0 2.64 0 4 0 C3.6875 1.9375 3.6875 1.9375 3 4 C2.01 4.33 1.02 4.66 0 5 C-0.5625 3.0625 -0.5625 3.0625 -1 1 C-0.67 0.67 -0.34 0.34 0 0 Z " fill="#EDB9B2" transform="translate(153,56)"/>
<path d="M0 0 C2.64 0.33 5.28 0.66 8 1 C7.67 1.99 7.34 2.98 7 4 C4.97954558 3.39816251 2.97888961 2.72693904 1 2 C0.67 1.34 0.34 0.68 0 0 Z " fill="#A67E9A" transform="translate(145,54)"/>
<path d="M0 0 C1.32 0 2.64 0 4 0 C4 1.65 4 3.3 4 5 C2.0625 4.625 2.0625 4.625 0 4 C-0.33 3.34 -0.66 2.68 -1 2 C-0.67 1.34 -0.34 0.68 0 0 Z " fill="#9F587D" transform="translate(150,133)"/>
<path d="M0 0 C1.33897583 0.95043374 2.67105427 1.91059147 4 2.875 C5.11375 3.67550781 5.11375 3.67550781 6.25 4.4921875 C6.8275 4.98976563 7.405 5.48734375 8 6 C8 6.66 8 7.32 8 8 C4.63820226 6.55922954 2.40843732 4.75249979 0 2 C0 1.34 0 0.68 0 0 Z " fill="#38196C" transform="translate(165,97)"/>
<path d="M0 0 C0.66 1.32 1.32 2.64 2 4 C1.01 4.33 0.02 4.66 -1 5 C-1 4.34 -1 3.68 -1 3 C-1.66 3 -2.32 3 -3 3 C-3 2.34 -3 1.68 -3 1 C-2.01 0.67 -1.02 0.34 0 0 Z " fill="#DED8E4" transform="translate(75,138)"/>
<path d="M0 0 C2.475 0.99 2.475 0.99 5 2 C4.67 2.99 4.34 3.98 4 5 C2.68 4.67 1.36 4.34 0 4 C0 2.68 0 1.36 0 0 Z " fill="#391B69" transform="translate(237,49)"/>
<path d="M0 0 C0.66 0 1.32 0 2 0 C2 1.65 2 3.3 2 5 C1.01 5.495 1.01 5.495 0 6 C0 4.02 0 2.04 0 0 Z " fill="#DAD6E4" transform="translate(92,166)"/>
<path d="M0 0 C-0.33 0.99 -0.66 1.98 -1 3 C-3.0625 3.6875 -3.0625 3.6875 -5 4 C-5 3.34 -5 2.68 -5 2 C-2 0 -2 0 0 0 Z " fill="#DAD6E2" transform="translate(253,132)"/>
<path d="M0 0 C0.66 0 1.32 0 2 0 C2.33 1.65 2.66 3.3 3 5 C2.34 5 1.68 5 1 5 C0.67 3.35 0.34 1.7 0 0 Z " fill="#D4CFDB" transform="translate(69,103)"/>
<path d="M0 0 C0.66 0 1.32 0 2 0 C2.66 1.65 3.32 3.3 4 5 C3.01 4.67 2.02 4.34 1 4 C0.3125 1.9375 0.3125 1.9375 0 0 Z " fill="#D8D3DF" transform="translate(62,90)"/>
<path d="M0 0 C0.66 0.33 1.32 0.66 2 1 C1.34 2.65 0.68 4.3 0 6 C-1 3 -1 3 0 0 Z " fill="#DDD9E3" transform="translate(91,173)"/>
<path d="M0 0 C0.33 0.99 0.66 1.98 1 3 C-0.98 3.99 -0.98 3.99 -3 5 C-2.01 3.35 -1.02 1.7 0 0 Z " fill="#E2DDE9" transform="translate(187,163)"/>
<path d="M0 0 C0.66 0 1.32 0 2 0 C1.34 1.32 0.68 2.64 0 4 C-0.66 4 -1.32 4 -2 4 C-1.34 2.68 -0.68 1.36 0 0 Z " fill="#DBD5E3" transform="translate(191,158)"/>
<path d="M0 0 C0.66 0 1.32 0 2 0 C1.34 1.32 0.68 2.64 0 4 C-0.66 4 -1.32 4 -2 4 C-1.34 2.68 -0.68 1.36 0 0 Z " fill="#DCCBE5" transform="translate(197,153)"/>
<path d="M0 0 C0.66 0 1.32 0 2 0 C1.34 1.32 0.68 2.64 0 4 C-0.66 4 -1.32 4 -2 4 C-1.34 2.68 -0.68 1.36 0 0 Z " fill="#DBD6E1" transform="translate(68,151)"/>
<path d="M0 0 C0.99 0 1.98 0 3 0 C3 0.66 3 1.32 3 2 C1.35 2.33 -0.3 2.66 -2 3 C-1.34 2.01 -0.68 1.02 0 0 Z " fill="#D2CFE2" transform="translate(202,150)"/>
<path d="M0 0 C0.66 0.33 1.32 0.66 2 1 C1.34 2.32 0.68 3.64 0 5 C-0.66 5 -1.32 5 -2 5 C-1.34 3.35 -0.68 1.7 0 0 Z " fill="#DEDAE4" transform="translate(73,145)"/>
<path d="M0 0 C0 0.66 0 1.32 0 2 C-1.65 2.33 -3.3 2.66 -5 3 C-5 2.34 -5 1.68 -5 1 C-2 0 -2 0 0 0 Z " fill="#D7D4E0" transform="translate(240,138)"/>
<path d="M0 0 C2.97 0.495 2.97 0.495 6 1 C5.34 1.66 4.68 2.32 4 3 C2.68 2.34 1.36 1.68 0 1 C0 0.67 0 0.34 0 0 Z " fill="#DDDAE5" transform="translate(65,137)"/>
<path d="M0 0 C0.66 0 1.32 0 2 0 C2 1.65 2 3.3 2 5 C1.34 5 0.68 5 0 5 C0 3.35 0 1.7 0 0 Z " fill="#DBD4E2" transform="translate(75,131)"/>
<path d="M0 0 C1.5 1.375 1.5 1.375 3 3 C3 3.66 3 4.32 3 5 C2.01 4.67 1.02 4.34 0 4 C0 2.68 0 1.36 0 0 Z " fill="#DACBE5" transform="translate(263,109)"/>
<path d="M0 0 C1.98 0.99 1.98 0.99 4 2 C4 2.66 4 3.32 4 4 C2.68 3.34 1.36 2.68 0 2 C0 1.34 0 0.68 0 0 Z " fill="#DEDAE5" transform="translate(58,85)"/>
<path d="M0 0 C1.98 0.99 1.98 0.99 4 2 C4 2.66 4 3.32 4 4 C2.68 3.34 1.36 2.68 0 2 C0 1.34 0 0.68 0 0 Z " fill="#E1C3E7" transform="translate(42,70)"/>
<path d="M0 0 C0.66 0 1.32 0 2 0 C2 1.65 2 3.3 2 5 C1.34 5 0.68 5 0 5 C0 3.35 0 1.7 0 0 Z " fill="#DBD6E1" transform="translate(184,65)"/>
<path d="M0 0 C0.66 0 1.32 0 2 0 C1.34 1.65 0.68 3.3 0 5 C-0.66 5 -1.32 5 -2 5 C-1.34 3.35 -0.68 1.7 0 0 Z " fill="#DAD4E2" transform="translate(187,58)"/>
<path d="M0 0 C0.33 0.99 0.66 1.98 1 3 C0.67 3.66 0.34 4.32 0 5 C-0.66 5 -1.32 5 -2 5 C-1.34 3.35 -0.68 1.7 0 0 Z " fill="#DCD7E2" transform="translate(183,169)"/>
<path d="M0 0 C2 2 2 2 2 5 C1.34 5 0.68 5 0 5 C-0.5625 3.0625 -0.5625 3.0625 -1 1 C-0.67 0.67 -0.34 0.34 0 0 Z " fill="#DCD6E1" transform="translate(92,159)"/>
<path d="M0 0 C0.99 0.33 1.98 0.66 3 1 C1.35 1.66 -0.3 2.32 -2 3 C-2 2.34 -2 1.68 -2 1 C-1.34 0.67 -0.68 0.34 0 0 Z " fill="#DAD5E2" transform="translate(209,147)"/>
<path d="M0 0 C0.33 0 0.66 0 1 0 C1 1.65 1 3.3 1 5 C0.34 5 -0.32 5 -1 5 C-0.67 3.35 -0.34 1.7 0 0 Z " fill="#DDD6E3" transform="translate(52,145)"/>
<path d="M0 0 C1.32 0 2.64 0 4 0 C4 0.66 4 1.32 4 2 C2.35 2 0.7 2 -1 2 C-0.67 1.34 -0.34 0.68 0 0 Z " fill="#DAD5E5" transform="translate(215,145)"/>
<path d="M0 0 C0 0.66 0 1.32 0 2 C-1.65 2.33 -3.3 2.66 -5 3 C-5 2.34 -5 1.68 -5 1 C-3 0 -3 0 0 0 Z " fill="#DAD3E2" transform="translate(226,143)"/>
<path d="M0 0 C1.98 0.99 1.98 0.99 4 2 C4 2.66 4 3.32 4 4 C2.68 3.34 1.36 2.68 0 2 C0 1.34 0 0.68 0 0 Z " fill="#DBD3E3" transform="translate(79,142)"/>
<path d="M0 0 C0.99 0.33 1.98 0.66 3 1 C1.68 1.99 0.36 2.98 -1 4 C-0.67 2.68 -0.34 1.36 0 0 Z " fill="#DBD4E2" transform="translate(54,139)"/>
<path d="M0 0 C1.98 0.495 1.98 0.495 4 1 C2.35 1.66 0.7 2.32 -1 3 C-0.67 2.01 -0.34 1.02 0 0 Z " fill="#D8D2E4" transform="translate(243,136)"/>
<path d="M0 0 C0 0.99 0 1.98 0 3 C-0.99 3.33 -1.98 3.66 -3 4 C-2.67 3.01 -2.34 2.02 -2 1 C-1.34 0.67 -0.68 0.34 0 0 Z " fill="#DAD3E4" transform="translate(258,128)"/>
<path d="M0 0 C0.66 0 1.32 0 2 0 C2.33 1.65 2.66 3.3 3 5 C2.34 5 1.68 5 1 5 C0.67 3.35 0.34 1.7 0 0 Z " fill="#DFD9E4" transform="translate(74,124)"/>
<path d="M0 0 C0.33 0.66 0.66 1.32 1 2 C0.01 2.99 -0.98 3.98 -2 5 C-2 2 -2 2 0 0 Z " fill="#D9D3DF" transform="translate(263,123)"/>
<path d="M0 0 C0.66 0 1.32 0 2 0 C2.33 1.65 2.66 3.3 3 5 C2.34 5 1.68 5 1 5 C0.67 3.35 0.34 1.7 0 0 Z " fill="#D2CAD6" transform="translate(73,117)"/>
<path d="M0 0 C0.66 0 1.32 0 2 0 C2.33 1.65 2.66 3.3 3 5 C2.34 5 1.68 5 1 5 C0.67 3.35 0.34 1.7 0 0 Z " fill="#DBD5E1" transform="translate(71,110)"/>
<path d="M0 0 C1.5 1.375 1.5 1.375 3 3 C3 3.66 3 4.32 3 5 C2.34 5 1.68 5 1 5 C0.67 3.35 0.34 1.7 0 0 Z " fill="#DBD6E3" transform="translate(66,96)"/>
<path d="M0 0 C1.32 1.32 2.64 2.64 4 4 C1.525 3.01 1.525 3.01 -1 2 C-0.67 1.34 -0.34 0.68 0 0 Z " fill="#DAD5E0" transform="translate(48,74)"/>
<path d="M0 0 C1.98 0.99 1.98 0.99 4 2 C4 2.66 4 3.32 4 4 C3.01 3.67 2.02 3.34 1 3 C0.67 2.01 0.34 1.02 0 0 Z " fill="#E0D8E6" transform="translate(185,72)"/>
<path d="M0 0 C0.99 0.33 1.98 0.66 3 1 C1.35 1.66 -0.3 2.32 -2 3 C-2 2.34 -2 1.68 -2 1 C-1.34 0.67 -0.68 0.34 0 0 Z " fill="#DBD7E3" transform="translate(192,54)"/>
<path d="M0 0 C0 0.66 0 1.32 0 2 C-1.65 2.33 -3.3 2.66 -5 3 C-2.25 0 -2.25 0 0 0 Z " fill="#DCD5E2" transform="translate(201,50)"/>
<path d="M0 0 C0.66 0 1.32 0 2 0 C2.33 1.32 2.66 2.64 3 4 C2.34 4 1.68 4 1 4 C0.67 2.68 0.34 1.36 0 0 Z " fill="#DBD5E3" transform="translate(89,153)"/>
<path d="M0 0 C1.98 0.99 1.98 0.99 4 2 C3.01 2.33 2.02 2.66 1 3 C0.67 2.01 0.34 1.02 0 0 Z " fill="#DBD6E2" transform="translate(53,152)"/>
<path d="M0 0 C3.875 1.75 3.875 1.75 5 4 C1.125 2.25 1.125 2.25 0 0 Z " fill="#DDD7E3" transform="translate(84,147)"/>
<path d="M0 0 C0.99 0.33 1.98 0.66 3 1 C1.35 1.66 -0.3 2.32 -2 3 C-2 2.34 -2 1.68 -2 1 C-1.34 0.67 -0.68 0.34 0 0 Z " fill="#DED5E4" transform="translate(230,141)"/>
<path d="M0 0 C1.65 0 3.3 0 5 0 C4.34 0.66 3.68 1.32 3 2 C2.01 2 1.02 2 0 2 C0 1.34 0 0.68 0 0 Z " fill="#DBD4E0" transform="translate(58,137)"/>
<path d="M0 0 C0.66 0.66 1.32 1.32 2 2 C1.34 3.32 0.68 4.64 0 6 C-1.24546405 3.50907189 -0.7767578 2.58919267 0 0 Z " fill="#DFDBE5" transform="translate(265,116)"/>
<path d="M0 0 C1.98 0.99 1.98 0.99 4 2 C4 2.66 4 3.32 4 4 C2.68 3.34 1.36 2.68 0 2 C0 1.34 0 0.68 0 0 Z " fill="#D8D2DE" transform="translate(258,104)"/>
<path d="M0 0 C1.98 0.99 1.98 0.99 4 2 C3.67 2.66 3.34 3.32 3 4 C2.01 3.34 1.02 2.68 0 2 C0 1.34 0 0.68 0 0 Z " fill="#DBD6E3" transform="translate(252,100)"/>
<path d="M0 0 C0.66 0 1.32 0 2 0 C2.66 1.32 3.32 2.64 4 4 C2.68 3.34 1.36 2.68 0 2 C0 1.34 0 0.68 0 0 Z " fill="#E0DAE6" transform="translate(53,79)"/>
<path d="M0 0 C0.66 0.66 1.32 1.32 2 2 C0.35 2.33 -1.3 2.66 -3 3 C-2.01 2.01 -1.02 1.02 0 0 Z " fill="#DAD4E0" transform="translate(206,47)"/>
<path d="M0 0 C0.66 0 1.32 0 2 0 C1.67 1.32 1.34 2.64 1 4 C0.67 2.68 0.34 1.36 0 0 Z " fill="#DCD9E2" transform="translate(180,176)"/>
<path d="M0 0 C0 0.66 0 1.32 0 2 C-1.65 2 -3.3 2 -5 2 C-2 0 -2 0 0 0 Z " fill="#DED7E4" transform="translate(64,154)"/>
<path d="M0 0 C0.99 0 1.98 0 3 0 C3 0.66 3 1.32 3 2 C1.68 1.67 0.36 1.34 -1 1 C-0.67 0.67 -0.34 0.34 0 0 Z " fill="#3B1869" transform="translate(118,87)"/>
<path d="M0 0 C1.32 0.33 2.64 0.66 4 1 C2.68 1.33 1.36 1.66 0 2 C0 1.34 0 0.68 0 0 Z " fill="#3F1566" transform="translate(241,54)"/>
<path d="M0 0 C0.99 0 1.98 0 3 0 C3 0.66 3 1.32 3 2 C1.68 1.67 0.36 1.34 -1 1 C-0.67 0.67 -0.34 0.34 0 0 Z " fill="#E2DEE7" transform="translate(210,46)"/>
</svg>
