<?xml version="1.0" encoding="UTF-8"?>
<svg version="1.1" xmlns="http://www.w3.org/2000/svg" width="274" height="206">
<path d="M0 0 C0.92108047 -0.0071553 1.84216095 -0.01431061 2.79115295 -0.02168274 C3.80468842 -0.02437164 4.81822388 -0.02706055 5.86247253 -0.02983093 C6.92762589 -0.03640213 7.99277924 -0.04297333 9.09020996 -0.04974365 C12.62652144 -0.06950704 16.16279042 -0.08114552 19.69914246 -0.09111023 C21.50740289 -0.09722352 21.50740289 -0.09722352 23.35219383 -0.10346031 C29.7315949 -0.12433318 36.11097437 -0.13863012 42.49040222 -0.147995 C49.08822721 -0.15906705 55.68571563 -0.19347308 62.28342152 -0.23316669 C67.34914794 -0.25927824 72.41479348 -0.26768195 77.48058128 -0.27127647 C79.91309064 -0.27615589 82.34559608 -0.28780811 84.77803993 -0.30631447 C88.18015548 -0.33059088 91.58139114 -0.32976161 94.98356628 -0.32279968 C95.99102905 -0.33560974 96.99849182 -0.3484198 98.03648376 -0.36161804 C102.3654979 -0.32927959 104.94583856 -0.23594763 108.76217651 1.94216919 C110.61711121 4.14717102 110.61711121 4.14717102 110.92961121 7.89717102 C110.77492371 9.50592102 110.77492371 9.50592102 110.61711121 11.14717102 C111.82826599 11.12360535 111.82826599 11.12360535 113.06388855 11.0995636 C116.70655877 11.03737423 120.34911754 10.99823093 123.99211121 10.95967102 C125.26312683 10.9345343 126.53414246 10.90939758 127.84367371 10.88349915 C129.05539246 10.87383118 130.26711121 10.86416321 131.51554871 10.85420227 C132.63622742 10.83849182 133.75690613 10.82278137 134.9115448 10.80659485 C135.80438171 10.91898499 136.69721863 11.03137512 137.61711121 11.14717102 C139.91494726 14.59392511 139.91466003 16.08045214 139.92961121 20.14717102 C139.94636902 21.19904602 139.96312683 22.25092102 139.98039246 23.33467102 C139.61711121 26.14717102 139.61711121 26.14717102 138.29679871 28.01045227 C135.78254515 29.71195875 133.56762926 29.34387222 130.61711121 29.14717102 C130.61711121 32.44717102 130.61711121 35.74717102 130.61711121 39.14717102 C131.93711121 38.81717102 133.25711121 38.48717102 134.61711121 38.14717102 C136.61711121 40.14717102 136.61711121 40.14717102 136.86711121 43.45967102 C136.63574573 46.87231186 136.09364001 49.10183037 134.61711121 52.14717102 C135.60711121 52.80717102 136.59711121 53.46717102 137.61711121 54.14717102 C137.16375042 59.02079949 135.9081953 61.53759491 132.61711121 65.14717102 C133.22039246 64.87002258 133.82367371 64.59287415 134.44523621 64.30732727 C135.24445496 63.94510071 136.04367371 63.58287415 136.86711121 63.20967102 C137.65601746 62.85002258 138.44492371 62.49037415 139.25773621 62.11982727 C147.13280257 58.87331813 155.8333732 59.20692964 163.73820496 62.23310852 C166.33822688 63.49798405 167.94735918 64.78168899 169.61711121 67.14717102 C170.49211121 69.70967102 170.49211121 69.70967102 170.61711121 72.14717102 C169.95711121 73.13717102 169.29711121 74.12717102 168.61711121 75.14717102 C165.62607461 75.48082071 162.80147495 75.66015557 159.80461121 75.70967102 C152.48912423 75.80264179 152.48912423 75.80264179 145.61711121 78.14717102 C146.46273621 78.84842102 147.30836121 79.54967102 148.17961121 80.27217102 C150.61711121 83.14717102 150.61711121 83.14717102 150.92961121 86.08467102 C149.4851623 89.45505181 148.44473541 90.25279235 145.53507996 92.33857727 C144.80442322 92.86781799 144.07376648 93.39705872 143.32096863 93.94233704 C142.75869568 94.33993225 142.19642273 94.73752747 141.61711121 95.14717102 C142.15191101 95.56079895 142.68671082 95.97442688 143.23771667 96.40058899 C145.65697285 98.27300178 148.07455878 100.14755905 150.49211121 102.02217102 C151.33386902 102.67314758 152.17562683 103.32412415 153.04289246 103.99482727 C153.84855652 104.62002258 154.65422058 105.2452179 155.48429871 105.88935852 C156.22792664 106.46540833 156.97155457 107.04145813 157.73771667 107.63496399 C160.28300161 109.6829628 161.4869069 110.70647952 162.42961121 113.89717102 C162.66019851 117.8940177 161.74796374 119.79868847 159.61711121 123.14717102 C155.77631668 125.70770071 154.18967277 125.73375215 149.61711121 125.14717102 C146.41767326 123.48040232 143.61023673 121.38796291 140.74211121 119.20967102 C139.97125183 118.64570618 139.20039246 118.08174133 138.40617371 117.50068665 C132.9882958 113.51835561 132.9882958 113.51835561 131.61711121 112.14717102 C131.57972839 112.81103821 131.54234558 113.4749054 131.50382996 114.15888977 C130.83135277 123.1911814 130.83135277 123.1911814 127.61711121 127.14717102 C124.43532611 129.26836109 123.64549342 129.39976927 120.00007629 129.41459656 C119.05237869 129.42312653 118.10468109 129.43165649 117.12826538 129.44044495 C116.09027298 129.43953857 115.05228058 129.4386322 113.98283386 129.43769836 C112.88827377 129.44441559 111.79371368 129.45113281 110.66598511 129.45805359 C107.03766881 129.47709445 103.40953689 129.48096088 99.78117371 129.48310852 C97.26395084 129.48953222 94.74672872 129.49626025 92.22950745 129.50328064 C86.94854025 129.51526866 81.66761999 129.51904541 76.38664246 129.51777649 C70.28637968 129.51657528 64.18647085 129.53767211 58.08629763 129.56926382 C52.21458995 129.59858684 46.34302217 129.60575208 40.47124863 129.60455704 C37.97455271 129.60691994 35.47785428 129.61578199 32.98120499 129.63122177 C29.4905627 129.65078676 26.00083418 129.64508023 22.51017761 129.63301086 C21.47623367 129.64424988 20.44228973 129.65548889 19.37701416 129.66706848 C14.91200248 129.62777821 12.33019924 129.57432327 8.43629456 127.24180603 C6.61711121 125.14717102 6.61711121 125.14717102 6.61711121 123.14717102 C5.90055359 123.15764465 5.18399597 123.16811829 4.44572449 123.1789093 C1.21122216 123.22038401 -2.02322433 123.24646994 -5.25788879 123.27217102 C-6.38581848 123.28892883 -7.51374817 123.30568665 -8.67585754 123.32295227 C-10.29040833 123.33262024 -10.29040833 123.33262024 -11.93757629 123.34248352 C-12.93257141 123.35295715 -13.92756653 123.36343079 -14.95271301 123.3742218 C-17.38288879 123.14717102 -17.38288879 123.14717102 -19.38288879 121.14717102 C-19.5545261 118.58424786 -19.61553437 116.14371245 -19.57038879 113.58467102 C-19.56974426 112.88664368 -19.56909973 112.18861633 -19.56843567 111.46943665 C-19.52320038 106.2874826 -19.52320038 106.2874826 -18.38288879 105.14717102 C-16.60217633 105.05990879 -14.81805739 105.04018061 -13.03523254 105.04951477 C-11.9556427 105.05273743 -10.87605286 105.05596008 -9.76374817 105.0592804 C-8.05928528 105.07184875 -8.05928528 105.07184875 -6.32038879 105.08467102 C-4.61012512 105.0914386 -4.61012512 105.0914386 -2.86531067 105.0983429 C-0.03778528 105.11017355 2.78963761 105.12665692 5.61711121 105.14717102 C5.61711121 104.48717102 5.61711121 103.82717102 5.61711121 103.14717102 C5.02543152 103.19357727 4.43375183 103.23998352 3.82414246 103.28779602 C-0.40274497 103.48086755 -2.70772799 103.56914652 -6.38288879 101.27217102 C-9.40089705 98.06553725 -9.50054692 96.3245047 -9.44538879 92.02217102 C-9.43636536 91.1120929 -9.42734192 90.20201477 -9.41804504 89.26435852 C-9.40644348 88.56568665 -9.39484192 87.86701477 -9.38288879 87.14717102 C-10.86788879 86.65217102 -10.86788879 86.65217102 -12.38288879 86.14717102 C-12.05288879 84.49717102 -11.72288879 82.84717102 -11.38288879 81.14717102 C-15.17592604 82.14910539 -18.0982522 82.95741329 -21.38288879 85.14717102 C-24.00788879 85.33467102 -24.00788879 85.33467102 -26.38288879 85.14717102 C-26.71288879 84.81717102 -27.04288879 84.48717102 -27.38288879 84.14717102 C-27.22346751 80.00221775 -26.81868417 77.71114151 -24.25788879 74.39717102 C-19.67462736 70.81027077 -15.28835383 68.61031056 -9.38288879 69.14717102 C-9.38288879 68.48717102 -9.38288879 67.82717102 -9.38288879 67.14717102 C-10.00034973 67.0002179 -10.61781067 66.85326477 -11.25398254 66.70185852 C-18.77263119 64.71061824 -25.94183213 61.80875602 -30.38288879 55.14717102 C-30.25788879 52.08467102 -30.25788879 52.08467102 -29.38288879 49.14717102 C-26.83573964 47.27926164 -25.57419879 47.14717102 -22.38288879 47.14717102 C-22.38288879 46.48717102 -22.38288879 45.82717102 -22.38288879 45.14717102 C-23.06351379 44.98217102 -23.74413879 44.81717102 -24.44538879 44.64717102 C-28.70578947 42.47164727 -31.84639086 39.20410576 -34.38288879 35.14717102 C-34.70710754 32.51045227 -34.70710754 32.51045227 -34.38288879 30.14717102 C-32.38288879 28.14717102 -32.38288879 28.14717102 -29.32038879 27.77217102 C-22.07586117 28.46212603 -16.21060834 31.96316725 -10.38288879 36.14717102 C-9.24111903 28.72566754 -9.3690799 21.50717117 -9.59773254 14.01631165 C-9.73285161 5.05546097 -9.73285161 5.05546097 -6.38288879 1.14717102 C-4.03123037 -0.02865819 -2.62215328 0.0139576 0 0 Z " fill="#482F7A" transform="translate(68.38288879394531,34.85282897949219)"/>
<path d="M0 0 C39.93 0 79.86 0 121 0 C121 18.81 121 37.62 121 57 C112 51 112 51 111 47 C111.4640625 45.7315625 111.4640625 45.7315625 111.9375 44.4375 C114.69249488 35.52428126 112.84197883 28.21678683 109 20 C108.49726563 18.63681641 108.49726563 18.63681641 107.984375 17.24609375 C107.49710938 16.13427734 107.49710938 16.13427734 107 15 C105.09821215 14.39938767 105.09821215 14.39938767 103 14 C102.4225 13.38125 101.845 12.7625 101.25 12.125 C95.44883925 6.64612596 88.24856664 6.34311323 80.609375 6.5234375 C73.14829784 7.50855808 66.54939002 10.88601255 61.4375 16.4375 C57.86145873 21.2020491 56.08688663 26.15673795 55 32 C54.31373535 32.01458252 53.6274707 32.02916504 52.92041016 32.04418945 C49.82136099 32.11850151 46.72340945 32.21521582 43.625 32.3125 C42.54476562 32.33505859 41.46453125 32.35761719 40.3515625 32.38085938 C39.3203125 32.41630859 38.2890625 32.45175781 37.2265625 32.48828125 C35.79691162 32.52755737 35.79691162 32.52755737 34.33837891 32.56762695 C33.18088135 32.78165161 33.18088135 32.78165161 32 33 C29.68456793 35.76988076 29.68456793 35.76988076 30.3125 38.625 C30.7741514 40.93501965 30.7741514 40.93501965 32 42 C33.77869726 42.15764405 35.56318476 42.25100677 37.34765625 42.31640625 C38.42724609 42.35830078 39.50683594 42.40019531 40.61914062 42.44335938 C41.75544922 42.48267578 42.89175781 42.52199219 44.0625 42.5625 C45.20267578 42.60568359 46.34285156 42.64886719 47.51757812 42.69335938 C50.34492195 42.79982839 53.17235738 42.90184207 56 43 C56.33483398 43.68924561 56.66966797 44.37849121 57.01464844 45.08862305 C57.4584082 45.99136963 57.90216797 46.89411621 58.359375 47.82421875 C58.79733398 48.71971436 59.23529297 49.61520996 59.68652344 50.5378418 C63.19344795 57.11169565 69.95067014 61.42579716 76.9921875 63.62109375 C85.25664807 65.1807293 92.47241469 63.5954441 100 60 C100.66257812 59.41863281 101.32515625 58.83726562 102.0078125 58.23828125 C102.66523438 57.82964844 103.32265625 57.42101562 104 57 C107.79396284 57.9379015 110.70759784 59.99025974 113.8125 62.3125 C114.60269531 62.88613281 115.39289063 63.45976562 116.20703125 64.05078125 C118.4917019 66.53455174 118.10113892 67.73693921 118 71 C119.485 71.99 119.485 71.99 121 73 C121.46875 76.08203125 121.46875 76.08203125 121.5 79.8125 C121.5309375 81.03582031 121.561875 82.25914062 121.59375 83.51953125 C120.81457949 88.08690576 119.72024836 89.24518672 116 92 C112.40751561 92.74183812 108.87240856 92.68316078 105.21459961 92.64697266 C104.12789474 92.65573425 103.04118988 92.66449585 101.92155457 92.67352295 C98.33141088 92.69552022 94.74249983 92.6809627 91.15234375 92.6640625 C88.65800235 92.66743026 86.16366256 92.67228254 83.66932678 92.67855835 C77.77378744 92.68687397 71.87869539 92.66938145 65.98322159 92.6428045 C60.61343074 92.62135326 55.24423398 92.63652028 49.87448114 92.6609875 C44.05928975 92.68642181 38.2444187 92.68371743 32.42920113 92.66907883 C29.95681198 92.66573981 27.48440134 92.6698492 25.01203728 92.68147659 C21.55944324 92.6941514 18.10847829 92.6748533 14.65600586 92.64697266 C13.11843628 92.66215439 13.11843628 92.66215439 11.54980469 92.67764282 C4.75721106 92.57583155 4.75721106 92.57583155 1.36238098 89.9941864 C-0.41052387 86.09776707 -0.52989418 82.64346116 -0.45410156 78.44604492 C-0.4545837 77.58308209 -0.45506584 76.72011927 -0.45556259 75.83100605 C-0.45258509 73.04706905 -0.42216368 70.26421323 -0.390625 67.48046875 C-0.38474132 65.75802119 -0.38066217 64.0355665 -0.37841797 62.31311035 C-0.35747587 55.93779759 -0.30163073 49.56263809 -0.25 43.1875 C-0.1675 28.935625 -0.085 14.68375 0 0 Z " fill="#FDFDFE" transform="translate(76,70)"/>
<path d="M0 0 C2.282911 1.45316928 3.39428183 3.10516298 4.98828125 5.265625 C5.97828125 5.595625 6.96828125 5.925625 7.98828125 6.265625 C9.55859375 8.62890625 9.55859375 8.62890625 11.11328125 11.578125 C11.89058594 13.02638672 11.89058594 13.02638672 12.68359375 14.50390625 C16.72668899 23.06219468 15.31849409 32.38168854 12.98828125 41.265625 C13.519375 41.64074219 14.05046875 42.01585937 14.59765625 42.40234375 C18.67601853 45.35692373 22.05020125 48.10334499 24.98828125 52.265625 C25.97828125 51.275625 25.97828125 51.275625 26.98828125 50.265625 C27.97828125 50.265625 28.96828125 50.265625 29.98828125 50.265625 C30.31828125 50.925625 30.64828125 51.585625 30.98828125 52.265625 C31.68824219 52.52601563 32.38820313 52.78640625 33.109375 53.0546875 C36.9418064 54.66670071 39.83062487 57.04537701 43.05078125 59.640625 C43.96827148 60.36378906 43.96827148 60.36378906 44.90429688 61.1015625 C51.65851414 66.47572889 51.65851414 66.47572889 53.98828125 69.265625 C53.92741203 72.73517045 53.61568415 75.18509778 51.86328125 78.203125 C48.80907901 79.9338396 46.44802652 79.59394777 42.98828125 79.265625 C40.36598818 77.98929081 38.15458806 76.30838374 35.86328125 74.515625 C35.26902344 74.0721875 34.67476563 73.62875 34.0625 73.171875 C31.39929404 71.17300077 28.80376977 69.11404333 26.23046875 67 C24.04652637 65.12868925 24.04652637 65.12868925 21.23828125 64.265625 C18.98828125 63.265625 18.98828125 63.265625 18.17578125 61.265625 C17.98828125 59.265625 17.98828125 59.265625 17.98828125 57.265625 C15.69926743 55.13790459 15.69926743 55.13790459 12.80078125 53.015625 C11.83785156 52.26796875 10.87492187 51.5203125 9.8828125 50.75 C7.1166537 48.93282996 7.1166537 48.93282996 4.37890625 49.90234375 C3.59 50.35222656 2.80109375 50.80210937 1.98828125 51.265625 C1.29605469 51.60722656 0.60382813 51.94882813 -0.109375 52.30078125 C-1.42238556 52.98730566 -2.73488386 53.67481065 -4.046875 54.36328125 C-10.20226636 57.19011108 -17.68755621 57.3164419 -24.07421875 55.140625 C-33.03170614 51.2138073 -39.00632341 46.3916434 -43.01171875 37.265625 C-43.01171875 36.275625 -43.01171875 35.285625 -43.01171875 34.265625 C-43.72303955 34.28657227 -44.43436035 34.30751953 -45.16723633 34.32910156 C-48.38608703 34.41218225 -51.60471241 34.46425966 -54.82421875 34.515625 C-55.94376953 34.54914063 -57.06332031 34.58265625 -58.21679688 34.6171875 C-59.28994141 34.63007812 -60.36308594 34.64296875 -61.46875 34.65625 C-62.4585083 34.67719727 -63.4482666 34.69814453 -64.46801758 34.71972656 C-67.01171875 34.265625 -67.01171875 34.265625 -68.86987305 32.40527344 C-70.01171875 30.265625 -70.01171875 30.265625 -69.82421875 27.640625 C-69.01171875 25.265625 -69.01171875 25.265625 -67.01171875 23.265625 C-64.67333984 23.03857422 -64.67333984 23.03857422 -61.78515625 23.0703125 C-60.23828125 23.07998047 -60.23828125 23.07998047 -58.66015625 23.08984375 C-57.03980469 23.11498047 -57.03980469 23.11498047 -55.38671875 23.140625 C-54.29875 23.14964844 -53.21078125 23.15867187 -52.08984375 23.16796875 C-49.39691723 23.19159091 -46.7044262 23.22452944 -44.01171875 23.265625 C-43.87894531 22.193125 -43.74617188 21.120625 -43.609375 20.015625 C-42.40680929 12.47011463 -39.1394237 7.57478934 -33.1953125 2.80859375 C-23.0070354 -4.39063604 -11.46357331 -4.85516046 0 0 Z " fill="#B3ABCD" transform="translate(175.01171875,78.734375)"/>
<path d="M0 0 C7.24452763 0.68995501 13.10978046 4.19099622 18.9375 8.375 C19.5975 7.055 20.2575 5.735 20.9375 4.375 C22.73519102 6.17269102 22.08121912 8.89049157 22.09521484 11.31591797 C22.10547699 12.58748749 22.11573914 13.85905701 22.12631226 15.16915894 C22.12975018 15.85305569 22.1331881 16.53695244 22.13673019 17.24157333 C22.14848872 19.37648664 22.16793345 21.51119484 22.18984985 23.64602661 C22.25156733 29.71723622 22.30552358 35.78842643 22.33886719 41.85986328 C22.35979471 45.56998913 22.39508401 49.27974415 22.43962479 52.98965836 C22.45380316 54.40500654 22.46251138 55.82042037 22.46567917 57.23583603 C22.47057885 59.21573481 22.49533059 61.19555448 22.52099609 63.17529297 C22.52908295 64.30256805 22.5371698 65.42984314 22.54550171 66.59127808 C22.70479906 69.74389696 22.70479906 69.74389696 25.9375 72.375 C29.2375 72.705 32.5375 73.035 35.9375 73.375 C35.9375 51.595 35.9375 29.815 35.9375 7.375 C36.2675 7.375 36.5975 7.375 36.9375 7.375 C36.94336624 8.45606018 36.94923248 9.53712036 36.95527649 10.65093994 C37.01246196 20.83341276 37.08520168 31.01567116 37.17321491 41.19792557 C37.2179636 46.43287877 37.25720983 51.66775333 37.28393555 56.90283203 C37.3099236 61.95393632 37.35029412 67.00473871 37.40068626 72.05565643 C37.41738544 73.98374429 37.42888068 75.91188439 37.43511391 77.84003448 C37.44472184 80.53853588 37.47274114 83.23625962 37.50512695 85.93457031 C37.50369186 86.73370346 37.50225677 87.53283661 37.5007782 88.35618591 C37.57482694 92.71194681 37.8577993 95.23662843 40.9375 98.375 C43.08535752 98.97368612 43.08535752 98.97368612 45.52330017 98.88293457 C46.46402878 98.89421387 47.40475739 98.90549316 48.37399292 98.91711426 C49.91931198 98.90496887 49.91931198 98.90496887 51.49584961 98.89257812 C52.58226242 98.8995874 53.66867523 98.90659668 54.78800964 98.91381836 C58.38887899 98.9314619 61.98896603 98.9197516 65.58984375 98.90625 C68.08704276 98.90894326 70.58424075 98.91282429 73.08143616 98.91784668 C78.31959043 98.92375052 83.55754034 98.91553085 88.7956543 98.89648438 C94.84939415 98.87472618 100.90259493 98.88175781 106.95632166 98.90379 C112.78108436 98.92413961 118.60564239 98.92197203 124.43042183 98.91026306 C126.90839272 98.90759126 129.38637732 98.91088139 131.8643322 98.92018127 C135.32651247 98.93032167 138.78765316 98.91487882 142.24975586 98.89257812 C143.79203857 98.90472351 143.79203857 98.90472351 145.36547852 98.91711426 C150.80790369 98.91608042 150.80790369 98.91608042 155.56739807 96.55847168 C157.53255919 93.42668013 157.55171132 90.79129427 157.6875 87.125 C157.74421875 85.86171875 157.8009375 84.5984375 157.859375 83.296875 C157.88515625 82.33265625 157.9109375 81.3684375 157.9375 80.375 C160.81860968 81.72455769 163.27144088 83.27002664 165.80078125 85.1953125 C166.52330078 85.73027344 167.24582031 86.26523438 167.99023438 86.81640625 C169.49298956 87.93600432 170.9878962 89.0662171 172.47460938 90.20703125 C177.05615727 93.56493592 180.0338099 95.28153109 185.9375 94.375 C188.30355998 92.31423809 188.85013007 91.06499843 189.2421875 87.96875 C188.83988282 84.5440025 187.74798012 83.74448871 185.125 81.5625 C184.3103125 80.88445312 183.495625 80.20640625 182.65625 79.5078125 C174.57339471 72.42805916 174.57339471 72.42805916 164.9375 68.375 C165.2675 67.715 165.5975 67.055 165.9375 66.375 C162.9675 67.86 162.9675 67.86 159.9375 69.375 C157.31351894 65.59666687 156.57697182 63.15665549 156.6887207 58.57495117 C156.70896805 57.43414597 156.72921539 56.29334076 156.75007629 55.1179657 C156.78743393 53.89696671 156.82479156 52.67596771 156.86328125 51.41796875 C156.90294258 49.53081902 156.90294258 49.53081902 156.94340515 47.60554504 C157.01621251 44.27276871 157.10237284 40.9408868 157.19506836 37.60864258 C157.28648315 34.20354304 157.36026015 30.79806567 157.43554688 27.39257812 C157.58664533 20.71958589 157.75536675 14.04721339 157.9375 7.375 C158.2675 7.375 158.5975 7.375 158.9375 7.375 C159.2675 9.685 159.5975 11.995 159.9375 14.375 C160.2675 13.715 160.5975 13.055 160.9375 12.375 C162.9175 12.87 162.9175 12.87 164.9375 13.375 C164.27083333 17.375 163.60416667 21.375 162.9375 25.375 C163.5975 25.705 164.2575 26.035 164.9375 26.375 C164.42616068 30.84921905 162.70156839 32.91991451 159.9375 36.375 C159.29374734 38.96724123 159.29374734 38.96724123 158.9375 41.375 C159.73929688 40.88128906 160.54109375 40.38757813 161.3671875 39.87890625 C168.37496391 35.93007986 174.35460286 33.6728068 182.4375 33.1875 C183.56647705 33.10640991 183.56647705 33.10640991 184.71826172 33.02368164 C189.93367407 32.86481001 192.80107915 33.96120689 196.9375 37.375 C198.9375 39.8125 198.9375 39.8125 199.9375 42.375 C199 45.03515625 199 45.03515625 197.9375 47.375 C196.69613281 47.42398438 195.45476562 47.47296875 194.17578125 47.5234375 C192.53383306 47.59849799 190.89190703 47.67404439 189.25 47.75 C188.43337891 47.7809375 187.61675781 47.811875 186.77539062 47.84375 C182.43623367 48.05455924 178.89466543 48.39238759 174.9375 50.375 C175.783125 51.07625 176.62875 51.7775 177.5 52.5 C179.9375 55.375 179.9375 55.375 180.25 58.3125 C178.80555109 61.68288079 177.76512421 62.48062133 174.85546875 64.56640625 C174.12481201 65.09564697 173.39415527 65.6248877 172.64135742 66.17016602 C172.07908447 66.56776123 171.51681152 66.96535645 170.9375 67.375 C171.4722998 67.78862793 172.00709961 68.20225586 172.55810547 68.62841797 C174.97736164 70.50083076 177.39494758 72.37538803 179.8125 74.25 C180.65425781 74.90097656 181.49601563 75.55195313 182.36328125 76.22265625 C183.16894531 76.84785156 183.97460938 77.47304687 184.8046875 78.1171875 C185.54831543 78.6932373 186.29194336 79.26928711 187.05810547 79.86279297 C189.6033904 81.91079178 190.80729569 82.9343085 191.75 86.125 C191.98058731 90.12184668 191.06835253 92.02651745 188.9375 95.375 C185.09670547 97.93552969 183.51006156 97.96158113 178.9375 97.375 C175.73806205 95.7082313 172.93062553 93.61579189 170.0625 91.4375 C169.29164063 90.87353516 168.52078125 90.30957031 167.7265625 89.72851562 C162.30868459 85.74618459 162.30868459 85.74618459 160.9375 84.375 C160.90011719 85.03886719 160.86273438 85.70273438 160.82421875 86.38671875 C160.15174156 95.41901038 160.15174156 95.41901038 156.9375 99.375 C153.7557149 101.49619007 152.96588221 101.62759825 149.32046509 101.64242554 C147.89891869 101.65522049 147.89891869 101.65522049 146.44865417 101.66827393 C145.41066177 101.66736755 144.37266937 101.66646118 143.30322266 101.66552734 C142.20866257 101.67224457 141.11410248 101.67896179 139.9863739 101.68588257 C136.35805761 101.70492343 132.72992569 101.70878986 129.1015625 101.7109375 C126.58433963 101.7173612 124.06711752 101.72408923 121.54989624 101.73110962 C116.26892904 101.74309764 110.98800879 101.74687439 105.70703125 101.74560547 C99.60676848 101.74440426 93.50685964 101.76550109 87.40668643 101.7970928 C81.53497874 101.82641582 75.66341097 101.83358106 69.79163742 101.83238602 C67.2949415 101.83474892 64.79824307 101.84361097 62.30159378 101.85905075 C58.81095149 101.87861574 55.32122297 101.87290921 51.83056641 101.86083984 C50.2796505 101.87769836 50.2796505 101.87769836 48.69740295 101.89489746 C44.23239127 101.85560719 41.65058804 101.80215225 37.75668335 99.46963501 C35.9375 97.375 35.9375 97.375 35.9375 95.375 C35.22094238 95.38547363 34.50438477 95.39594727 33.76611328 95.40673828 C30.53161095 95.44821299 27.29716447 95.47429892 24.0625 95.5 C22.93457031 95.51675781 21.80664062 95.53351563 20.64453125 95.55078125 C19.02998047 95.56044922 19.02998047 95.56044922 17.3828125 95.5703125 C16.38781738 95.58078613 15.39282227 95.59125977 14.36767578 95.60205078 C11.9375 95.375 11.9375 95.375 9.9375 93.375 C9.76586269 90.81207683 9.70485442 88.37154143 9.75 85.8125 C9.75064453 85.11447266 9.75128906 84.41644531 9.75195312 83.69726562 C9.79718842 78.51531158 9.79718842 78.51531158 10.9375 77.375 C12.71821246 77.28773777 14.5023314 77.26800959 16.28515625 77.27734375 C17.36474609 77.28056641 18.44433594 77.28378906 19.55664062 77.28710938 C21.26110352 77.29967773 21.26110352 77.29967773 23 77.3125 C24.71026367 77.31926758 24.71026367 77.31926758 26.45507812 77.32617188 C29.28260351 77.33800253 32.1100264 77.3544859 34.9375 77.375 C34.9375 76.715 34.9375 76.055 34.9375 75.375 C34.34582031 75.42140625 33.75414062 75.4678125 33.14453125 75.515625 C28.91764382 75.70869653 26.6126608 75.7969755 22.9375 73.5 C19.91949175 70.29336623 19.81984188 68.55233368 19.875 64.25 C19.88402344 63.33992188 19.89304687 62.42984375 19.90234375 61.4921875 C19.91394531 60.79351562 19.92554687 60.09484375 19.9375 59.375 C18.4525 58.88 18.4525 58.88 16.9375 58.375 C17.2675 56.725 17.5975 55.075 17.9375 53.375 C14.14446275 54.37693437 11.22213659 55.18524227 7.9375 57.375 C5.3125 57.5625 5.3125 57.5625 2.9375 57.375 C2.6075 57.045 2.2775 56.715 1.9375 56.375 C2.09692128 52.23004673 2.50170462 49.93897049 5.0625 46.625 C9.64576143 43.03809975 14.03203496 40.83813954 19.9375 41.375 C19.9375 40.715 19.9375 40.055 19.9375 39.375 C19.32003906 39.22804687 18.70257813 39.08109375 18.06640625 38.9296875 C10.54775761 36.93844722 3.37855666 34.036585 -1.0625 27.375 C-0.9375 24.3125 -0.9375 24.3125 -0.0625 21.375 C2.48464915 19.50709062 3.74619 19.375 6.9375 19.375 C6.9375 18.715 6.9375 18.055 6.9375 17.375 C6.256875 17.21 5.57625 17.045 4.875 16.875 C0.61459933 14.69947625 -2.52600206 11.43193474 -5.0625 7.375 C-5.38671875 4.73828125 -5.38671875 4.73828125 -5.0625 2.375 C-3.0625 0.375 -3.0625 0.375 0 0 Z " fill="#573E81" transform="translate(39.0625,62.625)"/>
<path d="M0 0 C38.61 0 77.22 0 117 0 C117 3.63 117 7.26 117 11 C115.76638229 11.00586624 114.53276459 11.01173248 113.26176453 11.01777649 C101.65153106 11.0749218 90.04148638 11.14764029 78.43144512 11.23571491 C72.46220428 11.28049453 66.4930329 11.31973388 60.52368164 11.34643555 C54.76586107 11.37239279 49.00830671 11.41274125 43.25065041 11.46318626 C41.05099606 11.47990637 38.85129562 11.49138849 36.65158653 11.49761391 C33.57692753 11.5071991 30.50295756 11.53519136 27.4284668 11.56762695 C26.51352951 11.56619186 25.59859222 11.56475677 24.65592957 11.5632782 C23.81880432 11.57581635 22.98167908 11.58835449 22.1191864 11.60127258 C21.0282444 11.60818603 21.0282444 11.60818603 19.91526318 11.61523914 C17.41644847 12.11723077 16.5256291 12.98599143 15 15 C14.52335355 18.29303325 14.52335355 18.29303325 14.56762695 22.13354492 C14.5574353 22.85574722 14.54724365 23.57794952 14.53674316 24.32203674 C14.50655805 26.70825909 14.49733913 29.09408039 14.48828125 31.48046875 C14.47143859 33.13529297 14.45328891 34.79010436 14.43388367 36.44490051 C14.38633241 40.79975375 14.35655636 45.15455499 14.33044434 49.50958252 C14.30066456 53.95375845 14.25412541 58.39775513 14.20898438 62.84179688 C14.12289299 71.56110996 14.05557385 80.28043927 14 89 C12.41820385 89.10867302 10.83422847 89.18589827 9.25 89.25 C8.36828125 89.29640625 7.4865625 89.3428125 6.578125 89.390625 C4 89 4 89 1.70698547 87.39276123 C-0.52775355 84.26022321 -0.52273931 82.29901432 -0.56176758 78.46582031 C-0.57968353 77.49400063 -0.57968353 77.49400063 -0.59796143 76.50254822 C-0.63253224 74.36085069 -0.6388602 72.22007872 -0.64453125 70.078125 C-0.66208014 68.57515607 -0.68120536 67.0722048 -0.701828 65.5692749 C-0.74116597 62.41188873 -0.76765427 59.25475608 -0.78393555 56.09716797 C-0.80467813 52.09656866 -0.84709187 48.09661702 -0.89822865 44.09630203 C-0.94653044 40.23614877 -0.98331657 36.37590729 -1.01953125 32.515625 C-1.02720835 31.80028847 -1.03488544 31.08495193 -1.04279518 30.34793854 C-1.06313224 28.26092259 -1.07527561 26.17400289 -1.08520508 24.08691406 C-1.09312576 22.90873108 -1.10104645 21.7305481 -1.10920715 20.5166626 C-0.94365846 13.6697888 -0.42722108 6.83553724 0 0 Z " fill="#F5F4F7" transform="translate(61,47)"/>
<path d="M0 0 C5.3421647 3.4933281 9.19365634 8.3309293 11.14453125 14.40234375 C12.11459567 21.62166525 11.43008719 27.82170553 7.84375 34.203125 C4.31574288 38.76925835 -0.43391793 41.59516014 -5.85546875 43.40234375 C-13.26773189 44.07219272 -19.77342396 44.04853832 -25.85546875 39.40234375 C-29.44801785 36.01418476 -31.75455523 33.2441101 -32.85546875 28.40234375 C-32.10861816 28.3772876 -31.36176758 28.35223145 -30.59228516 28.32641602 C-27.22149608 28.21066162 -23.85100092 28.08784247 -20.48046875 27.96484375 C-19.30484375 27.92552734 -18.12921875 27.88621094 -16.91796875 27.84570312 C-15.79648438 27.80380859 -14.675 27.76191406 -13.51953125 27.71875 C-12.4826416 27.68209229 -11.44575195 27.64543457 -10.37744141 27.60766602 C-7.86121709 27.56070152 -7.86121709 27.56070152 -5.85546875 26.40234375 C-5.81305152 24.069396 -5.81453938 21.73531808 -5.85546875 19.40234375 C-7.6594175 17.598395 -10.42224674 18.16528586 -12.859375 18.0859375 C-14.07431641 18.04404297 -15.28925781 18.00214844 -16.54101562 17.95898438 C-17.82041016 17.91966797 -19.09980469 17.88035156 -20.41796875 17.83984375 C-21.70123047 17.79666016 -22.98449219 17.75347656 -24.30664062 17.70898438 C-27.48946728 17.60249575 -30.67237549 17.50048413 -33.85546875 17.40234375 C-33.16207801 11.34962042 -32.1988663 7.68456669 -27.85546875 3.40234375 C-18.87737364 -2.70906135 -10.07252443 -4.95688155 0 0 Z " fill="#FAF9FB" transform="translate(171.85546875,84.59765625)"/>
<path d="M0 0 C1.08670486 -0.00700928 2.17340973 -0.01401855 3.29304504 -0.02124023 C6.88304232 -0.03883733 10.47225064 -0.02719147 14.06225586 -0.01367188 C16.55659639 -0.01636608 19.0509359 -0.0202479 21.54527283 -0.02526855 C27.44075063 -0.03192098 33.33594216 -0.01792689 39.23137802 0.00333452 C44.60109302 0.02049527 49.97042779 0.00836168 55.34011847 -0.01121187 C61.15527457 -0.0315592 66.97022563 -0.02939573 72.78539848 -0.01768494 C75.2577872 -0.01501372 77.73018967 -0.0183012 80.20256233 -0.02760315 C83.65494633 -0.03774238 87.10628758 -0.02230344 90.55859375 0 C91.58364014 -0.00809692 92.60868652 -0.01619385 93.66479492 -0.02453613 C100.47389484 0.05711081 100.47389484 0.05711081 103.88059998 2.17492676 C105.21459961 4.51757812 105.21459961 4.51757812 105.21459961 10.51757812 C65.28459961 10.51757812 25.35459961 10.51757812 -15.78540039 10.51757812 C-15.78540039 4.51757812 -15.78540039 4.51757812 -13.95948792 2.17492676 C-9.31606616 -0.2496342 -5.16740681 -0.04089853 0 0 Z " fill="#5FB9FB" transform="translate(91.785400390625,58.482421875)"/>
<path d="M0 0 C0.9239003 -0.00990463 1.8478006 -0.01980927 2.79969788 -0.03001404 C3.81120911 -0.02551239 4.82272034 -0.02101074 5.86488342 -0.01637268 C6.93178909 -0.02323593 7.99869476 -0.03009918 9.09793091 -0.03717041 C12.63374544 -0.05551026 16.1691193 -0.05159053 19.70497131 -0.0459137 C22.15732977 -0.05047208 24.60968694 -0.05577662 27.06204224 -0.0617981 C32.20601078 -0.07074338 37.34982419 -0.06828992 42.49378967 -0.05836487 C49.09285537 -0.04687444 55.69138605 -0.06708128 62.29038143 -0.09628201 C67.35609349 -0.11460918 72.42167653 -0.11435845 77.48741341 -0.10864449 C79.92073377 -0.10849084 82.35406265 -0.11457066 84.78735161 -0.12693596 C88.18723696 -0.14177762 91.58612354 -0.13121811 94.98597717 -0.11402893 C96.50020767 -0.12853088 96.50020767 -0.12853088 98.04502869 -0.14332581 C104.77990897 -0.07185683 104.77990897 -0.07185683 108.14663696 2.10653687 C109.49012756 4.38768005 109.49012756 4.38768005 109.49012756 9.38768005 C70.88012756 9.38768005 32.27012756 9.38768005 -7.50987244 9.38768005 C-7.50987244 3.38768005 -7.50987244 3.38768005 -6.29173946 1.53691006 C-4.04068429 0.08507324 -2.67260987 0.00808519 0 0 Z " fill="#A4A0CF" transform="translate(68.50987243652344,36.61231994628906)"/>
<path d="M0 0 C0.33 0 0.66 0 1 0 C1.33 2.31 1.66 4.62 2 7 C2.33 6.34 2.66 5.68 3 5 C4.32 5.33 5.64 5.66 7 6 C6 12 6 12 5 18 C5.66 18.33 6.32 18.66 7 19 C6.48866068 23.47421905 4.76406839 25.54491451 2 29 C1.35624734 31.59224123 1.35624734 31.59224123 1 34 C1.83660156 33.50628906 2.67320312 33.01257813 3.53515625 32.50390625 C12.20004823 27.63666806 19.83781244 24.96376303 30 26 C34.67226293 27.70651135 37.25858593 29.88787889 40 34 C39.625 36.6875 39.625 36.6875 39 39 C38.06148193 39.03758423 38.06148193 39.03758423 37.10400391 39.07592773 C34.27745381 39.19175273 31.45124831 39.31453985 28.625 39.4375 C27.64015625 39.47681641 26.6553125 39.51613281 25.640625 39.55664062 C24.69960937 39.59853516 23.75859375 39.64042969 22.7890625 39.68359375 C21.48509521 39.73858032 21.48509521 39.73858032 20.15478516 39.79467773 C17.9516738 39.87401544 17.9516738 39.87401544 16 41 C15.66574265 43.37374861 15.66574265 43.37374861 16 46 C17.9004467 47.84315671 17.9004467 47.84315671 20 49 C19.69095593 51.88441135 18.98382135 53.0176954 17 55.1875 C11.96604457 58.22884808 6.7647548 58 1 58 C0 57 0 57 -0.12025452 54.71580505 C-0.11803391 53.70542679 -0.11581329 52.69504852 -0.11352539 51.65405273 C-0.11344986 50.5129454 -0.11337433 49.37183807 -0.11329651 48.19615173 C-0.10813522 46.9545076 -0.10297394 45.71286346 -0.09765625 44.43359375 C-0.0962413 43.16983414 -0.09482635 41.90607452 -0.09336853 40.60401917 C-0.08870582 37.23875111 -0.0797148 33.8735501 -0.06866455 30.50830078 C-0.05844846 27.0765033 -0.05387049 23.64469891 -0.04882812 20.21289062 C-0.0377738 13.47524176 -0.0210171 6.73762475 0 0 Z " fill="#04B995" transform="translate(197,70)"/>
<path d="M0 0 C4.61184626 3.62359349 6.49652004 8.48207356 8 14 C8.80061927 20.95171856 7.76266861 27.27982593 6 34 C6.53109375 34.37511719 7.0621875 34.75023437 7.609375 35.13671875 C11.68773728 38.09129873 15.06192 40.83771999 18 45 C18.66 44.34 19.32 43.68 20 43 C20.99 43 21.98 43 23 43 C23.33 43.66 23.66 44.32 24 45 C24.69996094 45.26039063 25.39992187 45.52078125 26.12109375 45.7890625 C29.95352515 47.40107571 32.84234362 49.77975201 36.0625 52.375 C36.97999023 53.09816406 36.97999023 53.09816406 37.91601562 53.8359375 C44.67023289 59.21010389 44.67023289 59.21010389 47 62 C46.93913078 65.46954545 46.6274029 67.91947278 44.875 70.9375 C41.82079776 72.6682146 39.45974527 72.32832277 36 72 C33.37770693 70.72366581 31.16630681 69.04275874 28.875 67.25 C28.28074219 66.8065625 27.68648437 66.363125 27.07421875 65.90625 C24.41101279 63.90737577 21.81548852 61.84841833 19.2421875 59.734375 C17.05824512 57.86306425 17.05824512 57.86306425 14.25 57 C12 56 12 56 11.1875 54 C11 52 11 52 11 50 C8.71098618 47.87227959 8.71098618 47.87227959 5.8125 45.75 C4.84957031 45.00234375 3.88664062 44.2546875 2.89453125 43.484375 C0.12837245 41.66720496 0.12837245 41.66720496 -2.609375 42.63671875 C-3.39828125 43.08660156 -4.1871875 43.53648437 -5 44 C-5.69222656 44.34160156 -6.38445312 44.68320313 -7.09765625 45.03515625 C-8.41066681 45.72168066 -9.72316511 46.40918565 -11.03515625 47.09765625 C-16.71092158 49.70422045 -23.43409828 49.98606929 -29.4296875 48.328125 C-31.31259563 47.61784649 -33.16102638 46.81732161 -35 46 C-33.515 45.505 -33.515 45.505 -32 45 C-31.34 45.33 -30.68 45.66 -30 46 C-20.48517952 46.77808111 -11.95599287 47.00109177 -4 41 C1.76301949 35.93739013 4.53744323 30.30177793 5.3515625 22.73046875 C5.65344383 15.39793006 4.8668775 10.22109446 1.09375 3.890625 C0 2 0 2 0 0 Z " fill="#EF898C" transform="translate(182,86)"/>
<path d="M0 0 C6.17582854 -0.52560243 10.65642386 0.88221922 16 4 C16.67627441 4.34144043 17.35254883 4.68288086 18.04931641 5.03466797 C20.51675648 6.49983006 22.19638128 7.75631214 24 10 C24.98296817 14.33014103 24.75892643 18.46329196 24.5 22.875 C24.46390625 24.0403125 24.4278125 25.205625 24.390625 26.40625 C24.29659318 29.27422052 24.16532645 32.1354014 24 35 C16.89011659 34.0568522 11.05000508 31.26977123 5.3125 27 C4 25 4 25 4.25 22.25 C4.4975 21.5075 4.745 20.765 5 20 C7.31 19.34 9.62 18.68 12 18 C10.58870791 14.59672792 9.0147001 13.01564804 6 10.9375 C3.22079739 9.01147172 1.92530434 7.88795651 0 5 C-0.125 2.3125 -0.125 2.3125 0 0 Z " fill="#03C8AA" transform="translate(36,65)"/>
<path d="M0 0 C1.5631897 0.00785522 1.5631897 0.00785522 3.15795898 0.01586914 C4.28266602 0.0190918 5.40737305 0.02231445 6.56616211 0.02563477 C7.75016602 0.03401367 8.93416992 0.04239258 10.15405273 0.05102539 C11.34192383 0.05553711 12.52979492 0.06004883 13.75366211 0.06469727 C16.69964685 0.07652853 19.64560589 0.09446463 22.59155273 0.11352539 C22.59155273 6.05352539 22.59155273 11.99352539 22.59155273 18.11352539 C18.63304021 18.16726085 14.67525018 18.20707149 10.71655273 18.23852539 C9.58862305 18.2552832 8.46069336 18.27204102 7.29858398 18.28930664 C5.6840332 18.29897461 5.6840332 18.29897461 4.03686523 18.30883789 C2.54437256 18.32454834 2.54437256 18.32454834 1.02172852 18.34057617 C-1.40844727 18.11352539 -1.40844727 18.11352539 -3.40844727 16.11352539 C-3.58008457 13.55060223 -3.64109284 11.11006682 -3.59594727 8.55102539 C-3.59530273 7.85299805 -3.5946582 7.1549707 -3.59399414 6.43579102 C-3.53926993 0.16682823 -3.53926993 0.16682823 0 0 Z " fill="#F3F1F6" transform="translate(52.408447265625,139.886474609375)"/>
<path d="M0 0 C4.45869066 -0.08057875 8.91594056 -0.14030229 13.375 -0.1875 C14.64601562 -0.21263672 15.91703125 -0.23777344 17.2265625 -0.26367188 C18.43828125 -0.27333984 19.65 -0.28300781 20.8984375 -0.29296875 C22.01911621 -0.3086792 23.13979492 -0.32438965 24.29443359 -0.34057617 C25.18727051 -0.22818604 26.08010742 -0.1157959 27 0 C29.29783606 3.44675409 29.29754883 4.93328112 29.3125 9 C29.32925781 10.051875 29.34601563 11.10375 29.36328125 12.1875 C29 15 29 15 27.69140625 16.84375 C24.75748981 18.84938341 22.42758444 18.47277027 19 18 C18.319375 17.195625 17.63875 16.39125 16.9375 15.5625 C12.12060447 11.36052731 6.18743922 12.09209991 0 12 C0 8.04 0 4.08 0 0 Z " fill="#F4F2F6" transform="translate(179,46)"/>
<path d="M0 0 C6.51399991 3.72228566 10.84259716 8.66164925 13.15234375 15.83984375 C14.83901038 23.32529815 13.51045452 29.36580531 9.625 35.9375 C5.30268207 42.14609264 -1.22136052 45.82610644 -8.62109375 47.421875 C-15.85025705 47.712787 -22.30534891 45.1395968 -27.75 40.5625 C-30.51791426 37.93822999 -32.92108475 35.52382428 -34.375 31.9375 C-34.045 30.6175 -33.715 29.2975 -33.375 27.9375 C-26.775 28.2675 -20.175 28.5975 -13.375 28.9375 C-13.375 25.9675 -13.375 22.9975 -13.375 19.9375 C-20.305 19.9375 -27.235 19.9375 -34.375 19.9375 C-34.375 22.2475 -34.375 24.5575 -34.375 26.9375 C-34.705 26.9375 -35.035 26.9375 -35.375 26.9375 C-35.97438429 17.8801374 -34.98207206 12.11410975 -29 5.1875 C-20.34993439 -2.22684195 -10.77840851 -4.98848952 0 0 Z M-31.6875 10.9375 C-33.46430607 14.09626635 -33.53489432 15.43166896 -33.375 18.9375 C-32.15598999 18.97508423 -32.15598999 18.97508423 -30.91235352 19.01342773 C-27.25389248 19.12899118 -23.59571472 19.25189584 -19.9375 19.375 C-18.65810547 19.41431641 -17.37871094 19.45363281 -16.06054688 19.49414062 C-14.84560547 19.53603516 -13.63066406 19.57792969 -12.37890625 19.62109375 C-11.25299072 19.65775146 -10.1270752 19.69440918 -8.96704102 19.73217773 C-6.375 19.9375 -6.375 19.9375 -5.375 20.9375 C-5.33407063 23.27047433 -5.33258277 25.60455225 -5.375 27.9375 C-8.00223396 29.25111698 -10.10110561 29.15003909 -13.0390625 29.25390625 C-14.16054687 29.29580078 -15.28203125 29.33769531 -16.4375 29.38085938 C-17.613125 29.42017578 -18.78875 29.45949219 -20 29.5 C-21.18335938 29.54318359 -22.36671875 29.58636719 -23.5859375 29.63085938 C-26.51550328 29.73717426 -29.44515588 29.83920642 -32.375 29.9375 C-31.17880577 34.28060519 -30.0319117 36.79521797 -26.5625 39.6875 C-25.56283203 40.54601562 -25.56283203 40.54601562 -24.54296875 41.421875 C-18.55737301 45.60639959 -12.45924468 45.76678892 -5.375 44.9375 C1.77072668 42.87873119 5.76909048 39.32719682 9.56640625 33.0234375 C12.56096775 27.12271485 12.69230894 19.9755988 11.01171875 13.6171875 C8.1618097 7.21430813 2.91774543 2.54884351 -3.3125 -0.5 C-15.71607825 -2.77820825 -24.00286284 0.96824098 -31.6875 10.9375 Z " fill="#614787" transform="translate(171.375,83.0625)"/>
<path d="M0 0 C4.61184626 3.62359349 6.49652004 8.48207356 8 14 C8.80061927 20.95171856 7.76266861 27.27982593 6 34 C6.53109375 34.35191406 7.0621875 34.70382813 7.609375 35.06640625 C12.60016828 38.55449717 15.36366763 41.5076409 18 47 C17.360625 47.763125 16.72125 48.52625 16.0625 49.3125 C13.85767219 51.88246713 13.85767219 51.88246713 13 55 C13.763125 54.21625 14.52625 53.4325 15.3125 52.625 C18 50 18 50 21 48 C19.7508258 51.45925163 18.32472205 54.14693203 16 57 C14.68 56.67 13.36 56.34 12 56 C11.4465236 53.92446352 11 52.15634036 11 50 C8.71098618 47.87227959 8.71098618 47.87227959 5.8125 45.75 C4.84957031 45.00234375 3.88664062 44.2546875 2.89453125 43.484375 C0.12837245 41.66720496 0.12837245 41.66720496 -2.609375 42.63671875 C-3.39828125 43.08660156 -4.1871875 43.53648437 -5 44 C-5.69222656 44.34160156 -6.38445312 44.68320313 -7.09765625 45.03515625 C-8.41066681 45.72168066 -9.72316511 46.40918565 -11.03515625 47.09765625 C-16.71092158 49.70422045 -23.43409828 49.98606929 -29.4296875 48.328125 C-31.31259563 47.61784649 -33.16102638 46.81732161 -35 46 C-33.515 45.505 -33.515 45.505 -32 45 C-31.34 45.33 -30.68 45.66 -30 46 C-20.48517952 46.77808111 -11.95599287 47.00109177 -4 41 C1.76301949 35.93739013 4.53744323 30.30177793 5.3515625 22.73046875 C5.65344383 15.39793006 4.8668775 10.22109446 1.09375 3.890625 C0 2 0 2 0 0 Z " fill="#69518F" transform="translate(182,86)"/>
<path d="M0 0 C4.39333304 1.19818174 7.18461404 2.3504256 10 6 C10.875 8.5625 10.875 8.5625 11 11 C10.34 11.99 9.68 12.98 9 14 C6.00896341 14.33364969 3.18436374 14.51298455 0.1875 14.5625 C-7.12798698 14.65547077 -7.12798698 14.65547077 -14 17 C-13.154375 17.70125 -12.30875 18.4025 -11.4375 19.125 C-9 22 -9 22 -8.6875 24.9375 C-10.13194891 28.30788079 -11.17237579 29.10562133 -14.08203125 31.19140625 C-15.17801636 31.98526733 -15.17801636 31.98526733 -16.29614258 32.79516602 C-16.85841553 33.19276123 -17.42068848 33.59035645 -18 34 C-17.4652002 34.41362793 -16.93040039 34.82725586 -16.37939453 35.25341797 C-13.96013836 37.12583076 -11.54255242 39.00038803 -9.125 40.875 C-8.28324219 41.52597656 -7.44148438 42.17695313 -6.57421875 42.84765625 C-5.76855469 43.47285156 -4.96289062 44.09804687 -4.1328125 44.7421875 C-3.01737061 45.60626221 -3.01737061 45.60626221 -1.87939453 46.48779297 C0.6658904 48.53579178 1.86979569 49.5593085 2.8125 52.75 C3.04308731 56.74684668 2.13085253 58.65151745 0 62 C-3.84079453 64.56052969 -5.42743844 64.58658113 -10 64 C-13.19943795 62.3332313 -16.00687447 60.24079189 -18.875 58.0625 C-19.64585937 57.49853516 -20.41671875 56.93457031 -21.2109375 56.35351562 C-26.62881541 52.37118459 -26.62881541 52.37118459 -28 51 C-28.03738281 51.66386719 -28.07476562 52.32773438 -28.11328125 53.01171875 C-28.4899103 58.07036379 -28.81205295 61.84180819 -32 66 C-33.32 65.67 -34.64 65.34 -36 65 C-35.35546875 64.48953125 -34.7109375 63.9790625 -34.046875 63.453125 C-31.32143762 60.18676112 -31.40576117 57.95555161 -31.25 53.75 C-31.19328125 52.48671875 -31.1365625 51.2234375 -31.078125 49.921875 C-31.05234375 48.95765625 -31.0265625 47.9934375 -31 47 C-28.11889032 48.34955769 -25.66605912 49.89502664 -23.13671875 51.8203125 C-22.41419922 52.35527344 -21.69167969 52.89023438 -20.94726562 53.44140625 C-19.44451044 54.56100432 -17.9496038 55.6912171 -16.46289062 56.83203125 C-11.88134273 60.18993592 -8.9036901 61.90653109 -3 61 C-0.63394002 58.93923809 -0.08736993 57.68999843 0.3046875 54.59375 C-0.09761718 51.1690025 -1.18951988 50.36948871 -3.8125 48.1875 C-4.6271875 47.50945312 -5.441875 46.83140625 -6.28125 46.1328125 C-14.36410529 39.05305916 -14.36410529 39.05305916 -24 35 C-23.67 34.34 -23.34 33.68 -23 33 C-24.98 33.99 -26.96 34.98 -29 36 C-29.99 34.35 -30.98 32.7 -32 31 C-31.2575 31.185625 -30.515 31.37125 -29.75 31.5625 C-26.93389786 32.01051625 -25.67164983 31.80959086 -23 31 C-22.030625 30.896875 -21.06125 30.79375 -20.0625 30.6875 C-16.48324045 29.88399276 -14.68257463 28.44587687 -12 26 C-12.27617533 24.05925139 -12.27617533 24.05925139 -13 22 C-13.99 21.34 -14.98 20.68 -16 20 C-16.375 17.5 -16.375 17.5 -16 15 C-12.81579155 12.87719437 -11.79462745 12.71980463 -8.11328125 12.5859375 C-6.7065918 12.52792969 -6.7065918 12.52792969 -5.27148438 12.46875 C-3.80678711 12.42234375 -3.80678711 12.42234375 -2.3125 12.375 C-1.32443359 12.33632812 -0.33636719 12.29765625 0.68164062 12.2578125 C3.12090707 12.16354133 5.56016595 12.07793782 8 12 C7.18794621 7.33117905 7.18794621 7.33117905 4 4 C1.90010348 2.82425289 1.90010348 2.82425289 0 2 C0 1.34 0 0.68 0 0 Z " fill="#4A266E" transform="translate(228,96)"/>
<path d="M0 0 C3.16115776 1.36983503 3.9927092 1.9890638 6 5 C6.1953125 7.48046875 6.1953125 7.48046875 6.125 10.1875 C6.10695313 11.08855469 6.08890625 11.98960938 6.0703125 12.91796875 C6.04710937 13.60503906 6.02390625 14.29210937 6 15 C6.61875 14.79375 7.2375 14.5875 7.875 14.375 C8.926875 14.189375 8.926875 14.189375 10 14 C12 16 12 16 12.25 19.3125 C12.01863452 22.72514084 11.4765288 24.95465935 10 28 C10.99 28.66 11.98 29.32 13 30 C12.54663921 34.87362847 11.2910841 37.39042389 8 41 C8.60328125 40.72285156 9.2065625 40.44570312 9.828125 40.16015625 C10.62734375 39.79792969 11.4265625 39.43570313 12.25 39.0625 C13.03890625 38.70285156 13.8278125 38.34320313 14.640625 37.97265625 C18.81409791 36.25213513 22.22980692 35.88368818 26.75 35.9375 C27.73484375 35.94652344 28.7196875 35.95554688 29.734375 35.96484375 C30.85585938 35.98224609 30.85585938 35.98224609 32 36 C32.33 36.66 32.66 37.32 33 38 C31.69289062 38.00386719 31.69289062 38.00386719 30.359375 38.0078125 C22.19737952 38.27281235 16.43753221 39.68322033 9.328125 43.72265625 C7 45 7 45 5 45 C4.6875 42.875 4.6875 42.875 5 40 C6.62126675 37.96302383 8.28859531 35.96185416 10 34 C10.85279338 31.78264561 10.85279338 31.78264561 11 30 C10.01 29.67 9.02 29.34 8 29 C8.66666667 25 9.33333333 21 10 17 C8.515 16.505 8.515 16.505 7 16 C6.505 17.485 6.505 17.485 6 19 C5.67 19 5.34 19 5 19 C5 16.36 5 13.72 5 11 C-35.59 11 -76.18 11 -118 11 C-118 8.69 -118 6.38 -118 4 C-117.67 4 -117.34 4 -117 4 C-117 5.98 -117 7.96 -117 10 C-77.07 10 -37.14 10 4 10 C2.50795955 3.43176561 2.50795955 3.43176561 0 0 Z " fill="#3B1F6C" transform="translate(193,59)"/>
<path d="M0 0 C0.639375 0.804375 1.27875 1.60875 1.9375 2.4375 C3.40603502 4.2750504 3.40603502 4.2750504 5 6 C6.47972808 6.10779855 7.96452972 6.14681856 9.44813538 6.15821838 C10.4087236 6.1680072 11.36931183 6.17779602 12.35900879 6.18788147 C13.95259216 6.19651466 13.95259216 6.19651466 15.57836914 6.20532227 C17.24644875 6.22017166 17.24644875 6.22017166 18.94822693 6.23532104 C22.64384798 6.26704523 26.33948191 6.29173647 30.03515625 6.31640625 C32.58963872 6.33696636 35.14411771 6.35796256 37.69859314 6.37937927 C43.74758491 6.42903567 49.7965943 6.47427559 55.84563488 6.51740164 C62.73068575 6.56673247 69.61568831 6.62166595 76.50069249 6.67708123 C90.66708325 6.79097603 104.83352039 6.89779866 119 7 C118.67 7.66 118.34 8.32 118 9 C103.35304923 9.09347405 88.70613798 9.16399415 74.05894947 9.20724869 C67.25786679 9.2278671 60.45696952 9.25597354 53.65600586 9.30175781 C47.09432578 9.34591013 40.53278787 9.36912925 33.97095299 9.37950897 C31.46586764 9.38690727 28.960793 9.40135413 26.45578957 9.42292023 C22.950518 9.45190123 19.44604567 9.45595807 15.94067383 9.45410156 C14.90201675 9.46848267 13.86335968 9.48286377 12.79322815 9.49768066 C8.35274492 9.4721848 5.72529809 9.42554029 1.83573914 7.14349365 C0 5 0 5 -0.3125 2.25 C-0.209375 1.5075 -0.10625 0.765 0 0 Z " fill="#593D81" transform="translate(75,155)"/>
<path d="M0 0 C0.91120605 0.01047363 1.82241211 0.02094727 2.76123047 0.03173828 C3.74736328 0.03818359 4.73349609 0.04462891 5.74951172 0.05126953 C7.29832031 0.07640625 7.29832031 0.07640625 8.87841797 0.10205078 C9.91869141 0.11107422 10.95896484 0.12009766 12.03076172 0.12939453 C14.60520889 0.15301331 17.17920009 0.18594929 19.75341797 0.22705078 C19.75341797 3.19705078 19.75341797 6.16705078 19.75341797 9.22705078 C16.31570968 9.28090522 12.87884155 9.32065422 9.44091797 9.35205078 C8.46445313 9.36880859 7.48798828 9.38556641 6.48193359 9.40283203 C5.54414062 9.40927734 4.60634766 9.41572266 3.64013672 9.42236328 C2.77606201 9.43283691 1.9119873 9.44331055 1.02172852 9.45410156 C-1.24658203 9.22705078 -1.24658203 9.22705078 -4.24658203 7.22705078 C-4.55908203 4.72705078 -4.55908203 4.72705078 -4.24658203 2.22705078 C-2.24658203 0.22705078 -2.24658203 0.22705078 0 0 Z " fill="#FBFAFC" transform="translate(111.24658203125,102.77294921875)"/>
<path d="M0 0 C0.99 0 1.98 0 3 0 C3.33 0.66 3.66 1.32 4 2 C4.69996094 2.26039063 5.39992187 2.52078125 6.12109375 2.7890625 C9.95352515 4.40107571 12.84234362 6.77975201 16.0625 9.375 C16.97999023 10.09816406 16.97999023 10.09816406 17.91601562 10.8359375 C24.36250394 15.96525144 24.36250394 15.96525144 27 19 C27.25 21.75 27.25 21.75 27 24 C24.59242002 22.96818001 23.02217506 22.02293972 21.1875 20.125 C18.92317256 17.92536763 16.57325816 16.58066266 13.81640625 15.07421875 C10.88900827 13.34296188 8.4948193 11.31227155 6 9 C6 8.34 6 7.68 6 7 C3.25789019 5.97172423 3.25789019 5.97172423 0 6 C-2.0325737 7.79020719 -3.38242749 9.79830409 -5 12 C-5.66 12 -6.32 12 -7 12 C-6.38024215 8.644238 -5.15537152 6.47736472 -3.125 3.75 C-2.61195313 3.04359375 -2.09890625 2.3371875 -1.5703125 1.609375 C-0.79300781 0.81273437 -0.79300781 0.81273437 0 0 Z " fill="#DD6972" transform="translate(202,129)"/>
<path d="M0 0 C0.33 0 0.66 0 1 0 C1.33 2.31 1.66 4.62 2 7 C2.33 6.34 2.66 5.68 3 5 C4.32 5.33 5.64 5.66 7 6 C6 12 6 12 5 18 C5.66 18.33 6.32 18.66 7 19 C6.62266097 22.30171648 6.30802352 23.70103599 3.875 26.0625 C0.91053298 30.70683166 1.85427299 35.73933795 3 41 C3.66 41.33 4.32 41.66 5 42 C4.01 42.66 3.02 43.32 2 44 C1.27617533 46.05925139 1.27617533 46.05925139 1 48 C3.64 48.33 6.28 48.66 9 49 C5.94736336 49.98120464 4.05263664 49.98120464 1 49 C1 51.64 1 54.28 1 57 C0.67 57 0.34 57 0 57 C0 38.19 0 19.38 0 0 Z " fill="#3C4D7D" transform="translate(197,70)"/>
<path d="M0 0 C6.93 0 13.86 0 21 0 C21 2.97 21 5.94 21 9 C15.72 9 10.44 9 5 9 C5 6.69 5 4.38 5 2 C4.34 2 3.68 2 3 2 C2.67 2.99 2.34 3.98 2 5 C2 4.01 2 3.02 2 2 C1.34 2 0.68 2 0 2 C0 1.34 0 0.68 0 0 Z " fill="#FBFBFC" transform="translate(137,103)"/>
<path d="M0 0 C8.07105514 1.02489589 12.60664168 3.91432653 18 10 C21.74260631 15.89744024 21.71597185 22.20744653 21 29 C20.23918472 31.60601095 19.30782814 33.60231509 18 36 C17.09542445 32.97554128 16.99837618 30.51343319 17.1875 27.375 C17.2472845 19.25626554 14.1399119 12.40088295 8.66015625 6.47265625 C5.99998715 4.11292978 3.17538744 2.58769372 0 1 C0 0.67 0 0.34 0 0 Z " fill="#E5E3F0" transform="translate(162,82)"/>
<path d="M0 0 C0 1.32 0 2.64 0 4 C-1.65 4 -3.3 4 -5 4 C-3.68 4.33 -2.36 4.66 -1 5 C-1 5.66 -1 6.32 -1 7 C-1.61488281 7.19335938 -2.22976562 7.38671875 -2.86328125 7.5859375 C-3.67152344 7.84632812 -4.47976562 8.10671875 -5.3125 8.375 C-6.11300781 8.63023438 -6.91351563 8.88546875 -7.73828125 9.1484375 C-10.22724528 9.98831811 -10.22724528 9.98831811 -13 12 C-14.32 12 -15.64 12 -17 12 C-16.86297357 9.05393171 -16.70124445 6.79840482 -14.703125 4.5234375 C-9.76531419 0.34340953 -6.31995555 -0.11924444 0 0 Z " fill="#7CD9CE" transform="translate(60,106)"/>
<path d="M0 0 C4.39333304 1.19818174 7.18461404 2.3504256 10 6 C10.875 8.5625 10.875 8.5625 11 11 C10.34 11.99 9.68 12.98 9 14 C6.00896341 14.33364969 3.18436374 14.51298455 0.1875 14.5625 C-7.12798698 14.65547077 -7.12798698 14.65547077 -14 17 C-13.154375 17.70125 -12.30875 18.4025 -11.4375 19.125 C-9 22 -9 22 -8.75 25 C-10.47615035 29.14276084 -13.00304243 31.05621642 -17 33 C-19.9375 33.3125 -19.9375 33.3125 -22 33 C-20.1183829 31.1183829 -18.76688905 30.30185209 -16.4375 29.125 C-13.56759599 27.59126359 -13.56759599 27.59126359 -12.0625 24.75 C-12.041875 24.1725 -12.02125 23.595 -12 23 C-12.66 22.608125 -13.32 22.21625 -14 21.8125 C-16 20 -16 20 -16.4375 17.4375 C-16.293125 16.633125 -16.14875 15.82875 -16 15 C-12.81579155 12.87719437 -11.79462745 12.71980463 -8.11328125 12.5859375 C-6.7065918 12.52792969 -6.7065918 12.52792969 -5.27148438 12.46875 C-3.80678711 12.42234375 -3.80678711 12.42234375 -2.3125 12.375 C-1.32443359 12.33632812 -0.33636719 12.29765625 0.68164062 12.2578125 C3.12090707 12.16354133 5.56016595 12.07793782 8 12 C7.18794621 7.33117905 7.18794621 7.33117905 4 4 C1.90010348 2.82425289 1.90010348 2.82425289 0 2 C0 1.34 0 0.68 0 0 Z " fill="#38236C" transform="translate(228,96)"/>
<path d="M0 0 C3.83663072 1.34929464 6.65172569 3.07751025 9.8125 5.625 C10.99779297 6.57246094 10.99779297 6.57246094 12.20703125 7.5390625 C13.09455078 8.26222656 13.09455078 8.26222656 14 9 C13.34 10.32 12.68 11.64 12 13 C7.18497681 13 6.00731581 11.86271681 2.25 9 C1.26515625 8.2575 0.2803125 7.515 -0.734375 6.75 C-1.48203125 6.1725 -2.2296875 5.595 -3 5 C-2.01 3.35 -1.02 1.7 0 0 Z " fill="#CFCDE5" transform="translate(185,121)"/>
<path d="M0 0 C7.24452763 0.68995501 13.10978046 4.19099622 18.9375 8.375 C19.5975 7.055 20.2575 5.735 20.9375 4.375 C20.9375 7.015 20.9375 9.655 20.9375 12.375 C20.21304688 11.89289063 19.48859375 11.41078125 18.7421875 10.9140625 C17.77539062 10.28242187 16.80859375 9.65078125 15.8125 9 C14.86117187 8.37351562 13.90984375 7.74703125 12.9296875 7.1015625 C7.76989304 4.12423985 2.81463983 3.08025678 -3.0625 2.375 C-1.12697097 9.94115895 4.13448594 13.65161646 9.9375 18.375 C9.6075 19.365 9.2775 20.355 8.9375 21.375 C8.2775 21.375 7.6175 21.375 6.9375 21.375 C6.9375 20.055 6.9375 18.735 6.9375 17.375 C6.256875 17.21 5.57625 17.045 4.875 16.875 C0.61459933 14.69947625 -2.52600206 11.43193474 -5.0625 7.375 C-5.38671875 4.73828125 -5.38671875 4.73828125 -5.0625 2.375 C-3.0625 0.375 -3.0625 0.375 0 0 Z " fill="#342871" transform="translate(39.0625,62.625)"/>
<path d="M0 0 C0.33 0 0.66 0 1 0 C1 20.46 1 40.92 1 62 C0.67 62 0.34 62 0 62 C0 59.03 0 56.06 0 53 C-0.66 53 -1.32 53 -2 53 C-1.67 50.69 -1.34 48.38 -1 46 C-2.65 46 -4.3 46 -6 46 C-6 45.67 -6 45.34 -6 45 C-4.35 45 -2.7 45 -1 45 C-1 44.34 -1 43.68 -1 43 C-2.98 42.67 -4.96 42.34 -7 42 C-3.98968256 41.06576355 -3.13349732 40.95550089 0 42 C0 40.68 0 39.36 0 38 C-1.32 37.67 -2.64 37.34 -4 37 C-2.68 37 -1.36 37 0 37 C0 35.68 0 34.36 0 33 C-0.66 32.67 -1.32 32.34 -2 32 C-1.34 32 -0.68 32 0 32 C-0.08378906 30.77925781 -0.16757812 29.55851562 -0.25390625 28.30078125 C-0.86254305 18.7310631 -1.11429393 9.54864184 0 0 Z " fill="#584E88" transform="translate(60,68)"/>
<path d="M0 0 C1.32 0.33 2.64 0.66 4 1 C3.33333333 5 2.66666667 9 2 13 C2.66 13.33 3.32 13.66 4 14 C3.64950425 17.24208567 3.43778819 18.61527704 0.9375 20.8125 C0.298125 21.204375 -0.34125 21.59625 -1 22 C-1.91457003 16.43842552 -2.32086397 12.324335 0 7 C-0.33 7 -0.66 7 -1 7 C-0.67 4.69 -0.34 2.38 0 0 Z " fill="#77CAC6" transform="translate(200,75)"/>
<path d="M0 0 C0 0.66 0 1.32 0 2 C-1.65 2.66 -3.3 3.32 -5 4 C-4.72394243 7.31269079 -4.35228076 8.67362224 -1.875 10.96875 C1.24091223 13.17020973 4.32851347 14.70156154 7.8125 16.25 C8.97394531 16.77078125 10.13539062 17.2915625 11.33203125 17.828125 C12.21246094 18.21484375 13.09289062 18.6015625 14 19 C14 20.32 14 21.64 14 23 C12.02 23.33 10.04 23.66 8 24 C8 23.34 8 22.68 8 22 C9.65 22 11.3 22 13 22 C13 21.34 13 20.68 13 20 C12.07380859 19.77957031 12.07380859 19.77957031 11.12890625 19.5546875 C3.61025761 17.56344722 -3.55894334 14.661585 -8 8 C-7.875 4.9375 -7.875 4.9375 -7 2 C-4.45285085 0.13209062 -3.19131 0 0 0 Z " fill="#38206B" transform="translate(46,82)"/>
<path d="M0 0 C0 0.66 0 1.32 0 2 C-1.10408203 2.02126953 -1.10408203 2.02126953 -2.23046875 2.04296875 C-3.69419922 2.11451172 -3.69419922 2.11451172 -5.1875 2.1875 C-6.63189453 2.23970703 -6.63189453 2.23970703 -8.10546875 2.29296875 C-12.10758796 3.27054443 -13.56383308 4.69377347 -16 8 C-16.70367848 10.7781269 -16.78952304 13.45569806 -16.8125 16.3125 C-16.83763672 17.05306641 -16.86277344 17.79363281 -16.88867188 18.55664062 C-16.94718443 20.37052969 -16.97654349 22.18531903 -17 24 C-17.66 24 -18.32 24 -19 24 C-19.0816082 21.62429457 -19.14077222 19.25144159 -19.1875 16.875 C-19.21263672 16.20984375 -19.23777344 15.5446875 -19.26367188 14.859375 C-19.33331025 10.12396555 -18.47222375 7.02260136 -16 3 C-11.50331852 -1.21563889 -5.77533459 -0.27308938 0 0 Z " fill="#3A186A" transform="translate(67,26)"/>
<path d="M0 0 C0.66 0 1.32 0 2 0 C2.44223108 8.69721116 2.44223108 8.69721116 -1 13 C-2.88535088 15.04246346 -4.32806423 15.92368618 -7.10449219 16.23901367 C-9.65929227 16.29545218 -12.19568106 16.26107344 -14.75 16.1875 C-16.08224609 16.16719727 -16.08224609 16.16719727 -17.44140625 16.14648438 C-19.62822578 16.11121309 -21.81379966 16.06192752 -24 16 C-24 15.34 -24 14.68 -24 14 C-23.44538086 13.9906543 -22.89076172 13.98130859 -22.31933594 13.97167969 C-19.79533519 13.91784278 -17.27316186 13.83422746 -14.75 13.75 C-13.87730469 13.73582031 -13.00460938 13.72164062 -12.10546875 13.70703125 C-6.95673306 13.52751486 -6.95673306 13.52751486 -2.4375 11.25 C-0.8427151 8.75381494 -0.42288766 7.18909015 -0.25 4.25 C-0.19328125 3.45078125 -0.1365625 2.6515625 -0.078125 1.828125 C-0.05234375 1.22484375 -0.0265625 0.6215625 0 0 Z " fill="#3A1A69" transform="translate(206,156)"/>
<path d="M0 0 C0.33 0 0.66 0 1 0 C1 2.97 1 5.94 1 9 C-5.93 9 -12.86 9 -20 9 C-20 8.67 -20 8.34 -20 8 C-17.36 8 -14.72 8 -12 8 C-12.33 6.02 -12.66 4.04 -13 2 C-11.68 2 -10.36 2 -9 2 C-9 2.66 -9 3.32 -9 4 C-8.34 4 -7.68 4 -7 4 C-7 4.99 -7 5.98 -7 7 C-5.35 7.33 -3.7 7.66 -2 8 C-2.33 6.02 -2.66 4.04 -3 2 C-2.34 2.33 -1.68 2.66 -1 3 C-0.67 2.01 -0.34 1.02 0 0 Z " fill="#D3CFE3" transform="translate(130,103)"/>
<path d="M0 0 C1.87907267 0.9496028 3.697652 2.01725864 5.5 3.10546875 C5.5 3.43546875 5.5 3.76546875 5.5 4.10546875 C0.88 4.10546875 -3.74 4.10546875 -8.5 4.10546875 C-8.5 2.78546875 -8.5 1.46546875 -8.5 0.10546875 C-9.6446875 0.66234375 -9.6446875 0.66234375 -10.8125 1.23046875 C-12.1428125 1.66359375 -12.1428125 1.66359375 -13.5 2.10546875 C-14.49 1.44546875 -15.48 0.78546875 -16.5 0.10546875 C-11.22311279 -1.65349365 -5.27750119 -1.8883559 0 0 Z " fill="#F5F4F7" transform="translate(127.5,52.89453125)"/>
<path d="M0 0 C1.65 0 3.3 0 5 0 C4.67 2.31 4.34 4.62 4 7 C4.66 7 5.32 7 6 7 C6.02578125 7.59167969 6.0515625 8.18335937 6.078125 8.79296875 C6.35037694 12.58593333 6.75277266 15.4947963 8.4375 18.9375 C12.22393557 21.98511887 16.26132424 22.39410062 21 23 C20.67 23.99 20.34 24.98 20 26 C20 25.34 20 24.68 20 24 C19.40832031 24.04640625 18.81664063 24.0928125 18.20703125 24.140625 C13.98014382 24.33369653 11.6751608 24.4219755 8 22.125 C4.98199175 18.91836623 4.88234188 17.17733368 4.9375 12.875 C4.94652344 11.96492188 4.95554687 11.05484375 4.96484375 10.1171875 C4.97644531 9.41851562 4.98804688 8.71984375 5 8 C4.01 7.67 3.02 7.34 2 7 C2.33 5.35 2.66 3.7 3 2 C2.01 2 1.02 2 0 2 C0 1.34 0 0.68 0 0 Z " fill="#3A1C69" transform="translate(54,114)"/>
<path d="M0 0 C0.33 0 0.66 0 1 0 C1.13277344 0.77085938 1.26554688 1.54171875 1.40234375 2.3359375 C1.57894531 3.33882813 1.75554687 4.34171875 1.9375 5.375 C2.11152344 6.37273437 2.28554687 7.37046875 2.46484375 8.3984375 C2.87712062 10.96909656 2.87712062 10.96909656 4 13 C3.67 13.66 3.34 14.32 3 15 C1.5258679 19.42239631 2.34600598 23.44855514 3 28 C2.01 28.33 1.02 28.66 0 29 C0 19.43 0 9.86 0 0 Z " fill="#565088" transform="translate(197,70)"/>
<path d="M0 0 C4.875 0.875 4.875 0.875 6 2 C6.25 4.4375 6.25 4.4375 6 7 C3 9 3 9 0 9 C0 6.03 0 3.06 0 0 Z " fill="#F8C791" transform="translate(160,103)"/>
<path d="M0 0 C0.66 0.33 1.32 0.66 2 1 C1.0409375 2.1446875 1.0409375 2.1446875 0.0625 3.3125 C-2.14232781 5.88246713 -2.14232781 5.88246713 -3 9 C-2.236875 8.21625 -1.47375 7.4325 -0.6875 6.625 C2 4 2 4 5 2 C3.7508258 5.45925163 2.32472205 8.14693203 0 11 C-1.32 10.67 -2.64 10.34 -4 10 C-4.68707555 7.50935112 -5 5.62113708 -5 3 C-2.625 1.25 -2.625 1.25 0 0 Z " fill="#6D447E" transform="translate(198,132)"/>
<path d="M0 0 C0 1.32 0 2.64 0 4 C-4.62 4 -9.24 4 -14 4 C-9.70231157 0.77673368 -8.99986228 0.78261468 -4 1 C-2 0 -2 0 0 0 Z " fill="#F3F1F5" transform="translate(119,53)"/>
<path d="M0 0 C1.65 0 3.3 0 5 0 C5.33 1.98 5.66 3.96 6 6 C1.25 7 1.25 7 -1 7 C-0.67 4.69 -0.34 2.38 0 0 Z " fill="#BFBAD9" transform="translate(137,105)"/>
<path d="M0 0 C0 0.66 0 1.32 0 2 C-4.95 3.485 -4.95 3.485 -10 5 C-10 4.34 -10 3.68 -10 3 C-10.66 2.67 -11.32 2.34 -12 2 C-8.09971775 -0.60018816 -4.52565431 -0.15085514 0 0 Z " fill="#71B9BD" transform="translate(59,111)"/>
<path d="M0 0 C0.99 0.33 1.98 0.66 3 1 C2.04956626 2.33897583 1.08940853 3.67105427 0.125 5 C-0.40867188 5.7425 -0.94234375 6.485 -1.4921875 7.25 C-2.23855469 8.11625 -2.23855469 8.11625 -3 9 C-3.66 9 -4.32 9 -5 9 C-4.42647107 5.12867972 -2.51295648 2.91827204 0 0 Z " fill="#F98F8E" transform="translate(200,132)"/>
<path d="M0 0 C0.66 0.33 1.32 0.66 2 1 C1.62671065 6.35048061 0.0042343 8.50912907 -4 12 C-4.66 11.67 -5.32 11.34 -6 11 C-5.195625 10.113125 -4.39125 9.22625 -3.5625 8.3125 C-1.2960841 5.61712968 -0.31582634 3.57936522 0 0 Z " fill="#3F2A72" transform="translate(204,88)"/>
<path d="M0 0 C0.825 0.639375 1.65 1.27875 2.5 1.9375 C6.23191406 4.46413081 9.55723303 4.69360228 14 5 C13.67 5.99 13.34 6.98 13 8 C13 7.34 13 6.68 13 6 C12.09507813 6.05220703 12.09507813 6.05220703 11.171875 6.10546875 C4.63799438 6.32677761 4.63799438 6.32677761 1.4375 4.6875 C0 3 0 3 0 0 Z " fill="#422370" transform="translate(61,132)"/>
<path d="M0 0 C2.31 0 4.62 0 7 0 C7 1.65 7 3.3 7 5 C6.34 5 5.68 5 5 5 C5 4.01 5 3.02 5 2 C4.34 2 3.68 2 3 2 C2.67 2.99 2.34 3.98 2 5 C2 4.01 2 3.02 2 2 C1.34 2 0.68 2 0 2 C0 1.34 0 0.68 0 0 Z " fill="#EDECF5" transform="translate(137,103)"/>
<path d="M0 0 C1.21236328 0.01353516 1.21236328 0.01353516 2.44921875 0.02734375 C3.37154297 0.04474609 3.37154297 0.04474609 4.3125 0.0625 C4.6425 0.7225 4.9725 1.3825 5.3125 2.0625 C3.9925 1.7325 2.6725 1.4025 1.3125 1.0625 C0.9825 2.3825 0.6525 3.7025 0.3125 5.0625 C0.3125 3.7425 0.3125 2.4225 0.3125 1.0625 C-0.8321875 1.619375 -0.8321875 1.619375 -2 2.1875 C-3.3303125 2.620625 -3.3303125 2.620625 -4.6875 3.0625 C-5.6775 2.4025 -6.6675 1.7425 -7.6875 1.0625 C-4.80538698 0.10179566 -2.98899956 -0.04331883 0 0 Z " fill="#E5E1EA" transform="translate(118.6875,51.9375)"/>
<path d="M0 0 C0.33 0 0.66 0 1 0 C1 4.62 1 9.24 1 14 C0.67 14 0.34 14 0 14 C0 11.03 0 8.06 0 5 C-0.66 5 -1.32 5 -2 5 C-1.125 1.125 -1.125 1.125 0 0 Z " fill="#5E5C8F" transform="translate(60,116)"/>
<path d="M0 0 C1.32 0 2.64 0 4 0 C4 0.66 4 1.32 4 2 C4.66 2 5.32 2 6 2 C6 2.99 6 3.98 6 5 C4.35 5 2.7 5 1 5 C0.67 3.35 0.34 1.7 0 0 Z " fill="#ADA9D4" transform="translate(117,105)"/>
<path d="M0 0 C0.99 0 1.98 0 3 0 C3.33 1.32 3.66 2.64 4 4 C3.34 4 2.68 4 2 4 C1.67 4.66 1.34 5.32 1 6 C0.01 4.68 -0.98 3.36 -2 2 C-1.34 1.34 -0.68 0.68 0 0 Z " fill="#E16D74" transform="translate(202,129)"/>
<path d="M0 0 C1.32 0.33 2.64 0.66 4 1 C3.34 2.32 2.68 3.64 2 5 C0.68 4.34 -0.64 3.68 -2 3 C-1.34 2.01 -0.68 1.02 0 0 Z " fill="#A89EC5" transform="translate(143,82)"/>
<path d="M0 0 C0 1.32 0 2.64 0 4 C-1.98 4 -3.96 4 -6 4 C-2.25 0 -2.25 0 0 0 Z " fill="#FDFCFD" transform="translate(119,53)"/>
<path d="M0 0 C1.65 0 3.3 0 5 0 C5 0.66 5 1.32 5 2 C3.35 2 1.7 2 0 2 C0 1.34 0 0.68 0 0 Z " fill="#35176C" transform="translate(176,170)"/>
<path d="M0 0 C0.33 0 0.66 0 1 0 C1 1.65 1 3.3 1 5 C0.34 4.67 -0.32 4.34 -1 4 C-0.67 2.68 -0.34 1.36 0 0 Z " fill="#3A1A6D" transform="translate(49,51)"/>
<path d="M0 0 C0.66 0.33 1.32 0.66 2 1 C1.67 1.66 1.34 2.32 1 3 C0.01 2.67 -0.98 2.34 -2 2 C-1.34 1.34 -0.68 0.68 0 0 Z " fill="#DFDAE4" transform="translate(181,31)"/>
<path d="M0 0 C0.33 1.32 0.66 2.64 1 4 C0.34 4 -0.32 4 -1 4 C-0.67 2.68 -0.34 1.36 0 0 Z " fill="#DFDBE7" transform="translate(178,29)"/>
<path d="M0 0 C1.32 0.33 2.64 0.66 4 1 C2.68 1.33 1.36 1.66 0 2 C0 1.34 0 0.68 0 0 Z " fill="#D9D5E1" transform="translate(181,35)"/>
</svg>
