<?xml version="1.0" encoding="UTF-8"?>
<svg version="1.1" xmlns="http://www.w3.org/2000/svg" width="353" height="214">
<path d="M0 0 C9.67088036 8.18117404 11.76563764 20.4314724 13.56884766 32.29516602 C14.37380403 39.32510691 14.37380403 39.32510691 18 45 C21.60368325 45.65405495 25.15900495 45.60737163 28.8125 45.5625 C41.30896623 45.45625143 41.30896623 45.45625143 46 50 C49.23061708 55.47918075 49.3840712 60.18250376 49.1875 66.4375 C49.17396484 67.26443359 49.16042969 68.09136719 49.14648438 68.94335938 C49.11146992 70.9625264 49.05767562 72.98135318 49 75 C53.00312271 74.49362208 54.78204806 73.64342739 57.4375 70.625 C60.37671377 67.52639286 62.88767134 65.43037518 67 64 C69.875 64.3125 69.875 64.3125 72 65 C72.64165788 70.26159459 71.20577001 72.68592849 68.09375 76.6796875 C67.55234375 77.33324219 67.55234375 77.33324219 67 78 C68.65 78.66 70.3 79.32 72 80 C72.39305392 84.00914999 72.59084374 86.21220835 70.125 89.5 C64.00196528 94.77068046 57.08304722 99.15051782 50 103 C50 103.99 50 104.98 50 106 C50.52207031 105.63648438 51.04414063 105.27296875 51.58203125 104.8984375 C58.23910143 100.35157696 65.14878177 95.88971873 72.6875 92.953125 C75.1523041 92.08576098 75.1523041 92.08576098 77.25 90 C80.82436734 87.40046011 84.56907122 86.22633428 89 86 C92.48015431 89.48015431 92.18114816 93.36274769 92.25 98.125 C92.17377232 106.61485816 90.63009386 114.37636017 85 121 C83.35008418 121.70710678 81.68437744 122.37943989 80 123 C79.71125 123.61875 79.4225 124.2375 79.125 124.875 C77.36120721 128.2066086 74.4209033 129.59052911 71 131 C68.0625 131.25 68.0625 131.25 66 131 C65.67 131.66 65.34 132.32 65 133 C63.07421875 133.44921875 63.07421875 133.44921875 60.6875 133.6875 C59.90761719 133.77386719 59.12773437 133.86023438 58.32421875 133.94921875 C56.00712895 133.99984424 54.20712606 133.67173402 52 133 C51.67 134.65 51.34 136.3 51 138 C50.34 138 49.68 138 49 138 C49 138.66 49 139.32 49 140 C49.99902344 139.98839844 50.99804688 139.97679687 52.02734375 139.96484375 C53.31769531 139.95582031 54.60804688 139.94679687 55.9375 139.9375 C57.22527344 139.92589844 58.51304687 139.91429687 59.83984375 139.90234375 C63 140 63 140 64 141 C64.1875 143.9375 64.1875 143.9375 64 147 C63.34 147.66 62.68 148.32 62 149 C75.365 149.495 75.365 149.495 89 150 C89 150.99 89 151.98 89 153 C15.41 153 -58.18 153 -134 153 C-134 152.01 -134 151.02 -134 150 C-118.655 149.505 -118.655 149.505 -103 149 C-103.66 148.01 -104.32 147.02 -105 146 C-105.125 143.3125 -105.125 143.3125 -105 141 C-101.99686252 139.49843126 -99.20932478 139.90718796 -95.875 139.9375 C-94.59367187 139.94652344 -93.31234375 139.95554688 -91.9921875 139.96484375 C-90.51105469 139.98224609 -90.51105469 139.98224609 -89 140 C-89.33 139.34 -89.66 138.68 -90 138 C-91.65 138.33 -93.3 138.66 -95 139 C-94.49047288 134.54163771 -92.80244599 132.41548105 -90 129 C-89.22166466 126.81785432 -89.22166466 126.81785432 -89 125 C-89.556875 125.556875 -90.11375 126.11375 -90.6875 126.6875 C-91.8321875 127.8321875 -91.8321875 127.8321875 -93 129 C-93.804375 129.86625 -94.60875 130.7325 -95.4375 131.625 C-97.94192879 133.9461779 -99.77761556 134.9872506 -103 136 C-103.33 135.01 -103.66 134.02 -104 133 C-101.64950384 128.66062248 -99.41393071 126.20696535 -95 124 C-98.50776784 122.39644899 -101.14354879 121.77963136 -105 122 C-105.226875 122.5775 -105.45375 123.155 -105.6875 123.75 C-107.37267277 126.6388676 -109.22687065 128.1512471 -112 130 C-113.32 130 -114.64 130 -116 130 C-115.52634425 125.73709821 -113.07761678 123.78451042 -110 121 C-108.515 120.01 -108.515 120.01 -107 119 C-108.485 118.505 -108.485 118.505 -110 118 C-110.886875 118.61875 -111.77375 119.2375 -112.6875 119.875 C-116.73974467 122.47455319 -119.26129991 122.6731931 -124 123 C-124 121.68 -124 120.36 -124 119 C-122 117.25 -122 117.25 -120 116 C-121.60430194 116 -123.20841359 116.0362035 -124.8125 116.0625 C-127.70491708 116.06769285 -130.23012003 115.92329332 -133 115 C-133 114.01 -133 113.02 -133 112 C-130.03 111.01 -130.03 111.01 -127 110 C-127.83144531 109.52820313 -127.83144531 109.52820313 -128.6796875 109.046875 C-129.40414062 108.61890625 -130.12859375 108.1909375 -130.875 107.75 C-131.59429687 107.33234375 -132.31359375 106.9146875 -133.0546875 106.484375 C-135.20874162 104.84071924 -135.99140585 103.48432665 -137 101 C-136.505 100.505 -136.505 100.505 -136 100 C-129.82678322 100.31389238 -125.55472562 101.44527438 -121 106 C-121.020625 104.906875 -121.04125 103.81375 -121.0625 102.6875 C-121 99 -121 99 -120 96 C-117.30399627 96.9885347 -116.19441351 97.65977636 -114.75 100.1875 C-113.85788908 103.53291594 -113.93368941 106.55184928 -114 110 C-113.505 110.495 -113.505 110.495 -113 111 C-113.01160156 110.37351562 -113.02320312 109.74703125 -113.03515625 109.1015625 C-113.04417969 108.28429687 -113.05320312 107.46703125 -113.0625 106.625 C-113.07410156 105.81289062 -113.08570312 105.00078125 -113.09765625 104.1640625 C-113 102 -113 102 -112 100 C-109 101 -109 101 -108 103 C-107.92934383 105.04055005 -107.91578024 107.08334257 -107.9375 109.125 C-107.94652344 110.22070312 -107.95554687 111.31640625 -107.96484375 112.4453125 C-107.97644531 113.28835937 -107.98804687 114.13140625 -108 115 C-106.515 115.495 -106.515 115.495 -105 116 C-105.495 115.01 -105.495 115.01 -106 114 C-106.0955931 112.33555539 -106.12984645 110.66718037 -106.125 109 C-106.12886719 107.6696875 -106.12886719 107.6696875 -106.1328125 106.3125 C-106 104 -106 104 -105 102 C-102 103 -102 103 -100.8125 105.125 C-99.49079184 109.8018135 -99.51505396 114.35954363 -101 119 C-98.36 119.33 -95.72 119.66 -93 120 C-93.49113281 119.44828125 -93.98226562 118.8965625 -94.48828125 118.328125 C-96.30109424 115.53629931 -96.3172951 114.03814259 -96.1875 110.75 C-96.14689453 109.41195312 -96.14689453 109.41195312 -96.10546875 108.046875 C-96.05326172 107.03367188 -96.05326172 107.03367188 -96 106 C-92.83884224 107.36983503 -92.0072908 107.9890638 -90 111 C-90 108.36 -90 105.72 -90 103 C-91.0725 103.04125 -92.145 103.0825 -93.25 103.125 C-96.65712165 103.01142928 -98.26226767 102.89535315 -101 101 C-101.33 100.34 -101.66 99.68 -102 99 C-102.86625 98.9175 -103.7325 98.835 -104.625 98.75 C-109.21377535 97.73027214 -111.68479043 95.20731814 -115 92 C-114.505 90.515 -114.505 90.515 -114 89 C-115.11375 88.7215625 -115.11375 88.7215625 -116.25 88.4375 C-120.45139168 86.24131799 -122.14204094 82.61338847 -123.59375 78.19140625 C-125.15310343 69.77989401 -124.72004714 60.76776683 -121 53 C-120.67 52.67 -120.34 52.34 -120 52 C-114.25619854 52.11487603 -111.40210619 53.84470941 -107.28515625 57.52734375 C-106 59 -106 59 -106 61 C-105.29488281 61.08121094 -104.58976562 61.16242188 -103.86328125 61.24609375 C-100.29937802 62.18447482 -98.11492136 63.84048138 -95.1875 66.0625 C-94.21167969 66.79597656 -93.23585937 67.52945313 -92.23046875 68.28515625 C-91.49441406 68.85105469 -90.75835937 69.41695313 -90 70 C-89.96261719 68.90300781 -89.92523438 67.80601563 -89.88671875 66.67578125 C-89.82103347 65.22132143 -89.75458701 63.76689584 -89.6875 62.3125 C-89.66494141 61.59126953 -89.64238281 60.87003906 -89.61914062 60.12695312 C-89.39525728 55.66963929 -88.91826357 52.57535602 -86 49 C-82.36708878 46.40612485 -79.96192908 45.63780391 -75.51953125 45.7421875 C-74.44936768 45.75701172 -73.3792041 45.77183594 -72.27661133 45.78710938 C-71.13345459 45.81611328 -69.99029785 45.84511719 -68.8125 45.875 C-66.3958894 45.90803863 -63.97921346 45.93655704 -61.5625 45.9609375 C-60.32113281 45.97350586 -59.07976562 45.98607422 -57.80078125 45.99902344 C-51.6313607 46.00060859 -45.47555948 45.76218469 -39.3125 45.5 C-38.17852783 45.45214355 -37.04455566 45.40428711 -35.8762207 45.35498047 C-33.25058782 45.24099127 -30.62522084 45.12306234 -28 45 C-25.18705842 40.10454918 -24.33644849 35.85983226 -23.625 30.375 C-21.88715936 18.65262674 -18.21568356 7.0265631 -9 -1 C-5.05627547 -2.31457484 -3.74701691 -1.76330208 0 0 Z " fill="#5A3779" transform="translate(196,45)"/>
<path d="M0 0 C1.02673828 0.01353516 2.05347656 0.02707031 3.11132812 0.04101562 C5.63725909 0.07626117 8.1621066 0.125533 10.6875 0.1875 C10.3575 0.8475 10.0275 1.5075 9.6875 2.1875 C9.07753174 2.19160889 8.46756348 2.19571777 7.83911133 2.19995117 C5.05844208 2.23297575 2.27993843 2.30362568 -0.5 2.375 C-1.45970703 2.38080078 -2.41941406 2.38660156 -3.40820312 2.39257812 C-4.33955078 2.42158203 -5.27089844 2.45058594 -6.23046875 2.48046875 C-7.08406982 2.4961792 -7.9376709 2.51188965 -8.81713867 2.52807617 C-12.52371849 3.50757643 -13.93455556 5.20326492 -16.3125 8.1875 C-16.8101024 11.22660078 -17.00475664 13.70630361 -16.97192383 16.74145508 C-16.98243869 17.60441791 -16.99295355 18.46738073 -17.00378704 19.35649395 C-17.0321068 22.1403895 -17.02650506 24.92302401 -17.01953125 27.70703125 C-17.0320596 29.42950182 -17.04681767 31.15195766 -17.06384277 32.87438965 C-17.11124362 39.24944947 -17.115519 45.62477101 -17.125 52 C-17.186875 66.251875 -17.24875 80.50375 -17.3125 95.1875 C24.5975 95.1875 66.5075 95.1875 109.6875 95.1875 C109.6875 68.4575 109.6875 41.7275 109.6875 14.1875 C98.3025 14.6825 98.3025 14.6825 86.6875 15.1875 C86.6875 14.5275 86.6875 13.8675 86.6875 13.1875 C94.2775 13.1875 101.8675 13.1875 109.6875 13.1875 C110.0175 12.5275 110.3475 11.8675 110.6875 11.1875 C110.6875 38.9075 110.6875 66.6275 110.6875 95.1875 C112.6675 95.1875 114.6475 95.1875 116.6875 95.1875 C116.6875 67.1375 116.6875 39.0875 116.6875 10.1875 C117.6775 10.6825 117.6775 10.6825 118.6875 11.1875 C118.6875 17.1275 118.6875 23.0675 118.6875 29.1875 C123.87601607 28.2037446 123.87601607 28.2037446 127.125 24.8125 C130.06421377 21.71389286 132.57517134 19.61787518 136.6875 18.1875 C139.5625 18.5 139.5625 18.5 141.6875 19.1875 C142.32915788 24.44909459 140.89327001 26.87342849 137.78125 30.8671875 C137.23984375 31.52074219 137.23984375 31.52074219 136.6875 32.1875 C138.3375 32.8475 139.9875 33.5075 141.6875 34.1875 C142.08055392 38.19664999 142.27834374 40.39970835 139.8125 43.6875 C133.68946528 48.95818046 126.77054722 53.33801782 119.6875 57.1875 C119.6875 58.1775 119.6875 59.1675 119.6875 60.1875 C120.20957031 59.82398438 120.73164063 59.46046875 121.26953125 59.0859375 C127.92660143 54.53907696 134.83628177 50.07721873 142.375 47.140625 C144.8398041 46.27326098 144.8398041 46.27326098 146.9375 44.1875 C150.51186734 41.58796011 154.25657122 40.41383428 158.6875 40.1875 C162.16765431 43.66765431 161.86864816 47.55024769 161.9375 52.3125 C161.86127232 60.80235816 160.31759386 68.56386017 154.6875 75.1875 C153.03758418 75.89460678 151.37187744 76.56693989 149.6875 77.1875 C149.39875 77.80625 149.11 78.425 148.8125 79.0625 C147.04870721 82.3941086 144.1084033 83.77802911 140.6875 85.1875 C137.75 85.4375 137.75 85.4375 135.6875 85.1875 C135.3575 85.8475 135.0275 86.5075 134.6875 87.1875 C132.76171875 87.63671875 132.76171875 87.63671875 130.375 87.875 C129.59511719 87.96136719 128.81523437 88.04773438 128.01171875 88.13671875 C125.69462895 88.18734424 123.89462606 87.85923402 121.6875 87.1875 C121.3575 88.8375 121.0275 90.4875 120.6875 92.1875 C120.0275 92.1875 119.3675 92.1875 118.6875 92.1875 C118.6875 92.8475 118.6875 93.5075 118.6875 94.1875 C119.68652344 94.17589844 120.68554688 94.16429687 121.71484375 94.15234375 C123.00519531 94.14332031 124.29554688 94.13429688 125.625 94.125 C126.91277344 94.11339844 128.20054687 94.10179687 129.52734375 94.08984375 C132.6875 94.1875 132.6875 94.1875 133.6875 95.1875 C133.875 98.125 133.875 98.125 133.6875 101.1875 C133.0275 101.8475 132.3675 102.5075 131.6875 103.1875 C145.0525 103.6825 145.0525 103.6825 158.6875 104.1875 C158.6875 105.1775 158.6875 106.1675 158.6875 107.1875 C85.0975 107.1875 11.5075 107.1875 -64.3125 107.1875 C-64.3125 106.1975 -64.3125 105.2075 -64.3125 104.1875 C-48.9675 103.6925 -48.9675 103.6925 -33.3125 103.1875 C-33.9725 102.1975 -34.6325 101.2075 -35.3125 100.1875 C-35.4375 97.5 -35.4375 97.5 -35.3125 95.1875 C-32.30936252 93.68593126 -29.52182478 94.09468796 -26.1875 94.125 C-24.90617187 94.13402344 -23.62484375 94.14304687 -22.3046875 94.15234375 C-21.31726563 94.16394531 -20.32984375 94.17554688 -19.3125 94.1875 C-19.6425 93.5275 -19.9725 92.8675 -20.3125 92.1875 C-22.7875 92.6825 -22.7875 92.6825 -25.3125 93.1875 C-24.80297288 88.72913771 -23.11494599 86.60298105 -20.3125 83.1875 C-19.53416466 81.00535432 -19.53416466 81.00535432 -19.3125 79.1875 C-19.869375 79.744375 -20.42625 80.30125 -21 80.875 C-22.1446875 82.0196875 -22.1446875 82.0196875 -23.3125 83.1875 C-24.116875 84.05375 -24.92125 84.92 -25.75 85.8125 C-28.25442879 88.1336779 -30.09011556 89.1747506 -33.3125 90.1875 C-33.6425 89.1975 -33.9725 88.2075 -34.3125 87.1875 C-31.96200384 82.84812248 -29.72643071 80.39446535 -25.3125 78.1875 C-28.82026784 76.58394899 -31.45604879 75.96713136 -35.3125 76.1875 C-35.539375 76.765 -35.76625 77.3425 -36 77.9375 C-37.68517277 80.8263676 -39.53937065 82.3387471 -42.3125 84.1875 C-43.6325 84.1875 -44.9525 84.1875 -46.3125 84.1875 C-45.83884425 79.92459821 -43.39011678 77.97201042 -40.3125 75.1875 C-38.8275 74.1975 -38.8275 74.1975 -37.3125 73.1875 C-38.7975 72.6925 -38.7975 72.6925 -40.3125 72.1875 C-41.199375 72.80625 -42.08625 73.425 -43 74.0625 C-47.05224467 76.66205319 -49.57379991 76.8606931 -54.3125 77.1875 C-54.3125 75.8675 -54.3125 74.5475 -54.3125 73.1875 C-52.3125 71.4375 -52.3125 71.4375 -50.3125 70.1875 C-51.91680194 70.1875 -53.52091359 70.2237035 -55.125 70.25 C-58.01741708 70.25519285 -60.54262003 70.11079332 -63.3125 69.1875 C-63.3125 68.1975 -63.3125 67.2075 -63.3125 66.1875 C-60.3425 65.1975 -60.3425 65.1975 -57.3125 64.1875 C-58.14394531 63.71570313 -58.14394531 63.71570313 -58.9921875 63.234375 C-59.71664062 62.80640625 -60.44109375 62.3784375 -61.1875 61.9375 C-61.90679687 61.51984375 -62.62609375 61.1021875 -63.3671875 60.671875 C-65.52124162 59.02821924 -66.30390585 57.67182665 -67.3125 55.1875 C-66.8175 54.6925 -66.8175 54.6925 -66.3125 54.1875 C-60.13928322 54.50139238 -55.86722562 55.63277438 -51.3125 60.1875 C-51.333125 59.094375 -51.35375 58.00125 -51.375 56.875 C-51.3125 53.1875 -51.3125 53.1875 -50.3125 50.1875 C-47.61649627 51.1760347 -46.50691351 51.84727636 -45.0625 54.375 C-44.17038908 57.72041594 -44.24618941 60.73934928 -44.3125 64.1875 C-43.8175 64.6825 -43.8175 64.6825 -43.3125 65.1875 C-43.32410156 64.56101562 -43.33570312 63.93453125 -43.34765625 63.2890625 C-43.35667969 62.47179687 -43.36570312 61.65453125 -43.375 60.8125 C-43.38660156 60.00039062 -43.39820312 59.18828125 -43.41015625 58.3515625 C-43.3125 56.1875 -43.3125 56.1875 -42.3125 54.1875 C-39.3125 55.1875 -39.3125 55.1875 -38.3125 57.1875 C-38.24184383 59.22805005 -38.22828024 61.27084257 -38.25 63.3125 C-38.25902344 64.40820312 -38.26804687 65.50390625 -38.27734375 66.6328125 C-38.28894531 67.47585937 -38.30054687 68.31890625 -38.3125 69.1875 C-36.8275 69.6825 -36.8275 69.6825 -35.3125 70.1875 C-35.8075 69.1975 -35.8075 69.1975 -36.3125 68.1875 C-36.4080931 66.52305539 -36.44234645 64.85468037 -36.4375 63.1875 C-36.44136719 61.8571875 -36.44136719 61.8571875 -36.4453125 60.5 C-36.3125 58.1875 -36.3125 58.1875 -35.3125 56.1875 C-32.3125 57.1875 -32.3125 57.1875 -31.125 59.3125 C-29.80329184 63.9893135 -29.82755396 68.54704363 -31.3125 73.1875 C-28.6725 73.5175 -26.0325 73.8475 -23.3125 74.1875 C-23.80363281 73.63578125 -24.29476562 73.0840625 -24.80078125 72.515625 C-26.61359424 69.72379931 -26.6297951 68.22564259 -26.5 64.9375 C-26.45939453 63.59945312 -26.45939453 63.59945312 -26.41796875 62.234375 C-26.38316406 61.55890625 -26.34835938 60.8834375 -26.3125 60.1875 C-23.15134224 61.55733503 -22.3197908 62.1765638 -20.3125 65.1875 C-20.3125 62.5475 -20.3125 59.9075 -20.3125 57.1875 C-21.385 57.22875 -22.4575 57.27 -23.5625 57.3125 C-26.96962165 57.19892928 -28.57476767 57.08285315 -31.3125 55.1875 C-31.6425 54.5275 -31.9725 53.8675 -32.3125 53.1875 C-33.17875 53.105 -34.045 53.0225 -34.9375 52.9375 C-39.52627535 51.91777214 -41.99729043 49.39481814 -45.3125 46.1875 C-44.9825 45.1975 -44.6525 44.2075 -44.3125 43.1875 C-45.42625 42.9090625 -45.42625 42.9090625 -46.5625 42.625 C-50.76389168 40.42881799 -52.45454094 36.80088847 -53.90625 32.37890625 C-55.46560343 23.96739401 -55.03254714 14.95526683 -51.3125 7.1875 C-50.9825 6.8575 -50.6525 6.5275 -50.3125 6.1875 C-44.56869854 6.30237603 -41.71460619 8.03220941 -37.59765625 11.71484375 C-36.3125 13.1875 -36.3125 13.1875 -36.3125 15.1875 C-35.60738281 15.26871094 -34.90226562 15.34992188 -34.17578125 15.43359375 C-30.61187802 16.37197482 -28.42742136 18.02798138 -25.5 20.25 C-24.52417969 20.98347656 -23.54835937 21.71695313 -22.54296875 22.47265625 C-21.80691406 23.03855469 -21.07085937 23.60445312 -20.3125 24.1875 C-20.27511719 23.09050781 -20.23773438 21.99351563 -20.19921875 20.86328125 C-20.13353347 19.40882143 -20.06708701 17.95439584 -20 16.5 C-19.97744141 15.77876953 -19.95488281 15.05753906 -19.93164062 14.31445312 C-19.65114056 8.72995178 -18.60179353 5.26908643 -14.33203125 1.38671875 C-9.61965634 -0.48481954 -5.01553825 -0.12514779 0 0 Z " fill="#433175" transform="translate(126.3125,90.8125)"/>
<path d="M0 0 C5.875 4.75 5.875 4.75 7 7 C11.01409454 5.62373901 13.72309126 3.65695303 17 1 C17.66 1 18.32 1 19 1 C21.45947369 8.72977447 23.20868444 16.8613069 23 25 C23.99 24.505 23.99 24.505 25 24 C28.85230471 23.63657503 31.3114353 23.66336837 34.8125 25.375 C37.5991853 28.71902236 37.82776945 31.44348575 38.46484375 35.66796875 C39.16269116 38.70895345 40.72479617 39.95231655 43 42 C43.25 44.75 43.25 44.75 43 47 C43.886875 47.0825 44.77375 47.165 45.6875 47.25 C49.44700715 48.10120916 51.22084432 49.37965322 54 52 C55 54 55 54 55 64 C15.4 64 -24.2 64 -65 64 C-65 45 -65 45 -61 40 C-56.26324128 36.59148702 -51.83962432 35.37432597 -46 36 C-43.28941673 36.56410728 -40.66926474 37.25073271 -38 38 C-37.731875 37.21625 -37.46375 36.4325 -37.1875 35.625 C-36 33 -36 33 -33 31 C-29.03952054 30.66293792 -26.40322874 30.90570539 -23 33 C-22.9175 32.2575 -22.835 31.515 -22.75 30.75 C-21.81602546 27.32542668 -20.85448107 26.10330184 -18 24 C-14.39462669 23.09865667 -12.06579842 22.59007753 -8.5625 23.9375 C-7.7890625 24.4634375 -7.7890625 24.4634375 -7 25 C-7 25.66 -7 26.32 -7 27 C-6.34 26.67 -5.68 26.34 -5 26 C-4.35650514 23.49957049 -4.35650514 23.49957049 -3.96484375 20.46875 C-3.71057617 18.78845703 -3.71057617 18.78845703 -3.45117188 17.07421875 C-3.1969043 15.30498047 -3.1969043 15.30498047 -2.9375 13.5 C-2.59596749 11.17656325 -2.25109915 8.85361355 -1.90234375 6.53125 C-1.75273193 5.49548828 -1.60312012 4.45972656 -1.44897461 3.39257812 C-1 1 -1 1 0 0 Z " fill="#FEFEFE" transform="translate(181,122)"/>
<path d="M0 0 C8.37375 -0.061875 16.7475 -0.12375 25.375 -0.1875 C28.01935059 -0.21481201 30.66370117 -0.24212402 33.38818359 -0.27026367 C35.47493024 -0.27902223 37.56168199 -0.28666765 39.6484375 -0.29296875 C40.73938721 -0.30831665 41.83033691 -0.32366455 42.9543457 -0.33947754 C44.50714233 -0.34002136 44.50714233 -0.34002136 46.09130859 -0.34057617 C46.99287689 -0.34723801 47.89444519 -0.35389984 48.82333374 -0.36076355 C49.54163361 -0.24171158 50.25993347 -0.12265961 51 0 C51.66 0.99 52.32 1.98 53 3 C57.64586892 2.51515724 57.64586892 2.51515724 62 1 C62.28875 1.639375 62.5775 2.27875 62.875 2.9375 C63.82823451 5.15206079 63.82823451 5.15206079 66 6 C64.82782889 18.43880405 63.20401206 30.70161273 61 43 C60.01 43.33 59.02 43.66 58 44 C58 43.34 58 42.68 58 42 C53.91498902 41.34141435 50.16596671 40.80153758 46.0625 41.5 C42.97366183 43.74642776 42.73902718 46.37204841 42 50 C41.32453125 49.88140625 40.6490625 49.7628125 39.953125 49.640625 C34.37748023 48.63650659 34.37748023 48.63650659 29.4375 50.8125 C27.99043407 52.92124788 27.99043407 52.92124788 27 55 C26.01 54.88140625 25.02 54.7628125 24 54.640625 C13.37214852 53.47533478 13.37214852 53.47533478 4 58 C2.68 59.32 1.36 60.64 0 62 C0 41.54 0 21.08 0 0 Z " fill="#8DCDFD" transform="translate(116,105)"/>
<path d="M0 0 C0.99 0.495 0.99 0.495 2 1 C2 6.94 2 12.88 2 19 C7.18851607 18.0162446 7.18851607 18.0162446 10.4375 14.625 C13.37671377 11.52639286 15.88767134 9.43037518 20 8 C22.875 8.3125 22.875 8.3125 25 9 C25.64165788 14.26159459 24.20577001 16.68592849 21.09375 20.6796875 C20.7328125 21.11539063 20.371875 21.55109375 20 22 C21.65 22.66 23.3 23.32 25 24 C25.39305392 28.00914999 25.59084374 30.21220835 23.125 33.5 C17.00196528 38.77068046 10.08304722 43.15051782 3 47 C3 47.99 3 48.98 3 50 C3.52207031 49.63648438 4.04414063 49.27296875 4.58203125 48.8984375 C11.23910143 44.35157696 18.14878177 39.88971873 25.6875 36.953125 C28.1523041 36.08576098 28.1523041 36.08576098 30.25 34 C33.82436734 31.40046011 37.56907122 30.22633428 42 30 C45.48015431 33.48015431 45.18114816 37.36274769 45.25 42.125 C45.17377232 50.61485816 43.63009386 58.37636017 38 65 C36.35008418 65.70710678 34.68437744 66.37943989 33 67 C32.71125 67.61875 32.4225 68.2375 32.125 68.875 C30.36120721 72.2066086 27.4209033 73.59052911 24 75 C21.0625 75.25 21.0625 75.25 19 75 C18.67 75.66 18.34 76.32 18 77 C16.07421875 77.44921875 16.07421875 77.44921875 13.6875 77.6875 C12.90761719 77.77386719 12.12773437 77.86023438 11.32421875 77.94921875 C9.00712895 77.99984424 7.20712606 77.67173402 5 77 C4.67 77.99 4.34 78.98 4 80 C2.515 80.495 2.515 80.495 1 81 C0.19885741 76.08206138 -0.12207043 71.41120048 -0.11352539 66.41235352 C-0.11367142 65.68956711 -0.11381744 64.9667807 -0.1139679 64.22209167 C-0.11327699 61.85766489 -0.10552352 59.4933191 -0.09765625 57.12890625 C-0.09578914 55.47981306 -0.09436662 53.83071931 -0.09336853 52.18162537 C-0.0895664 47.85965419 -0.07975597 43.53771708 -0.06866455 39.21575928 C-0.05840071 34.79814108 -0.05386029 30.38051733 -0.04882812 25.96289062 C-0.03813147 17.30857819 -0.02108296 8.65429334 0 0 Z " fill="#39216B" transform="translate(243,101)"/>
<path d="M0 0 C7.26 0 14.52 0 22 0 C22 23.43 22 46.86 22 71 C20.02 69.35 18.04 67.7 16 66 C14.39125 65.5359375 14.39125 65.5359375 12.75 65.0625 C11.8425 64.711875 10.935 64.36125 10 64 C8.8125 61.0625 8.8125 61.0625 8 58 C7.50757813 57.54496094 7.01515625 57.08992188 6.5078125 56.62109375 C4.0529635 53.98181309 4.17206691 50.84630993 3.72265625 47.375 C3.14993653 44.94288337 3.14993653 44.94288337 1.49609375 43.1875 C-2.26615442 41.39763546 -5.9031291 41.76364206 -10 42 C-10.11069824 41.27820557 -10.22139648 40.55641113 -10.33544922 39.81274414 C-10.83940512 36.56115353 -11.35700905 33.31188296 -11.875 30.0625 C-12.13603516 28.35803711 -12.13603516 28.35803711 -12.40234375 26.61914062 C-12.66337891 24.99975586 -12.66337891 24.99975586 -12.9296875 23.34765625 C-13.08679199 22.34742432 -13.24389648 21.34719238 -13.40576172 20.31665039 C-13.60186035 19.55215576 -13.79795898 18.78766113 -14 18 C-14.66 17.67 -15.32 17.34 -16 17 C-15.67 16.67 -15.34 16.34 -15 16 C-14.92794489 14.31391034 -14.91613932 12.62499341 -14.9375 10.9375 C-14.94652344 10.01839844 -14.95554688 9.09929687 -14.96484375 8.15234375 C-14.97644531 7.44207031 -14.98804688 6.73179688 -15 6 C-14.01 6 -13.02 6 -12 6 C-11.34 4.35 -10.68 2.7 -10 1 C-9.1646875 1.495 -9.1646875 1.495 -8.3125 2 C-5.69715478 3.1309601 -3.8193354 3.15662974 -1 3 C-0.67 2.01 -0.34 1.02 0 0 Z " fill="#8CCDFD" transform="translate(214,105)"/>
<path d="M0 0 C54.45 0 108.9 0 165 0 C164 5 164 5 161.83321285 7.28075409 C158.48038799 9.31531017 156.56941616 9.50262754 152.66859436 9.50793457 C151.39144058 9.51921387 150.1142868 9.53049316 148.7984314 9.54211426 C147.39043962 9.53433766 145.98245008 9.52614502 144.57446289 9.51757812 C143.08593562 9.52300059 141.59741373 9.53012395 140.10890198 9.53881836 C136.07159982 9.55704171 132.0347069 9.54998804 127.99739766 9.53730202 C123.76944844 9.52716727 119.54153399 9.53656919 115.31358337 9.54284668 C108.21265379 9.55012251 101.11189064 9.54053796 94.01098633 9.52148438 C85.80670384 9.49972406 77.6028191 9.50676101 69.39854628 9.52879 C62.35039243 9.54695589 55.30235818 9.54949628 48.25418848 9.53903532 C44.04650413 9.53280582 39.83900658 9.53194955 35.6313343 9.54518127 C31.67410022 9.55675625 27.71737757 9.54868445 23.76019859 9.52560425 C22.30980909 9.52032552 20.85937639 9.52181668 19.40900421 9.53065491 C17.42548178 9.54162542 15.44186504 9.52541322 13.45838928 9.50793457 C11.79507616 9.50567242 11.79507616 9.50567242 10.09816074 9.50336456 C6.16544746 8.86440853 4.01428571 7.58564519 1 5 C0.67 3.35 0.34 1.7 0 0 Z " fill="#CDCAE3" transform="translate(93,187)"/>
<path d="M0 0 C5.29338776 1.16454531 7.40140068 5.05422327 10.25 9.40625 C17.59841859 22.49562062 19.02128707 37.58045105 15.1875 51.875 C13.37197337 58.19355327 13.37197337 58.19355327 12.125 60.6875 C9.485 60.6875 6.845 60.6875 4.125 60.6875 C4.29 59.924375 4.455 59.16125 4.625 58.375 C5.58343284 51.30655784 6.00887153 44.35645291 3.125 37.6875 C0.75194422 37.26969121 0.75194422 37.26969121 -1.875 37.6875 C-4.86111495 41.50662101 -5.23646433 44.41682678 -5.125 49.1875 C-5.10953125 50.2909375 -5.0940625 51.394375 -5.078125 52.53125 C-4.89687461 55.34760228 -4.51002936 57.94253436 -3.875 60.6875 C-6.515 60.6875 -9.155 60.6875 -11.875 60.6875 C-12.52336042 58.93843469 -13.16858784 57.18820781 -13.8125 55.4375 C-14.17214844 54.46296875 -14.53179687 53.4884375 -14.90234375 52.484375 C-19.46684586 39.35914002 -17.39296427 24.02543151 -11.4140625 11.66796875 C-5.43260781 1.29910187 -5.43260781 1.29910187 0 0 Z " fill="#F9F8FA" transform="translate(190.875,45.3125)"/>
<path d="M0 0 C1.9375 0.375 1.9375 0.375 4 1 C4.33 1.66 4.66 2.32 5 3 C5.95253662 3.01401855 5.95253662 3.01401855 6.92431641 3.02832031 C9.825308 3.08228733 12.72473244 3.16588127 15.625 3.25 C16.62402344 3.26417969 17.62304688 3.27835937 18.65234375 3.29296875 C24.69904013 3.49319048 28.4141521 3.93358471 33 8 C35.57085285 11.85627928 35.22613363 14.9570463 35.13525391 19.41870117 C35.12579239 20.27745346 35.11633087 21.13620575 35.10658264 22.02098083 C35.07288187 24.861859 35.02477288 27.7023028 34.9765625 30.54296875 C34.95039776 32.51165122 34.92513056 34.48034582 34.90072632 36.4490509 C34.83405205 41.63267337 34.75516416 46.81604128 34.67376709 51.99945068 C34.59286981 57.28794579 34.5234755 62.57659031 34.453125 67.86523438 C34.31336748 78.2436687 34.16071196 88.6218705 34 99 C32.02 99 30.04 99 28 99 C27.67 71.94 27.34 44.88 27 17 C19.41 17 11.82 17 4 17 C3.67 18.32 3.34 19.64 3 21 C-1.56537102 20.51943463 -1.56537102 20.51943463 -3.28125 18.46875 C-4.38287227 14.68491699 -3.17084999 11.42671488 -2.125 7.75 C-1.92519531 7.00492187 -1.72539062 6.25984375 -1.51953125 5.4921875 C-1.02571014 3.65799482 -0.51452906 1.82849171 0 0 Z " fill="#A090B6" transform="translate(209,87)"/>
<path d="M0 0 C0.33 0 0.66 0 1 0 C1 27.72 1 55.44 1 84 C2.98 84 4.96 84 7 84 C7 80.37 7 76.74 7 73 C7.33 73 7.66 73 8 73 C8.33 74.98 8.66 76.96 9 79 C9.66 79 10.32 79 11 79 C11.33 77.68 11.66 76.36 12 75 C12 76.65 12 78.3 12 80 C11.01 80.33 10.02 80.66 9 81 C9 81.66 9 82.32 9 83 C9.99902344 82.98839844 10.99804688 82.97679687 12.02734375 82.96484375 C13.31769531 82.95582031 14.60804688 82.94679688 15.9375 82.9375 C17.22527344 82.92589844 18.51304687 82.91429687 19.83984375 82.90234375 C23 83 23 83 24 84 C24.1875 86.9375 24.1875 86.9375 24 90 C23.34 90.66 22.68 91.32 22 92 C35.365 92.495 35.365 92.495 49 93 C49 93.99 49 94.98 49 96 C-24.59 96 -98.18 96 -174 96 C-174 95.01 -174 94.02 -174 93 C-158.655 92.505 -158.655 92.505 -143 92 C-143.66 91.01 -144.32 90.02 -145 89 C-145.125 86.3125 -145.125 86.3125 -145 84 C-141.99686252 82.49843126 -139.20932478 82.90718796 -135.875 82.9375 C-134.59367187 82.94652344 -133.31234375 82.95554687 -131.9921875 82.96484375 C-131.00476563 82.97644531 -130.01734375 82.98804688 -129 83 C-128.505 81.02 -128.505 81.02 -128 79 C-128 80.65 -128 82.3 -128 84 C-85.76 84 -43.52 84 0 84 C0 57.27 0 30.54 0 3 C-11.385 3.495 -11.385 3.495 -23 4 C-23 3.34 -23 2.68 -23 2 C-15.41 2 -7.82 2 0 2 C0 1.34 0 0.68 0 0 Z M-143 85 C-142.53062707 90.0193102 -142.53062707 90.0193102 -139.34072876 92.28033352 C-135.71213183 94.14818241 -133.59650113 94.50440448 -129.54833984 94.5146637 C-127.63054718 94.53375038 -127.63054718 94.53375038 -125.67401123 94.55322266 C-124.26965145 94.54704114 -122.86529349 94.54043518 -121.4609375 94.53344727 C-119.97226101 94.5405096 -118.4835917 94.54925594 -116.99493408 94.55955505 C-112.96183922 94.58202236 -108.92913727 94.57911591 -104.89600372 94.57023358 C-101.5261361 94.56511752 -98.15634191 94.57242115 -94.78648186 94.57970566 C-86.83610468 94.59669577 -78.88591949 94.59314731 -70.93554688 94.57641602 C-62.738567 94.55948866 -54.54211943 94.5753394 -46.34519768 94.6076389 C-39.30126446 94.63434163 -32.25749688 94.64160918 -25.21351814 94.63312382 C-21.00914823 94.62819738 -16.80509868 94.63039483 -12.60076904 94.65091133 C-8.6475456 94.66927989 -4.69508763 94.6632963 -0.74190521 94.63871193 C0.70687733 94.63370797 2.15571832 94.6371832 3.60445404 94.64986038 C12.23733302 95.0072982 12.23733302 95.0072982 19.90869141 91.71055603 C22.40723993 89.04276564 22.40723993 89.04276564 22 85 C-32.45 85 -86.9 85 -143 85 Z " fill="#3B1B69" transform="translate(236,102)"/>
<path d="M0 0 C0 1.65 0 3.3 0 5 C-0.6072139 5.00586624 -1.2144278 5.01173248 -1.84004211 5.01777649 C-8.15042575 5.08162728 -14.46029545 5.16602503 -20.77026367 5.26245117 C-23.12631461 5.2957402 -25.48244606 5.32375961 -27.83862305 5.34643555 C-31.22219207 5.37990803 -34.60502054 5.43222092 -37.98828125 5.48828125 C-39.57277824 5.49786613 -39.57277824 5.49786613 -41.18928528 5.50764465 C-42.17007553 5.52743881 -43.15086578 5.54723297 -44.16137695 5.56762695 C-45.02519485 5.57873001 -45.88901276 5.58983307 -46.77900696 5.60127258 C-49.01040321 5.87248249 -49.01040321 5.87248249 -50.77539062 7.02380371 C-52.72192509 10.16499654 -52.43901688 13.46510125 -52.43237305 17.05151367 C-52.4425647 17.87125168 -52.45275635 18.69098969 -52.46325684 19.53556824 C-52.49346314 22.24643724 -52.50266432 24.95695335 -52.51171875 27.66796875 C-52.52855979 29.54699383 -52.54670925 31.4260076 -52.56611633 33.30500793 C-52.61368491 38.25170357 -52.64344987 43.19835338 -52.66955566 48.14520264 C-52.69932663 53.19259698 -52.74586882 58.23983329 -52.79101562 63.28710938 C-52.87712673 73.19132371 -52.94443725 83.09557049 -53 93 C-54.65 93 -56.3 93 -58 93 C-58.11585255 81.74307318 -58.2046946 70.48628818 -58.25906086 59.2288866 C-58.28515415 54.00157933 -58.32054768 48.77467994 -58.37719727 43.54760742 C-58.43152605 38.50310445 -58.46142255 33.45899377 -58.47438622 28.41422081 C-58.48362451 26.48964957 -58.50166495 24.56509979 -58.52865028 22.64069557 C-58.56495246 19.94464357 -58.56994492 17.25021218 -58.56762695 14.55395508 C-58.58560333 13.75841721 -58.60357971 12.96287933 -58.62210083 12.14323425 C-58.58367734 8.01258286 -58.20791471 6.2498802 -55.52702332 3.02787781 C-54.69310562 2.35867813 -53.85918793 1.68947845 -53 1 C-52.67 0.67 -52.34 0.34 -52 0 C-49.11674934 -0.28144529 -46.26660303 -0.48201011 -43.375 -0.625 C-42.47305908 -0.67003662 -41.57111816 -0.71507324 -40.6418457 -0.76147461 C-27.09787666 -1.30197483 -13.5329626 -0.57992775 0 0 Z " fill="#F9F8FA" transform="translate(167,93)"/>
<path d="M0 0 C0.66 0 1.32 0 2 0 C4.45947369 7.72977447 6.20868444 15.8613069 6 24 C6.99 23.505 6.99 23.505 8 23 C11.85230471 22.63657503 14.3114353 22.66336837 17.8125 24.375 C20.5991853 27.71902236 20.82776945 30.44348575 21.46484375 34.66796875 C22.16269116 37.70895345 23.72479617 38.95231655 26 41 C26.25 43.75 26.25 43.75 26 46 C26.886875 46.0825 27.77375 46.165 28.6875 46.25 C32.44700715 47.10120916 34.22084432 48.37965322 37 51 C38 53 38 53 38 63 C-1.6 63 -41.2 63 -82 63 C-82 62.67 -82 62.34 -82 62 C-45.04 62 -8.08 62 30 62 C26.48808493 53.25157081 26.48808493 53.25157081 19.75390625 49.30859375 C17.06388904 47.30156532 17.00232855 45.10559486 16.45703125 41.9296875 C15.62654251 38.42317951 13.87707455 37.03792781 11 35 C7.69767482 34.03408253 4.4091138 33.44351578 1 33 C1.17273438 32.30777344 1.34546875 31.61554688 1.5234375 30.90234375 C2.05857389 27.64327538 1.90641991 24.8520706 1.625 21.5625 C1.47611328 19.73525391 1.47611328 19.73525391 1.32421875 17.87109375 C1.16373047 15.95490234 1.16373047 15.95490234 1 14 C0.80476808 11.37549798 0.62140695 8.75033834 0.4375 6.125 C0.35371094 4.95195313 0.26992187 3.77890625 0.18359375 2.5703125 C0.12300781 1.72210938 0.06242187 0.87390625 0 0 Z " fill="#CFE0F4" transform="translate(198,123)"/>
<path d="M0 0 C0.66 0.33 1.32 0.66 2 1 C2.35754743 11.05105565 2.24291309 19.11471329 -2.6875 28.0625 C-5.24290621 30.20351601 -5.92471384 30.3113415 -9.125 30.375 C-13 30 -13 30 -15 29 C-15 29.66 -15 30.32 -15 31 C-13.68 31.66 -12.36 32.32 -11 33 C-11.945795 35.36448751 -12.59831804 36.73460299 -14.75 38.15625 C-17.51231611 39.19211854 -19.3395215 39.0079577 -22.25 38.625 C-23.14203125 38.51414063 -24.0340625 38.40328125 -24.953125 38.2890625 C-25.62859375 38.19367188 -26.3040625 38.09828125 -27 38 C-26.67 39.32 -26.34 40.64 -26 42 C-31.65394631 42.34615998 -35.03006806 41.43425238 -40 39 C-40 37.68 -40 36.36 -40 35 C-39.18917969 34.5875 -38.37835938 34.175 -37.54296875 33.75 C-30.68128225 30.17137887 -24.47042846 26.37696533 -18.33984375 21.6015625 C-13.99939719 18.63063915 -10.18003171 18.90038401 -5 19 C-6.12534105 17.64381501 -6.12534105 17.64381501 -9.0625 17.9375 C-10.031875 17.958125 -11.00125 17.97875 -12 18 C-11.62488281 17.5153125 -11.24976563 17.030625 -10.86328125 16.53125 C-6.85470888 11.280727 -2.96227616 5.92455233 0 0 Z " fill="#01CDAB" transform="translate(284,135)"/>
<path d="M0 0 C2.22447315 2.22447315 2.75722262 3.75517604 3.8125 6.6875 C5.63214432 11.41857524 7.88381474 15.01820773 11 19 C9.68 19.33 8.36 19.66 7 20 C8.02867188 20.21914062 9.05734375 20.43828125 10.1171875 20.6640625 C14.32856927 21.87003947 17.07152014 24.32953452 20.125 27.375 C24.30165931 31.42636675 24.30165931 31.42636675 28.84765625 35.0546875 C31 37 31 37 31.48828125 39.359375 C31.43027344 40.14828125 31.37226562 40.9371875 31.3125 41.75 C31.26738281 42.54921875 31.22226563 43.3484375 31.17578125 44.171875 C31.08876953 45.07679688 31.08876953 45.07679688 31 46 C24.375 46.25 24.375 46.25 21 44 C22.32 43.34 23.64 42.68 25 42 C25 41.34 25 40.68 25 40 C23.96875 40.350625 22.9375 40.70125 21.875 41.0625 C17.90473294 42.02304848 15.86853005 42.17737871 12 41 C9.125 39.0625 9.125 39.0625 7 37 C7 36.34 7 35.68 7 35 C9.5 33.375 9.5 33.375 12 32 C11.39671875 31.99742187 10.7934375 31.99484375 10.171875 31.9921875 C9.37265625 31.95351562 8.5734375 31.91484375 7.75 31.875 C6.56664063 31.84019531 6.56664063 31.84019531 5.359375 31.8046875 C1.6733978 30.54754958 0.76846984 28.38667753 -1 25 C-1.66906444 22.29854735 -2.14138528 19.9208666 -2.4375 17.1875 C-2.56294189 16.135625 -2.56294189 16.135625 -2.69091797 15.0625 C-3.25236819 9.23526606 -2.43887942 5.25297106 0 0 Z " fill="#7FE2D3" transform="translate(76,100)"/>
<path d="M0 0 C0.33 0 0.66 0 1 0 C1 2.97 1 5.94 1 9 C-16.16 9 -33.32 9 -51 9 C-51 35.73 -51 62.46 -51 90 C-51.66 90 -52.32 90 -53 90 C-53.09264076 79.1169163 -53.16373496 68.23392626 -53.20724869 57.35052872 C-53.22813214 52.2970208 -53.25646371 47.24378245 -53.30175781 42.19042969 C-53.34518839 37.31452532 -53.3691314 32.4388804 -53.37950897 27.56279755 C-53.38690535 25.70161606 -53.40134866 23.84044892 -53.42292023 21.97937775 C-53.45191744 19.37428496 -53.45595759 16.77026702 -53.45410156 14.16503906 C-53.46848267 13.39395813 -53.48286377 12.6228772 -53.49768066 11.82843018 C-53.47129863 8.41094254 -53.24858465 6.35893922 -51.28112793 3.51806641 C-48.60724335 1.73862462 -47.23706832 1.51301991 -44.04785156 1.54589844 C-42.57677948 1.54635162 -42.57677948 1.54635162 -41.07598877 1.54681396 C-40.02481873 1.56745911 -38.97364868 1.58810425 -37.890625 1.609375 C-36.26770538 1.61786469 -36.26770538 1.61786469 -34.61199951 1.62652588 C-31.15754893 1.64891001 -27.70413689 1.69911209 -24.25 1.75 C-21.90756707 1.77006228 -19.56511787 1.78831352 -17.22265625 1.8046875 C-11.4814167 1.84878145 -5.74078255 1.91571445 0 2 C0 1.34 0 0.68 0 0 Z " fill="#523A80" transform="translate(167,96)"/>
<path d="M0 0 C3.5622231 -0.11654436 7.12395342 -0.1873639 10.6875 -0.25 C12.19860352 -0.30027344 12.19860352 -0.30027344 13.74023438 -0.3515625 C21.2503749 -0.45070627 21.2503749 -0.45070627 25.14453125 1.890625 C28.55745617 5.77058175 28.1358273 9.1778662 28.11352539 14.12158203 C28.11367142 14.96068115 28.11381744 15.79978027 28.1139679 16.66430664 C28.11326968 19.44550131 28.10548155 22.22662949 28.09765625 25.0078125 C28.09579175 26.93309492 28.094368 28.85837782 28.09336853 30.78366089 C28.08954591 35.8570079 28.07971779 40.93032639 28.06866455 46.00366211 C28.05844495 51.17821873 28.05386973 56.35277995 28.04882812 61.52734375 C28.03809531 71.68490838 28.02102193 81.84245182 28 92 C26.68 92 25.36 92 24 92 C23.99635437 90.9815802 23.99270874 89.9631604 23.98895264 88.91387939 C23.95202434 79.32000797 23.89427556 69.72645816 23.81609726 60.13283157 C23.77657431 55.20051993 23.74440952 50.26838811 23.72900391 45.3359375 C23.71386898 40.57653152 23.67948001 35.81761975 23.63169098 31.05843353 C23.61684445 29.24199466 23.60895711 27.42548525 23.60811615 25.6089859 C23.60575452 23.06593529 23.57874145 20.52425943 23.54589844 17.98144531 C23.5509288 17.22906586 23.55595917 16.4766864 23.56114197 15.70150757 C23.49133648 12.21214293 23.25863391 10.33507073 21.09753418 7.53527832 C18.74430373 5.81284456 17.55641527 5.47304044 14.671875 5.390625 C13.87265625 5.35839844 13.0734375 5.32617188 12.25 5.29296875 C11.425 5.27878906 10.6 5.26460938 9.75 5.25 C8.90953125 5.22035156 8.0690625 5.19070312 7.203125 5.16015625 C5.1359285 5.08968364 3.06795967 5.04255061 1 5 C0.67 3.35 0.34 1.7 0 0 Z " fill="#FCFBFC" transform="translate(214,93)"/>
<path d="M0 0 C-6.99046106 12.93978963 -14.79629851 20.20024296 -27 28 C-27.33 28 -27.66 28 -28 28 C-28.125 21.25 -28.125 21.25 -27 19 C-27.66 19 -28.32 19 -29 19 C-28.95617187 19.73605469 -28.91234375 20.47210938 -28.8671875 21.23046875 C-28.87561338 24.41966608 -29.0285035 26.95283917 -30 30 C-33.06303005 32.4629475 -36.28427 33.7794063 -40 35 C-40.77948035 23.16922052 -40.77948035 23.16922052 -38 19 C-37.01 18.34 -36.02 17.68 -35 17 C-34.40703125 16.5978125 -33.8140625 16.195625 -33.203125 15.78125 C-31.17150294 14.44850593 -29.1023336 13.21792945 -27 12 C-26.20464844 11.52949219 -25.40929687 11.05898437 -24.58984375 10.57421875 C-18.39788732 7 -18.39788732 7 -15 7 C-14.67 7.66 -14.34 8.32 -14 9 C-13.67 8.0925 -13.34 7.185 -13 6.25 C-10.1003301 1.53803642 -5.56637487 -1.85545829 0 0 Z " fill="#7FE1D2" transform="translate(284,134)"/>
<path d="M0 0 C-0.40580106 5.2754138 -1.10778979 7.47268449 -5 11 C-5.7872678 13.1381966 -5.7872678 13.1381966 -6 15 C-4.02 15 -2.04 15 0 15 C0.75 16.625 0.75 16.625 1 19 C-1.44463501 24.22262933 -4.55730652 26.19167423 -9.61328125 28.765625 C-12.66619728 30.3445472 -15.50037484 32.1972158 -18.37109375 34.08203125 C-20 35 -20 35 -22 35 C-22.3125 32.3125 -22.3125 32.3125 -22 29 C-19.827365 26.42714276 -18.02006162 24.51003081 -15 23 C-15.99 22.67 -16.98 22.34 -18 22 C-15.36 18.37 -12.72 14.74 -10 11 C-10.78375 11.804375 -11.5675 12.60875 -12.375 13.4375 C-15 16 -15 16 -17 17 C-17 16.01 -17 15.02 -17 14 C-17.66 14 -18.32 14 -19 14 C-18.938125 15.2375 -18.87625 16.475 -18.8125 17.75 C-18.60246978 21.95060434 -19.1518154 22.20242053 -22 26 C-22 21.05 -22 16.1 -22 11 C-20.02 11 -18.04 11 -16 11 C-14.22993491 9.66587961 -14.22993491 9.66587961 -13 7.75 C-9.34665263 3.03507788 -6.19718437 0 0 0 Z " fill="#02BE96" transform="translate(266,111)"/>
<path d="M0 0 C1.53637695 1.16723633 1.53637695 1.16723633 3 3 C2.97338867 5.4519043 2.97338867 5.4519043 2.41796875 8.32421875 C2.22783203 9.35224609 2.03769531 10.38027344 1.84179688 11.43945312 C1.62587891 12.51130859 1.40996094 13.58316406 1.1875 14.6875 C0.88102539 16.31268555 0.88102539 16.31268555 0.56835938 17.97070312 C0.06074504 20.65043461 -0.46256631 23.32611713 -1 26 C-0.195625 26.268125 0.60875 26.53625 1.4375 26.8125 C2.283125 27.204375 3.12875 27.59625 4 28 C4.495 29.485 4.495 29.485 5 31 C3.80375 30.938125 2.6075 30.87625 1.375 30.8125 C-2.79235613 30.83462755 -5.51418769 31.56803792 -9 34 C-10.90206849 37.05039221 -10.90206849 37.05039221 -12 40 C-20.21679389 40.4740458 -20.21679389 40.4740458 -23.375 38.5625 C-23.91125 38.046875 -24.4475 37.53125 -25 37 C-28.49230095 35.83589968 -31.33474201 35.93454896 -35 36 C-35.99 36 -36.98 36 -38 36 C-33.85365854 31.12195122 -33.85365854 31.12195122 -29.9375 30.5625 C-27.17400001 30.9740851 -25.36203476 31.54644015 -23 33 C-22.9175 32.2575 -22.835 31.515 -22.75 30.75 C-21.81602546 27.32542668 -20.85448107 26.10330184 -18 24 C-14.39462669 23.09865667 -12.06579842 22.59007753 -8.5625 23.9375 C-7.7890625 24.4634375 -7.7890625 24.4634375 -7 25 C-7 25.66 -7 26.32 -7 27 C-6.34 26.67 -5.68 26.34 -5 26 C-4.35650514 23.49957049 -4.35650514 23.49957049 -3.96484375 20.46875 C-3.71057617 18.78845703 -3.71057617 18.78845703 -3.45117188 17.07421875 C-3.1969043 15.30498047 -3.1969043 15.30498047 -2.9375 13.5 C-2.59596749 11.17656325 -2.25109915 8.85361355 -1.90234375 6.53125 C-1.75273193 5.49548828 -1.60312012 4.45972656 -1.44897461 3.39257812 C-1 1 -1 1 0 0 Z " fill="#D5EDFE" transform="translate(181,122)"/>
<path d="M0 0 C4.41489526 0.50455946 6.89469841 1.81077134 10 5 C11.3125 8.75 11.3125 8.75 12 12 C12.99 11.01 13.98 10.02 15 9 C25.50241679 14.45214749 25.50241679 14.45214749 29 19 C30.7108696 24.52694031 29.82244947 30.37340124 29 36 C27.68 35.34 26.36 34.68 25 34 C25 30.7 25 27.4 25 24 C24.67 26.64 24.34 29.28 24 32 C14.7831305 25.46440163 8.42991818 18.97130429 3 9 C2.38125 7.865625 1.7625 6.73125 1.125 5.5625 C0 3 0 3 0 0 Z " fill="#01CCAB" transform="translate(78,99)"/>
<path d="M0 0 C14.85 0 29.7 0 45 0 C45 2.64 45 5.28 45 8 C38.75204325 8.02527124 32.50409959 8.04283344 26.25610352 8.05493164 C24.12881986 8.05997298 22.00153969 8.06680591 19.87426758 8.07543945 C16.82372174 8.08751379 13.77322155 8.09323014 10.72265625 8.09765625 C9.28672874 8.10539818 9.28672874 8.10539818 7.8217926 8.11329651 C6.94095505 8.11337204 6.06011749 8.11344757 5.15258789 8.11352539 C4.37315323 8.115746 3.59371857 8.11796661 2.79066467 8.12025452 C1 8 1 8 0 7 C0 4.69 0 2.38 0 0 Z " fill="#AEDCFF" transform="translate(122,128)"/>
<path d="M0 0 C0.71353638 0.00202423 1.42707275 0.00404846 2.16223145 0.00613403 C2.89091431 0.00517731 3.61959717 0.00422058 4.37036133 0.00323486 C5.91377855 0.00255318 7.45719861 0.00440666 9.00061035 0.00857544 C11.37095544 0.01392391 13.74111104 0.00863011 16.1114502 0.00222778 C17.60754437 0.00288857 19.10363842 0.00416973 20.59973145 0.00613403 C21.31326782 0.0041098 22.0268042 0.00208557 22.76196289 0 C27.76602953 0.02399462 27.76602953 0.02399462 28.88098145 1.13894653 C29.00598145 4.63894653 29.00598145 4.63894653 28.88098145 8.13894653 C27.20902168 9.8109063 25.17207515 9.26679822 22.94007874 9.27789307 C22.25155319 9.27586884 21.56302765 9.2738446 20.8536377 9.27175903 C20.14952255 9.27271576 19.44540741 9.27367249 18.71995544 9.2746582 C17.22781281 9.27533995 15.73566724 9.27348606 14.24353027 9.26931763 C11.95659726 9.26397716 9.66986137 9.26925864 7.38293457 9.27566528 C5.93566851 9.27500434 4.48840257 9.27372286 3.0411377 9.27175903 C2.35463638 9.27378326 1.66813507 9.2758075 0.96083069 9.27789307 C-3.88910328 9.25390417 -3.88910328 9.25390417 -6.11901855 8.13894653 C-6.16143579 5.80599878 -6.15994793 3.47192086 -6.11901855 1.13894653 C-4.41408974 -0.56598228 -2.27367595 0.01090233 0 0 Z " fill="#ACDCFF" transform="translate(128.1190185546875,112.86105346679688)"/>
<path d="M0 0 C11.11431032 9.40225747 12.50848453 24.45684382 14.59863281 37.92797852 C14.9135631 40.05125649 14.9135631 40.05125649 16 42 C14.68 42.33 13.36 42.66 12 43 C11.90203125 41.92363281 11.8040625 40.84726563 11.703125 39.73828125 C10.33186431 25.87260336 8.28597734 12.28597734 -2 2 C-4.8275989 1.24755499 -4.8275989 1.24755499 -8 2 C-15.46114631 7.50658909 -18.94145376 18.5961658 -20.6640625 27.35546875 C-21.44964121 33.53961742 -21.70981371 39.77626776 -22 46 C-22.66 45.01 -23.32 44.02 -24 43 C-24.99 45.31 -25.98 47.62 -27 50 C-27.33 49.34 -27.66 48.68 -28 48 C-36.58 48 -45.16 48 -54 48 C-54 47.34 -54 46.68 -54 46 C-45.42 45.67 -36.84 45.34 -28 45 C-25.3179664 39.93332398 -25.3179664 39.93332398 -24.2265625 34.8984375 C-24.12674072 34.16657227 -24.02691895 33.43470703 -23.92407227 32.68066406 C-23.77603149 31.53936035 -23.77603149 31.53936035 -23.625 30.375 C-21.88715936 18.65262674 -18.21568356 7.0265631 -9 -1 C-5.05627547 -2.31457484 -3.74701691 -1.76330208 0 0 Z " fill="#482B74" transform="translate(196,45)"/>
<path d="M0 0 C4.56406321 -0.077357 8.52686324 0.05115281 13 1 C13.33 0.67 13.66 0.34 14 0 C16.67058851 -0.14115161 19.32432238 -0.04247107 22 0 C20 3 20 3 17 4 C17.33 4.33 17.66 4.66 18 5 C18.56601461 9.49100115 18.59239688 12.96879061 16.3125 16.9375 C13.93529308 19.05771158 12.02957572 20.07429631 9 21 C6.39654953 18.50042786 4.00955378 16.00646035 2 13 C2 9.3629888 2.39193978 7.21612043 4 4 C5.32 4 6.64 4 8 4 C5.69 3.67 3.38 3.34 1 3 C0.67 2.01 0.34 1.02 0 0 Z " fill="#F2C290" transform="translate(180,107)"/>
<path d="M0 0 C0.85049423 0.00222061 1.70098846 0.00444122 2.57725525 0.00672913 C4.01863609 0.00684242 4.01863609 0.00684242 5.48913574 0.00695801 C7.05630592 0.01469994 7.05630592 0.01469994 8.65513611 0.02259827 C9.71913132 0.02401321 10.78312653 0.02542816 11.87936401 0.02688599 C15.29293069 0.03250388 18.70643286 0.04505941 22.11997986 0.05775452 C24.42792162 0.06276721 26.73586441 0.06733052 29.04380798 0.07142639 C34.71505412 0.08247912 40.38626238 0.09923465 46.05747986 0.12025452 C46.05747986 1.77025452 46.05747986 3.42025452 46.05747986 5.12025452 C29.22747986 5.12025452 12.39747986 5.12025452 -4.94252014 5.12025452 C-2.45849111 0.15219644 -2.45849111 0.15219644 0 0 Z " fill="#CDC5D9" transform="translate(120.94252014160156,98.87974548339844)"/>
<path d="M0 0 C2.4375 1.5625 2.4375 1.5625 4 4 C4.79990863 8.01603612 4.61840725 10.96932124 2.5 14.5 C-0.98597004 16.59158203 -4.10215706 16.8876276 -8 16 C-11.44652326 13.55871269 -12.78056289 12.17033126 -13.5625 8 C-12.87642343 4.34092496 -11.57265686 2.64832324 -9 0 C-5.81452856 -1.59273572 -3.39809153 -0.76164121 0 0 Z " fill="#5CB3F7" transform="translate(195,61)"/>
<path d="M0 0 C1.02673828 0.01353516 2.05347656 0.02707031 3.11132812 0.04101562 C5.63725909 0.07626117 8.1621066 0.125533 10.6875 0.1875 C10.3575 0.8475 10.0275 1.5075 9.6875 2.1875 C9.07753174 2.19160889 8.46756348 2.19571777 7.83911133 2.19995117 C5.05844208 2.23297575 2.27993843 2.30362568 -0.5 2.375 C-1.45970703 2.38080078 -2.41941406 2.38660156 -3.40820312 2.39257812 C-9.37373053 2.57425905 -9.37373053 2.57425905 -14.42578125 5.61328125 C-16.75540373 8.79179308 -17.43876438 10.46314894 -17.62890625 14.3203125 C-17.69174805 15.52880859 -17.69174805 15.52880859 -17.75585938 16.76171875 C-17.79517578 17.60347656 -17.83449219 18.44523437 -17.875 19.3125 C-17.93977539 20.58673828 -17.93977539 20.58673828 -18.00585938 21.88671875 C-18.11204236 23.98678223 -18.21278497 26.08711948 -18.3125 28.1875 C-19.04855469 27.71699219 -19.78460938 27.24648437 -20.54296875 26.76171875 C-21.51878906 26.13910156 -22.49460937 25.51648438 -23.5 24.875 C-24.46292969 24.26011719 -25.42585938 23.64523438 -26.41796875 23.01171875 C-29.02884303 21.36626897 -31.6594602 19.76380335 -34.3125 18.1875 C-35.3025 19.5075 -36.2925 20.8275 -37.3125 22.1875 C-37.38726562 21.58421875 -37.46203125 20.9809375 -37.5390625 20.359375 C-38.28581355 15.8203 -38.6338328 13.76508911 -42.25 10.6875 C-45.24663357 9.13539851 -45.24663357 9.13539851 -48.3125 8.1875 C-48.6425 9.1775 -48.9725 10.1675 -49.3125 11.1875 C-49.6425 11.1875 -49.9725 11.1875 -50.3125 11.1875 C-50.9725 13.4975 -51.6325 15.8075 -52.3125 18.1875 C-52.9725 17.5275 -53.6325 16.8675 -54.3125 16.1875 C-53.83699439 14.70715236 -53.35698784 13.22824979 -52.875 11.75 C-52.60816406 10.92628906 -52.34132813 10.10257813 -52.06640625 9.25390625 C-51.3125 7.1875 -51.3125 7.1875 -50.3125 6.1875 C-44.56869854 6.30237603 -41.71460619 8.03220941 -37.59765625 11.71484375 C-36.3125 13.1875 -36.3125 13.1875 -36.3125 15.1875 C-35.60738281 15.26871094 -34.90226562 15.34992188 -34.17578125 15.43359375 C-30.61187802 16.37197482 -28.42742136 18.02798138 -25.5 20.25 C-24.52417969 20.98347656 -23.54835938 21.71695313 -22.54296875 22.47265625 C-21.80691406 23.03855469 -21.07085937 23.60445312 -20.3125 24.1875 C-20.27511719 23.09050781 -20.23773438 21.99351563 -20.19921875 20.86328125 C-20.13353347 19.40882143 -20.06708701 17.95439584 -20 16.5 C-19.97744141 15.77876953 -19.95488281 15.05753906 -19.93164062 14.31445312 C-19.65114056 8.72995178 -18.60179353 5.26908643 -14.33203125 1.38671875 C-9.61965634 -0.48481954 -5.01553825 -0.12514779 0 0 Z " fill="#39236E" transform="translate(126.3125,90.8125)"/>
<path d="M0 0 C0.99 0.495 0.99 0.495 2 1 C2 6.94 2 12.88 2 19 C7.18851607 18.0162446 7.18851607 18.0162446 10.4375 14.625 C13.37671377 11.52639286 15.88767134 9.43037518 20 8 C22.875 8.3125 22.875 8.3125 25 9 C25.64165788 14.26159459 24.20577001 16.68592849 21.09375 20.6796875 C20.7328125 21.11539063 20.371875 21.55109375 20 22 C21.65 22.66 23.3 23.32 25 24 C25.1875 27.375 25.1875 27.375 25 31 C24.01 31.66 23.02 32.32 22 33 C22.33 30.69 22.66 28.38 23 26 C21.02 25.67 19.04 25.34 17 25 C17.51133932 20.52578095 19.23593161 18.45508549 22 15 C22.78946609 12.31492671 22.78946609 12.31492671 23 10 C16.04050478 12.72921381 11.55304386 15.92927485 7 22 C5.02 21.67 3.04 21.34 1 21 C1 26.28 1 31.56 1 37 C0.67 37 0.34 37 0 37 C0 24.79 0 12.58 0 0 Z " fill="#38206B" transform="translate(243,101)"/>
<path d="M0 0 C1.875 0.25 1.875 0.25 4 1 C7.33929543 5.9445006 6.48658971 12.30901604 6 18 C5.25275963 20.41449345 4.4378635 21.90311574 3 24 C0 23 0 23 -1.171875 20.9140625 C-2.19618727 17.30964291 -2.26477283 14.11991288 -2.25 10.375 C-2.25515625 9.06273438 -2.2603125 7.75046875 -2.265625 6.3984375 C-2 3 -2 3 0 0 Z " fill="#FB908D" transform="translate(189,84)"/>
<path d="M0 0 C2.6875 2.3125 2.6875 2.3125 5 5 C5.763125 5.680625 6.52625 6.36125 7.3125 7.0625 C9 9 9 9 9 13 C9.78375 13.12375 10.5675 13.2475 11.375 13.375 C14 14 14 14 16 16 C16.125 19.625 16.125 19.625 16 23 C15.01 23.495 15.01 23.495 14 24 C13.95875 22.906875 13.9175 21.81375 13.875 20.6875 C13.39434602 16.75003667 13.39434602 16.75003667 9.9375 15.0625 C8.968125 14.711875 7.99875 14.36125 7 14 C7 12.68 7 11.36 7 10 C6.01 10 5.02 10 4 10 C3.566875 9.05125 3.13375 8.1025 2.6875 7.125 C1.20697799 3.79958063 1.20697799 3.79958063 -2 2 C-5.3675602 2.18040501 -7.99113606 2.36105284 -10.875 4.1875 C-12.43432705 6.69974914 -12.67683438 9.09150946 -13 12 C-12.34 12 -11.68 12 -11 12 C-11.33 12.99 -11.66 13.98 -12 15 C-12.61875 14.814375 -13.2375 14.62875 -13.875 14.4375 C-16.04160178 13.76313824 -16.04160178 13.76313824 -18 15 C-18.433125 15.99 -18.433125 15.99 -18.875 17 C-19.24625 17.66 -19.6175 18.32 -20 19 C-21.33333333 19.33333333 -22.66666667 19.66666667 -24 20 C-25.28436734 21.9837767 -25.28436734 21.9837767 -26 24 C-26.625 22.1875 -26.625 22.1875 -27 20 C-26.01 18.515 -26.01 18.515 -25 17 C-23.68 17 -22.36 17 -21 17 C-20.938125 16.38125 -20.87625 15.7625 -20.8125 15.125 C-20 13 -20 13 -17.4375 11.75 C-16.633125 11.5025 -15.82875 11.255 -15 11 C-14.9175 9.9275 -14.835 8.855 -14.75 7.75 C-13.9371841 3.68592048 -13.22905115 2.46927441 -10 0 C-6.1544104 -1.2818632 -3.93271581 -0.94927623 0 0 Z " fill="#DCD6E2" transform="translate(106,52)"/>
<path d="M0 0 C2.0666244 4.00133661 2.21505715 7.35467097 2.125 11.8125 C2.10695313 12.97394531 2.08890625 14.13539063 2.0703125 15.33203125 C2.04710937 16.21246094 2.02390625 17.09289062 2 18 C1.01 18.495 1.01 18.495 0 19 C-0.06058594 17.94039062 -0.12117188 16.88078125 -0.18359375 15.7890625 C-0.26800127 14.40102779 -0.35264917 13.01300768 -0.4375 11.625 C-0.47681641 10.92632812 -0.51613281 10.22765625 -0.55664062 9.5078125 C-0.74280134 5.62639508 -0.74280134 5.62639508 -2 2 C-6.3522424 2.5060747 -9.63465857 3.1020671 -13 6 C-14.02021269 8.67475451 -14.48772342 11.1591935 -15 14 C-17 11 -17 11 -17 9 C-19.58587003 10.26587358 -22.16865501 11.53745849 -24.75 12.8125 C-25.84441406 13.34713867 -25.84441406 13.34713867 -26.9609375 13.89257812 C-29.96415169 15.38053425 -32.68153815 16.75046697 -35.328125 18.82421875 C-36.15570313 19.40623047 -36.15570313 19.40623047 -37 20 C-37.99 19.67 -38.98 19.34 -40 19 C-32.86529222 14.0321294 -25.45266177 9.13330417 -17.32421875 5.953125 C-14.83746218 5.06618835 -14.83746218 5.06618835 -12.5625 3 C-8.94021538 0.17285103 -4.44075434 -2.37897554 0 0 Z " fill="#3E2570" transform="translate(286,132)"/>
<path d="M0 0 C3.27412061 2.6335318 5.5235009 4.71150812 6 9 C6.99 9 7.98 9 9 9 C9.625 10.875 9.625 10.875 10 13 C9.34 13.66 8.68 14.32 8 15 C7.71125 14.360625 7.4225 13.72125 7.125 13.0625 C6.17176549 10.84793921 6.17176549 10.84793921 4 10 C3.525625 9.030625 3.05125 8.06125 2.5625 7.0625 C1.20367158 3.78256825 1.20367158 3.78256825 -2 2 C-6.90733772 2.14770477 -6.90733772 2.14770477 -10.875 4.75 C-12.08863527 7.17727054 -12.62769367 9.31939441 -13 12 C-12.01 12.33 -11.02 12.66 -10 13 C-10.66 13.66 -11.32 14.32 -12 15 C-13.34262065 14.70630173 -14.67696283 14.3721042 -16 14 C-16.99 14.495 -16.99 14.495 -18 15 C-18.65213292 17.02463255 -18.65213292 17.02463255 -19 19 C-19.78375 19.0825 -20.5675 19.165 -21.375 19.25 C-24.14749104 19.72806339 -24.14749104 19.72806339 -25.3125 22.0625 C-25.539375 22.701875 -25.76625 23.34125 -26 24 C-26.625 22.1875 -26.625 22.1875 -27 20 C-26.01 18.515 -26.01 18.515 -25 17 C-23.68 17 -22.36 17 -21 17 C-20.7525 16.195625 -20.505 15.39125 -20.25 14.5625 C-19 12 -19 12 -16.875 11.1875 C-16.25625 11.125625 -15.6375 11.06375 -15 11 C-14.938125 9.9275 -14.87625 8.855 -14.8125 7.75 C-14 4 -14 4 -11.5625 1.625 C-7.1564552 -1.16907719 -5.18748344 -1.23092827 0 0 Z " fill="#DBD6E3" transform="translate(173,18)"/>
<path d="M0 0 C4.56406321 -0.077357 8.52686324 0.05115281 13 1 C13.33 0.67 13.66 0.34 14 0 C16.67058851 -0.14115161 19.32432238 -0.04247107 22 0 C20 3 20 3 17.4375 3.875 C16.2309375 4.431875 16.2309375 4.431875 15 5 C14.32852082 7.44063441 14.32852082 7.44063441 14 10 C12.625 11.8125 12.625 11.8125 11 13 C10.01 13 9.02 13 8 13 C6.23537317 9.91190305 6 8.76687864 6 5 C5.34 4.67 4.68 4.34 4 4 C5.32 4 6.64 4 8 4 C5.69 3.67 3.38 3.34 1 3 C0.67 2.01 0.34 1.02 0 0 Z " fill="#614076" transform="translate(180,107)"/>
<path d="M0 0 C0.33 0 0.66 0 1 0 C1.20496094 0.96421875 1.40992188 1.9284375 1.62109375 2.921875 C1.89050781 4.18515625 2.15992188 5.4484375 2.4375 6.75 C2.83775391 8.62945312 2.83775391 8.62945312 3.24609375 10.546875 C3.7916235 13.04557085 4.35638812 15.52553101 5 18 C3.25 19.5625 3.25 19.5625 1 21 C-1.1875 20.8125 -1.1875 20.8125 -3 20 C-4.32139293 17.35721413 -4.45087395 15.0003451 -4.75 12.0625 C-4.86859375 11.00160156 -4.9871875 9.94070312 -5.109375 8.84765625 C-5 6 -5 6 -3.640625 4.30859375 C-3.09921875 3.87675781 -2.5578125 3.44492188 -2 3 C-1.34 2.01 -0.68 1.02 0 0 Z " fill="#EE8A8E" transform="translate(172,87)"/>
<path d="M0 0 C15.84 0 31.68 0 48 0 C48 0.99 48 1.98 48 3 C39.75 3 31.5 3 23 3 C23 2.34 23 1.68 23 1 C21.68 1 20.36 1 19 1 C18.67 1.66 18.34 2.32 18 3 C18 2.34 18 1.68 18 1 C14.04 1 10.08 1 6 1 C6 1.66 6 2.32 6 3 C3.69 3 1.38 3 -1 3 C-0.67 2.01 -0.34 1.02 0 0 Z " fill="#FEFEFE" transform="translate(118,100)"/>
<path d="M0 0 C0.66 0.33 1.32 0.66 2 1 C-1.24872916 7.46751612 -5.02919664 12.742695 -10 18 C-8.02 18 -6.04 18 -4 18 C-4 18.66 -4 19.32 -4 20 C-5.0725 20.144375 -6.145 20.28875 -7.25 20.4375 C-12.78764659 21.26814699 -15.53123277 22.1962756 -20 25.6875 C-25.66370631 29.92954724 -31.58742635 33.0455158 -38 36 C-38 35.34 -38 34.68 -38 34 C-31.25 30 -31.25 30 -29 30 C-29.020625 28.741875 -29.04125 27.48375 -29.0625 26.1875 C-29.10886083 23.35948913 -28.91692961 21.75078884 -28 19 C-27.34 19 -26.68 19 -26 19 C-26 21.64 -26 24.28 -26 27 C-14.67297455 19.33344186 -6.25629136 12.45492106 0 0 Z " fill="#36437B" transform="translate(283,134)"/>
<path d="M0 0 C1.27667514 2.55335029 0.71152169 3.29428148 0 6 C-0.371019 11.30643457 -0.56459715 16.19138034 2 21 C-0.64 21 -3.28 21 -6 21 C-7.61469592 17.77060816 -7.45375436 14.50126676 -7 11 C-5.42778458 6.61803326 -3.41302911 3.17832223 0 0 Z " fill="#D9EFFF" transform="translate(172,164)"/>
<path d="M0 0 C3.4544112 4.50575374 4.13771129 6.75449793 4.125 12.5 C4.12757813 13.6653125 4.13015625 14.830625 4.1328125 16.03125 C4 19 4 19 3 21 C-1.56537102 20.51943463 -1.56537102 20.51943463 -3.28125 18.46875 C-4.38287227 14.68491699 -3.17084999 11.42671488 -2.125 7.75 C-1.92519531 7.00492187 -1.72539062 6.25984375 -1.51953125 5.4921875 C-1.02571014 3.65799482 -0.51452906 1.82849171 0 0 Z " fill="#F68888" transform="translate(209,87)"/>
<path d="M0 0 C0.66 0 1.32 0 2 0 C2.10957031 0.88042969 2.21914062 1.76085937 2.33203125 2.66796875 C2.49058594 3.82941406 2.64914063 4.99085937 2.8125 6.1875 C2.96332031 7.33605469 3.11414063 8.48460938 3.26953125 9.66796875 C4.02586709 13.11799268 4.75519325 15.27416324 7 18 C9.48513583 18.81406498 9.48513583 18.81406498 12.1875 18.8125 C13.08855469 18.86019531 13.98960938 18.90789062 14.91796875 18.95703125 C15.60503906 18.97121094 16.29210937 18.98539063 17 19 C15.71034824 20.37562854 14.37310707 21.70766393 13 23 C12.34 23 11.68 23 11 23 C14.42388092 26.82669043 17.00724943 28.72278474 22 30 C22 30.66 22 31.32 22 32 C16.02968261 31.70876501 13.105466 28.97185616 9 25 C9.33 24.01 9.66 23.02 10 22 C9.2575 21.814375 8.515 21.62875 7.75 21.4375 C3.52198232 19.22739985 1.7974278 15.54147957 0.39453125 11.0703125 C-0.04768246 8.74978509 -0.09721409 6.61055816 -0.0625 4.25 C-0.05347656 3.45078125 -0.04445313 2.6515625 -0.03515625 1.828125 C-0.02355469 1.22484375 -0.01195313 0.6215625 0 0 Z " fill="#422F73" transform="translate(72,112)"/>
<path d="M0 0 C-1 2 -1 2 -4.25 3.25 C-8.37937075 4.94584014 -10.4888719 7.26918111 -13 11 C-13.90196925 13.33948273 -14.45853734 15.53880609 -15 18 C-16.32 18 -17.64 18 -19 18 C-19.45858928 12.26763402 -18.65645061 9.44703453 -15 5 C-9.99725293 0.48532581 -6.66995118 -0.12584814 0 0 Z " fill="#DAEFFF" transform="translate(140,167)"/>
<path d="M0 0 C2.75105422 -0.10812003 5.49785087 -0.18734945 8.25 -0.25 C9.02730469 -0.28351563 9.80460938 -0.31703125 10.60546875 -0.3515625 C16.41212858 -0.45082164 16.41212858 -0.45082164 19.546875 1.953125 C21 4 21 4 21 5 C14.07 5 7.14 5 0 5 C0 3.35 0 1.7 0 0 Z " fill="#EEEBF2" transform="translate(215,99)"/>
<path d="M0 0 C7.39449541 0.59633028 7.39449541 0.59633028 11 3 C10.67 3.66 10.34 4.32 10 5 C7.69 4.34 5.38 3.68 3 3 C6.25179812 5.21713508 9.4213696 7.34832443 13 9 C11.75 10.5 11.75 10.5 10 12 C8.68 12 7.36 12 6 12 C6 12.66 6 13.32 6 14 C8.64 14 11.28 14 14 14 C14 14.66 14 15.32 14 16 C6.57142857 16.14285714 6.57142857 16.14285714 3 15 C3 14.01 3 13.02 3 12 C4.98 11.34 6.96 10.68 9 10 C8.44570312 9.68546875 7.89140625 9.3709375 7.3203125 9.046875 C6.59585938 8.61890625 5.87140625 8.1909375 5.125 7.75 C4.40570313 7.33234375 3.68640625 6.9146875 2.9453125 6.484375 C0.79125838 4.84071924 0.00859415 3.48432665 -1 1 C-0.67 0.67 -0.34 0.34 0 0 Z " fill="#46246C" transform="translate(60,145)"/>
<path d="M0 0 C2.4375 1.6875 2.4375 1.6875 4 4 C4.25 7.25 4.25 7.25 4 10 C3.67 10 3.34 10 3 10 C2.71125 9.05125 2.4225 8.1025 2.125 7.125 C1.23174891 3.94788422 1.23174891 3.94788422 -1 2 C-4.09771665 1.67045568 -6.17331023 1.54665399 -8.9375 3.0625 C-10.6490104 6.18348955 -9.79291991 8.64533884 -9 12 C-8.34 12.66 -7.68 13.32 -7 14 C-2.86169011 13.69903201 -0.48152976 13.32101984 3 11 C1.125 14.875 1.125 14.875 0 16 C-7.01030928 16.70103093 -7.01030928 16.70103093 -11 13.875 C-13 11 -13 11 -13.5625 8 C-12.87642343 4.34092496 -11.57265686 2.64832324 -9 0 C-5.81452856 -1.59273572 -3.39809153 -0.76164121 0 0 Z " fill="#5B4A8C" transform="translate(195,61)"/>
<path d="M0 0 C0.66 0 1.32 0 2 0 C1.62612511 5.9819983 -0.08429071 10.38622554 -4 15 C-6.6875 16.25 -6.6875 16.25 -9 17 C-10.1500831 18.96672915 -10.1500831 18.96672915 -11 21 C-14 23 -14 23 -16.1875 22.625 C-17.0846875 22.315625 -17.0846875 22.315625 -18 22 C-16.35 21.01 -14.7 20.02 -13 19 C-13.33 18.01 -13.66 17.02 -14 16 C-14.66 15.67 -15.32 15.34 -16 15 C-16 14.34 -16 13.68 -16 13 C-14.98679687 13.10441406 -14.98679687 13.10441406 -13.953125 13.2109375 C-11.20487996 13.3777385 -8.72535423 13.40708907 -6 13 C-2.32511687 9.23324479 -1.19901434 4.99589306 0 0 Z " fill="#332571" transform="translate(285,151)"/>
<path d="M0 0 C0 0.66 0 1.32 0 2 C-1.258125 2.226875 -2.51625 2.45375 -3.8125 2.6875 C-7.04225422 3.48779308 -7.80539042 3.76281957 -10 6.4375 C-11.18177124 9.00733712 -11.18177124 9.00733712 -11 12 C-10.34 12.33 -9.68 12.66 -9 13 C-9 13.66 -9 14.32 -9 15 C-11.31 15 -13.62 15 -16 15 C-16.66 16.32 -17.32 17.64 -18 19 C-18.66 19 -19.32 19 -20 19 C-19.34 17.02 -18.68 15.04 -18 13 C-16.35 12.67 -14.7 12.34 -13 12 C-13.0825 11.113125 -13.165 10.22625 -13.25 9.3125 C-12.94530814 5.27533282 -11.77959995 3.86135289 -9 1 C-6.04335481 -0.4783226 -3.25770263 -0.06032783 0 0 Z " fill="#DBD6E2" transform="translate(251,50)"/>
<path d="M0 0 C4.05276239 2.42093179 7.86600814 5.45849217 11 9 C11 9.66 11 10.32 11 11 C8.17781982 9.80600069 6.45433775 8.51364887 4.125 6.4375 C0.74964217 3.80472089 -0.74749789 2.91321424 -5 3 C-7.4614094 4.16104217 -9.67603893 5.56987011 -12 7 C-12.66 6.67 -13.32 6.34 -14 6 C-6.00494234 -0.77841845 -6.00494234 -0.77841845 0 0 Z " fill="#381A6A" transform="translate(194,35)"/>
<path d="M0 0 C0.98613281 0.00322266 1.97226563 0.00644531 2.98828125 0.00976562 C4.02082031 0.01814453 5.05335937 0.02652344 6.1171875 0.03515625 C7.67759766 0.04192383 7.67759766 0.04192383 9.26953125 0.04882812 C11.84380712 0.06063673 14.41796896 0.0771055 16.9921875 0.09765625 C16.6621875 0.75765625 16.3321875 1.41765625 15.9921875 2.09765625 C15.38745605 2.10176514 14.78272461 2.10587402 14.15966797 2.11010742 C11.39454401 2.14319573 8.63157935 2.21385249 5.8671875 2.28515625 C4.91585937 2.29095703 3.96453125 2.29675781 2.984375 2.30273438 C-3.43783418 2.50342841 -6.55237207 3.39469135 -11.0078125 8.09765625 C-11.0078125 5.09765625 -11.0078125 5.09765625 -9.1328125 2.97265625 C-5.92446408 0.14176058 -4.19283887 -0.02409678 0 0 Z " fill="#4B2D76" transform="translate(120.0078125,90.90234375)"/>
<path d="M0 0 C1.9375 0.6875 1.9375 0.6875 4 2 C4.5 4.5 4.5 4.5 5 7 C6.96758273 8.36020151 6.96758273 8.36020151 9 9 C9 9.66 9 10.32 9 11 C9.78375 11.268125 10.5675 11.53625 11.375 11.8125 C14 13 14 13 16 16 C16.125 18.6875 16.125 18.6875 16 21 C15.34 21.33 14.68 21.66 14 22 C13.6596875 20.329375 13.6596875 20.329375 13.3125 18.625 C12.39376342 14.83961627 12.39376342 14.83961627 9.375 13.5625 C8.59125 13.376875 7.8075 13.19125 7 13 C7 11.68 7 10.36 7 9 C6.401875 8.95875 5.80375 8.9175 5.1875 8.875 C3 8 3 8 1.25 5.0625 C0 2 0 2 0 0 Z " fill="#DCD6E3" transform="translate(253,52)"/>
<path d="M0 0 C0.66 0.33 1.32 0.66 2 1 C2.60356653 8.12208505 2.60356653 8.12208505 -0.0625 12 C-3.71329152 14.48564529 -5.66546502 14.64215333 -10 14 C-11.7109375 12.46875 -11.7109375 12.46875 -13 11 C-12.38511719 10.97421875 -11.77023438 10.9484375 -11.13671875 10.921875 C-6.17286979 10.68808518 -6.17286979 10.68808518 -2 8.3125 C-0.80676402 5.5531418 -0.33858189 2.97952067 0 0 Z " fill="#DAEFFF" transform="translate(199,163)"/>
<path d="M0 0 C0.99 0.33 1.98 0.66 3 1 C3.76173392 5.3164922 4.16063604 8.74433453 3 13 C1.68 12.67 0.36 12.34 -1 12 C-1.02698189 10.37509046 -1.04638757 8.75005367 -1.0625 7.125 C-1.07410156 6.22007812 -1.08570312 5.31515625 -1.09765625 4.3828125 C-1 2 -1 2 0 0 Z " fill="#7E547A" transform="translate(91,147)"/>
<path d="M0 0 C-0.93441535 1.27310312 -1.87267111 2.543388 -2.8125 3.8125 C-3.33457031 4.52019531 -3.85664063 5.22789063 -4.39453125 5.95703125 C-5.83128877 7.78531393 -7.31815763 9.39896688 -9 11 C-9.75 7.75 -9.75 7.75 -10 4 C-7.29051062 -0.22680343 -4.81814183 -0.43801289 0 0 Z " fill="#7EC7FD" transform="translate(194,62)"/>
<path d="M0 0 C0.66 0 1.32 0 2 0 C2.44611815 4.46118145 2.35609985 6.47093737 -0.1875 10.25 C-2.72767073 12.73372249 -4.76567531 14.55306527 -8 16 C-11.48872415 14.83709195 -12.09976864 13.86032391 -14.1875 10.9375 C-14.71730469 10.20402344 -15.24710938 9.47054687 -15.79296875 8.71484375 C-16.19128906 8.14894531 -16.58960938 7.58304687 -17 7 C-16.34 6.67 -15.68 6.34 -15 6 C-12.03 9.465 -12.03 9.465 -9 13 C-4.29157376 10.88673474 -4.29157376 10.88673474 -1 7 C-0.60612212 4.67612053 -0.26513915 2.34206251 0 0 Z " fill="#654A81" transform="translate(198,114)"/>
<path d="M0 0 C4.56406321 -0.077357 8.52686324 0.05115281 13 1 C13.33 0.67 13.66 0.34 14 0 C16.67058851 -0.14115161 19.32432238 -0.04247107 22 0 C21.01 1.485 21.01 1.485 20 3 C18.02880859 3.34057617 18.02880859 3.34057617 15.6484375 3.29296875 C14.79765625 3.28330078 13.946875 3.27363281 13.0703125 3.26367188 C12.18085938 3.23853516 11.29140625 3.21339844 10.375 3.1875 C9.4778125 3.17396484 8.580625 3.16042969 7.65625 3.14648438 C5.43690211 3.11106925 3.21874812 3.06168461 1 3 C0.67 2.01 0.34 1.02 0 0 Z " fill="#C7C5E0" transform="translate(180,107)"/>
<path d="M0 0 C0.66 0 1.32 0 2 0 C2.11593506 0.65597168 2.23187012 1.31194336 2.35131836 1.98779297 C2.87683919 4.95077449 3.40710918 7.91288654 3.9375 10.875 C4.11990234 11.90753906 4.30230469 12.94007812 4.49023438 14.00390625 C4.66748047 14.99003906 4.84472656 15.97617188 5.02734375 16.9921875 C5.18968506 17.90339355 5.35202637 18.81459961 5.51928711 19.75341797 C5.90673787 22.02194696 5.90673787 22.02194696 7 24 C5.68 24.33 4.36 24.66 3 25 C2.86722656 23.865625 2.73445312 22.73125 2.59765625 21.5625 C2.41928669 20.04166481 2.24090038 18.52083158 2.0625 17 C1.97548828 16.25621094 1.88847656 15.51242188 1.79882812 14.74609375 C1.22146169 9.82778708 0.61972716 4.91315228 0 0 Z " fill="#3C2068" transform="translate(205,63)"/>
<path d="M0 0 C4.95 0 9.9 0 15 0 C15 0.99 15 1.98 15 3 C10.05 3 5.1 3 0 3 C0 2.01 0 1.02 0 0 Z " fill="#3A1B67" transform="translate(290,195)"/>
<path d="M0 0 C0.66 0 1.32 0 2 0 C2 2.64 2 5.28 2 8 C3.65 7.34 5.3 6.68 7 6 C2.43913169 11.53819723 -3.58511177 14.02275522 -10 17 C-10 16.34 -10 15.68 -10 15 C-3.25 11 -3.25 11 -1 11 C-1.020625 9.741875 -1.04125 8.48375 -1.0625 7.1875 C-1.10886083 4.35948913 -0.91692961 2.75078884 0 0 Z " fill="#434B81" transform="translate(255,153)"/>
<path d="M0 0 C0.66 0.33 1.32 0.66 2 1 C-0.64 4.63 -3.28 8.26 -6 12 C-4.02 12 -2.04 12 0 12 C-3.22791555 14.1519437 -4.28400809 14.20086443 -8 14 C-9.6415049 10.7169902 -8.51888624 7.57454967 -8 4 C-7.34 4 -6.68 4 -6 4 C-5.67 4.66 -5.34 5.32 -5 6 C-3.35 4.02 -1.7 2.04 0 0 Z " fill="#2A4A77" transform="translate(255,121)"/>
<path d="M0 0 C0.33 1.32 0.66 2.64 1 4 C2.25296875 3.95359375 3.5059375 3.9071875 4.796875 3.859375 C6.44789281 3.82185187 8.09893642 3.78545229 9.75 3.75 C10.9875 3.69972656 10.9875 3.69972656 12.25 3.6484375 C18.42297754 3.54887335 18.42297754 3.54887335 21.578125 6.015625 C22.04734375 6.67046875 22.5165625 7.3253125 23 8 C22.01 8.495 22.01 8.495 21 9 C20.5877417 8.5155542 20.1754834 8.0311084 19.75073242 7.53198242 C17.66668126 5.70832867 16.71459137 5.59077411 13.98828125 5.48828125 C12.85229492 5.43510742 12.85229492 5.43510742 11.69335938 5.38085938 C10.51483398 5.34702148 10.51483398 5.34702148 9.3125 5.3125 C8.51521484 5.27833984 7.71792969 5.24417969 6.89648438 5.20898438 C4.93148096 5.12661896 2.96576304 5.06162933 1 5 C1 6.65 1 8.3 1 10 C0.34 10 -0.32 10 -1 10 C-1.125 3.375 -1.125 3.375 0 0 Z " fill="#573375" transform="translate(214,94)"/>
<path d="M0 0 C1.875 0.1875 1.875 0.1875 4 1 C6.10407599 4.97436576 6.21476435 8.36916454 6.125 12.8125 C6.10695313 13.97394531 6.08890625 15.13539063 6.0703125 16.33203125 C6.04710937 17.21246094 6.02390625 18.09289062 6 19 C5.34 19.33 4.68 19.66 4 20 C3.96261719 18.95199219 3.92523438 17.90398437 3.88671875 16.82421875 C3.82105485 15.44527695 3.75460765 14.06637229 3.6875 12.6875 C3.66494141 11.99720703 3.64238281 11.30691406 3.61914062 10.59570312 C3.44765943 6.54757542 3.44765943 6.54757542 1.45703125 3.14453125 C0.73580078 2.57798828 0.73580078 2.57798828 0 2 C0 1.34 0 0.68 0 0 Z " fill="#371D68" transform="translate(282,131)"/>
<path d="M0 0 C4.29 0 8.58 0 13 0 C13 0.99 13 1.98 13 3 C8.71 3 4.42 3 0 3 C0 2.01 0 1.02 0 0 Z " fill="#3C1A69" transform="translate(44,195)"/>
<path d="M0 0 C1.32 0.33 2.64 0.66 4 1 C2.75 2.5 2.75 2.5 1 4 C-0.32 4 -1.64 4 -3 4 C-3 4.66 -3 5.32 -3 6 C-0.36 6 2.28 6 5 6 C5 6.66 5 7.32 5 8 C-2.42857143 8.14285714 -2.42857143 8.14285714 -6 7 C-6 6.01 -6 5.02 -6 4 C-4.02 3.34 -2.04 2.68 0 2 C0 1.34 0 0.68 0 0 Z " fill="#3A1B69" transform="translate(69,153)"/>
<path d="M0 0 C-1.50223584 4.20626034 -4.28550034 5.73900021 -8 8 C-8.33 7.01 -8.66 6.02 -9 5 C-4.5 0 -4.5 0 0 0 Z " fill="#48226F" transform="translate(102,171)"/>
<path d="M0 0 C3 1 3 1 4.640625 3.6171875 C5.17171875 4.69226562 5.7028125 5.76734375 6.25 6.875 C6.79140625 7.94492187 7.3328125 9.01484375 7.890625 10.1171875 C9 13 9 13 8 16 C6.13513805 13.20270707 4.49727525 10.38032298 2.875 7.4375 C2.33617187 6.46683594 1.79734375 5.49617188 1.2421875 4.49609375 C0 2 0 2 0 0 Z " fill="#452671" transform="translate(197,48)"/>
<path d="M0 0 C2.36543381 3.54815071 2.26923313 5.17256132 2.25 9.375 C2.25515625 10.49648437 2.2603125 11.61796875 2.265625 12.7734375 C2.00575269 15.93012177 1.34320698 18.15368045 0 21 C-1.20220203 17.46905698 -0.79532349 14.87101018 -0.0625 11.25 C0.13214844 10.26515625 0.32679688 9.2803125 0.52734375 8.265625 C0.68332031 7.51796875 0.83929688 6.7703125 1 6 C0.34 6 -0.32 6 -1 6 C-0.67 4.02 -0.34 2.04 0 0 Z " fill="#E56F75" transform="translate(193,86)"/>
<path d="M0 0 C0.33 0 0.66 0 1 0 C1.20496094 0.96421875 1.40992188 1.9284375 1.62109375 2.921875 C1.89050781 4.18515625 2.15992188 5.4484375 2.4375 6.75 C2.70433594 8.00296875 2.97117188 9.2559375 3.24609375 10.546875 C3.7916235 13.04557085 4.35638812 15.52553101 5 18 C4.01 18 3.02 18 2 18 C0.18048783 12.42016269 -0.85341378 6.88600042 -1 1 C-0.67 0.67 -0.34 0.34 0 0 Z " fill="#EC7477" transform="translate(172,87)"/>
<path d="M0 0 C5.75 0.875 5.75 0.875 8 2 C8 2.66 8 3.32 8 4 C7.01 4 6.02 4 5 4 C4.67 4.99 4.34 5.98 4 7 C3.01 7.33 2.02 7.66 1 8 C0.67 5.36 0.34 2.72 0 0 Z " fill="#295A80" transform="translate(243,174)"/>
<path d="M0 0 C4.35522853 0.50642192 7.44239635 1.38411497 11 4 C11 4.66 11 5.32 11 6 C5.64951939 5.62671065 3.49087093 4.0042343 0 0 Z " fill="#EFBF8F" transform="translate(62,147)"/>
<path d="M0 0 C0.66 0.33 1.32 0.66 2 1 C-1.12621626 4.39417765 -3.56541027 6.6062718 -8 8 C-8 6.68 -8 5.36 -8 4 C-7.01 4 -6.02 4 -5 4 C-2.32601524 2.06102121 -2.32601524 2.06102121 0 0 Z " fill="#421C6D" transform="translate(101,173)"/>
<path d="M0 0 C1.65 0 3.3 0 5 0 C4.67 1.65 4.34 3.3 4 5 C2.68 5 1.36 5 0 5 C0 3.35 0 1.7 0 0 Z " fill="#FAE1C6" transform="translate(188,112)"/>
<path d="M0 0 C2.76477453 2.76477453 2.52458441 5.1966753 3 9 C3.33 9.66 3.66 10.32 4 11 C2.68 11.33 1.36 11.66 0 12 C0 8.04 0 4.08 0 0 Z " fill="#3A186F" transform="translate(208,76)"/>
<path d="M0 0 C3.26460973 1.80412643 4.88929795 2.83394693 7 6 C7 6.99 7 7.98 7 9 C6.34 9 5.68 9 5 9 C3.6273318 7.02678947 2.29572383 5.02456848 1 3 C0.34 2.34 -0.32 1.68 -1 1 C-0.67 0.67 -0.34 0.34 0 0 Z " fill="#402277" transform="translate(237,92)"/>
<path d="M0 0 C0.99 0.33 1.98 0.66 3 1 C2.25 2.9375 2.25 2.9375 1 5 C-1.125 5.75 -1.125 5.75 -3 6 C-2.42655063 3.13275314 -2.1385485 2.1385485 0 0 Z " fill="#265A82" transform="translate(86,166)"/>
<path d="M0 0 C0.66 0 1.32 0 2 0 C4.09350689 3.4019487 4.17942163 6.05272412 4 10 C1.16625119 6.79663178 0.4794463 4.21912747 0 0 Z " fill="#0FA19B" transform="translate(101,154)"/>
<path d="M0 0 C0 0.66 0 1.32 0 2 C-3.13498292 3.85776765 -5.37471432 4.20140476 -9 4 C-5.86025155 0.71753571 -4.76763047 0 0 0 Z " fill="#D2A489" transform="translate(82,162)"/>
<path d="M0 0 C2 2 2 2 2.125 5.625 C2.08375 6.73875 2.0425 7.8525 2 9 C1.34 9 0.68 9 0 9 C-0.87890625 2.84765625 -0.87890625 2.84765625 -1 1 C-0.67 0.67 -0.34 0.34 0 0 Z " fill="#C06499" transform="translate(85,148)"/>
<path d="M0 0 C0.99 0.66 1.98 1.32 3 2 C2.01 2.7734375 2.01 2.7734375 1 3.5625 C-1.65637543 6.79995755 -1.31342132 8.92552281 -1 13 C-1.66 13 -2.32 13 -3 13 C-3.4726477 4.80743982 -3.4726477 4.80743982 -1.5 1.4375 C-0.7575 0.7259375 -0.7575 0.7259375 0 0 Z " fill="#36266D" transform="translate(246,134)"/>
<path d="M0 0 C1.875 1.25 1.875 1.25 2.875 4.25 C1.885 4.58 0.895 4.91 -0.125 5.25 C-1.79166667 3.58333333 -3.45833333 1.91666667 -5.125 0.25 C-2.125 -0.75 -2.125 -0.75 0 0 Z " fill="#C2B8D0" transform="translate(198.125,59.75)"/>
<path d="M0 0 C0.66 0 1.32 0 2 0 C1.625 2.4375 1.625 2.4375 1 5 C0.01 5.495 0.01 5.495 -1 6 C-1.66 5.67 -2.32 5.34 -3 5 C-1.125 1.125 -1.125 1.125 0 0 Z " fill="#236485" transform="translate(106,177)"/>
<path d="M0 0 C1.5 1.125 1.5 1.125 3 3 C3.1875 6.1875 3.1875 6.1875 3 9 C1.5 7.875 1.5 7.875 0 6 C-0.1875 2.8125 -0.1875 2.8125 0 0 Z " fill="#70B5BB" transform="translate(77,144)"/>
<path d="M0 0 C1.65 1.65 3.3 3.3 5 5 C3.02 5.99 3.02 5.99 1 7 C-0.0625 5.1875 -0.0625 5.1875 -1 3 C-0.67 2.01 -0.34 1.02 0 0 Z " fill="#677BBA" transform="translate(217,124)"/>
<path d="M0 0 C-0.99 0.495 -0.99 0.495 -2 1 C-2 1.99 -2 2.98 -2 4 C-2.66 4 -3.32 4 -4 4 C-4 3.01 -4 2.02 -4 1 C-5.65 1 -7.3 1 -9 1 C-5.64919071 -1.10976881 -3.77897651 -1.0497157 0 0 Z " fill="#755581" transform="translate(197,111)"/>
<path d="M0 0 C0.99 0.66 1.98 1.32 3 2 C0.75 4.0625 0.75 4.0625 -2 6 C-4.3125 5.75 -4.3125 5.75 -6 5 C-5.195625 4.54625 -4.39125 4.0925 -3.5625 3.625 C-0.91143428 2.25274335 -0.91143428 2.25274335 0 0 Z " fill="#333470" transform="translate(273,168)"/>
<path d="M0 0 C0.99 0.495 0.99 0.495 2 1 C1.979375 1.9075 1.95875 2.815 1.9375 3.75 C1.9889755 6.42672588 2.2215017 8.46988052 3 11 C2.01 11.495 2.01 11.495 1 12 C-0.26237731 9.47524538 -0.09856404 7.68799534 -0.0625 4.875 C-0.05347656 3.96492187 -0.04445313 3.05484375 -0.03515625 2.1171875 C-0.02355469 1.41851562 -0.01195313 0.71984375 0 0 Z " fill="#321D75" transform="translate(100,151)"/>
<path d="M0 0 C0 0.99 0 1.98 0 3 C-2.5 5.1875 -2.5 5.1875 -5 7 C-5 6.01 -5 5.02 -5 4 C-2.5 1.8125 -2.5 1.8125 0 0 Z " fill="#E277A5" transform="translate(101,171)"/>
<path d="M0 0 C4.875 1.75 4.875 1.75 6 4 C6.039992 5.99960012 6.04346799 8.00047242 6 10 C5.67 10 5.34 10 5 10 C4.731875 9.0925 4.46375 8.185 4.1875 7.25 C3.10423706 4.28528037 2.01640543 2.3830246 0 0 Z " fill="#4D3880" transform="translate(193,61)"/>
<path d="M0 0 C1.32 0 2.64 0 4 0 C4 0.66 4 1.32 4 2 C2.68 2 1.36 2 0 2 C0 1.34 0 0.68 0 0 Z " fill="#341C76" transform="translate(245,88)"/>
<path d="M0 0 C0.66 0 1.32 0 2 0 C2 1.32 2 2.64 2 4 C1.34 4 0.68 4 0 4 C0 2.68 0 1.36 0 0 Z " fill="#381A69" transform="translate(240,83)"/>
<path d="M0 0 C0.33 0.99 0.66 1.98 1 3 C0.01 3.33 -0.98 3.66 -2 4 C-1.34 2.68 -0.68 1.36 0 0 Z " fill="#391D69" transform="translate(179,42)"/>
<path d="M0 0 C0.66 0.33 1.32 0.66 2 1 C1.67 1.66 1.34 2.32 1 3 C0.01 2.67 -0.98 2.34 -2 2 C-1.34 1.34 -0.68 0.68 0 0 Z " fill="#3B206D" transform="translate(244,85)"/>
</svg>
